<?xml version="1.0" encoding="UTF-8" standalone="no"?>
<!DOCTYPE svg PUBLIC "-//W3C//DTD SVG 1.1//EN" "http://www.w3.org/Graphics/SVG/1.1/DTD/svg11.dtd">
<!-- Generated by Microsoft Visio, SVG Export FHA -SN.svg Page-1 -->
<svg xmlns="http://www.w3.org/2000/svg" xmlns:xlink="http://www.w3.org/1999/xlink" xmlns:ev="http://www.w3.org/2001/xml-events"
		xmlns:v="http://schemas.microsoft.com/visio/2003/SVGExtensions/" width="7.26482in" height="3.12636in"
		viewBox="0 0 523.067 225.098" xml:space="preserve" color-interpolation-filters="sRGB" class="st12">
	<v:documentProperties v:langID="1033" v:metric="true" v:viewMarkup="false">
		<v:userDefs>
			<v:ud v:nameU="msvNoAutoConnect" v:val="VT0(1):26"/>
		</v:userDefs>
	</v:documentProperties>

	<style type="text/css">
	<![CDATA[
		.st1 {fill:#000000}
		.st2 {stroke:#000000;stroke-linecap:butt;stroke-width:2.00898}
		.st3 {stroke:#000000;stroke-linecap:butt;stroke-width:1.60878}
		.st4 {stroke:#000000;stroke-linecap:round;stroke-linejoin:round;stroke-width:2}
		.st5 {stroke:#000000;stroke-linecap:round;stroke-linejoin:round;stroke-width:1}
		.st6 {fill:none;stroke:none;stroke-linecap:round;stroke-linejoin:round;stroke-width:1}
		.st7 {fill:#000000;font-family:Times New Roman;font-size:1.99999em}
		.st8 {font-size:0.500006em}
		.st9 {fill:#ff0000;stroke:#ff0000;stroke-linecap:round;stroke-linejoin:round;stroke-width:1}
		.st10 {stroke:#000000;stroke-linecap:butt;stroke-width:2.45873}
		.st11 {fill:#000000;font-family:Times New Roman;font-size:1.00001em}
		.st12 {fill:none;fill-rule:evenodd;font-size:12px;overflow:visible;stroke-linecap:square;stroke-miterlimit:3}
	]]>
	</style>

	<g v:mID="0" v:index="1" v:groupContext="foregroundPage">
		<v:userDefs>
			<v:ud v:nameU="DiodeCount" v:prompt="" v:val="VT0(11):26"/>
			<v:ud v:nameU="AccumulatorCount" v:prompt="" v:val="VT0(7):26"/>
			<v:ud v:nameU="InductorCount" v:prompt="" v:val="VT0(5):26"/>
		</v:userDefs>
		<title>Page-1</title>
		<v:pageProperties v:drawingScale="0.0393701" v:pageScale="0.0393701" v:drawingUnits="24" v:shadowOffsetX="8.50394"
				v:shadowOffsetY="-8.50394"/>
		<v:layer v:name="Connector" v:index="0"/>
		<v:layer v:name="Electrical" v:index="1"/>
		<v:layer v:name="Common Icons" v:index="2"/>
		<g id="shape777-1" v:mID="777" v:groupContext="shape" v:layerMember="1" transform="translate(53.9835,-64.437)">
			<title>AC source.777</title>
			<v:custProps>
				<v:cp v:nameU="Label" v:lbl="Label" v:prompt="" v:type="0" v:format="@" v:sortKey="" v:invis="false" v:ask="false"
						v:langID="1033" v:cal="0" v:val="VT4()"/>
			</v:custProps>
			<v:userDefs>
				<v:ud v:nameU="AT" v:prompt="Action toggle" v:val="VT0(0):26"/>
				<v:ud v:nameU="LimitHgt" v:val="VT0(0):26"/>
				<v:ud v:nameU="visDescription" v:val="VT4(AC current or voltage source.)"/>
				<v:ud v:nameU="visVersion" v:val="VT0(15):26"/>
				<v:ud v:nameU="Label" v:prompt="" v:val="VT4()"/>
				<v:ud v:nameU="SolSH" v:prompt="" v:val="VT4({2EE3C7D2-E26E-4B72-9E9C-5170DDBF261A})"/>
				<v:ud v:nameU="Label" v:prompt="" v:val="VT4(AC)"/>
			</v:userDefs>
			<path d="M34.24 198.95 L38.25 198.95 C38.25 203.94 35.07 207.56 30.68 207.56 C26.5 207.56 23.1 204.16 23.1 199.99 C23.1
						 198.02 21.51 196.43 19.55 196.43 C17.25 196.43 15.99 198.05 15.99 200.99 L11.97 200.99 C11.97 194.66 16.05
						 192.41 19.55 192.41 C23.72 192.41 27.12 195.81 27.12 199.99 C27.12 201.95 28.72 203.54 30.68 203.54 C32.81
						 203.54 34.24 201.7 34.24 198.95 Z" class="st1"/>
			<path d="M25.11 183.91 L25.11 174.87" class="st2"/>
			<path d="M25.11 225.1 L25.11 216.06" class="st2"/>
			<path d="M41.18 199.99 A16.0718 16.0718 -180 1 0 9.04 199.99 A16.0718 16.0718 -180 1 0 41.18 199.99" class="st2"/>
		</g>
		<g id="group779-6" transform="translate(174.517,-150.175)" v:mID="779" v:groupContext="group" v:layerMember="1">
			<v:custProps>
				<v:cp v:nameU="Core" v:lbl="Core" v:type="1" v:format="Air;Magnetic;Magnetic with Gap" v:langID="1033"
						v:val="VT4(Air)"/>
				<v:cp v:nameU="Adjustability" v:lbl="Adjustability" v:type="1" v:format="Fixed;Adjustable;Continuously Adjustable"
						v:langID="1033" v:val="VT4(Fixed)"/>
				<v:cp v:nameU="Taps" v:lbl="Taps" v:type="1" v:format="0;1;2;3" v:langID="1033" v:val="VT4(0)"/>
				<v:cp v:nameU="Label" v:lbl="Label" v:prompt="" v:type="0" v:format="@" v:sortKey="" v:invis="false" v:ask="false"
						v:langID="1033" v:cal="0" v:val="VT4()"/>
			</v:custProps>
			<v:userDefs>
				<v:ud v:nameU="Core" v:val="VT0(0):26"/>
				<v:ud v:nameU="Adjustability" v:val="VT0(0):26"/>
				<v:ud v:nameU="visDescription" v:val="VT4(Represents an inductor.)"/>
				<v:ud v:nameU="visVersion" v:val="VT0(15):26"/>
				<v:ud v:nameU="Label" v:prompt="" v:val="VT4()"/>
				<v:ud v:nameU="SolSH" v:prompt="" v:val="VT4({2EE3C7D2-E26E-4B72-9E9C-5170DDBF261A})"/>
				<v:ud v:nameU="Label" v:prompt="" v:val="VT4(L1)"/>
			</v:userDefs>
			<title>Inductor.779</title>
			<g id="shape780-7" v:mID="780" v:groupContext="shape" v:layerMember="1" transform="translate(32.031,-36.0408)">
				<title>Sheet.780</title>
			</g>
			<g id="shape781-9" v:mID="781" v:groupContext="shape" v:layerMember="1" transform="translate(0,-9.42645E-06)">
				<title>Sheet.781</title>
				<path d="" class="st3"/>
				<path d="M20.4 197.43 C24.6 202.06 24.68 210.71 20.4 210.71 C16.2 210.71 16.03 204.46 18.41 200.38 C22.91 191.41
							 30.84 193.75 33.51 200.67 C35.28 205.73 35.02 210.71 31.09 210.61 C26.69 210.5 26.97 200.21 31.09 196.91"
						class="st3"/>
				<path d="" class="st3"/>
				<path d="M40.22 202.65 C40.22 225.1 40.22 201.87 40.22 200.87 C40.23 195.49 36.11 192.04 31.09 196.91" class="st3"/>
				<path d="" class="st3"/>
				<path d="M9.37 197.45 C13.53 202.04 14 210.71 9.36 210.73 C4.72 210.75 6.12 202.62 7.69 199.93 C10.87 194.48 16.19
							 192.57 20.4 197.43" class="st3"/>
				<path d="" class="st3"/>
				<path d="M0 201.12 C0 225.1 0 203.34 0 201.7 C-0 194.33 5.16 192.54 9.37 197.45" class="st3"/>
			</g>
		</g>
		<g id="shape783-19" v:mID="783" v:groupContext="shape" transform="translate(277.14,430.185) rotate(179.561)">
			<title>Sheet.783</title>
			<path d="M0 225.1 L196.32 225.1" class="st4"/>
		</g>
		<g id="shape784-22" v:mID="784" v:groupContext="shape" transform="translate(304.194,160.661) rotate(90)">
			<title>Sheet.784</title>
			<path d="M0 225.1 L45.94 225.1" class="st4"/>
		</g>
		<g id="shape829-25" v:mID="829" v:groupContext="shape" transform="translate(399.655,61.4066) rotate(90)">
			<title>Sheet.829</title>
			<path d="M0 225.1 L0.9 225.1" class="st5"/>
		</g>
		<g id="shape915-28" v:mID="915" v:groupContext="shape" transform="translate(438.989,-78.0919)">
			<title>Sheet.915</title>
			<desc>Uo</desc>
			<v:textBlock v:margins="rect(4,4,4,4)" v:tabSpace="42.5197"/>
			<v:textRect cx="32.155" cy="211.469" width="64.31" height="27.2586"/>
			<rect x="0" y="197.839" width="64.3099" height="27.2586" class="st6"/>
			<text x="20.49" y="218.67" class="st7" v:langID="1033"><v:paragraph v:horizAlign="1"/><v:tabList/>U<tspan class="st8">o</tspan></text>		</g>
		<g id="shape918-32" v:mID="918" v:groupContext="shape" transform="translate(352.746,-83.8642)">
			<title>Sheet.918</title>
			<desc>RRx</desc>
			<v:textBlock v:margins="rect(4,4,4,4)" v:tabSpace="42.5197"/>
			<v:textRect cx="51.1904" cy="211.469" width="102.39" height="27.2586"/>
			<rect x="0" y="197.839" width="102.381" height="27.2586" class="st6"/>
			<text x="36.18" y="218.67" class="st7" v:langID="1055"><v:paragraph v:horizAlign="1"/><v:tabList/>R<tspan class="st8"
						v:langID="1033">Rx</tspan></text>		</g>
		<g id="shape920-36" v:mID="920" v:groupContext="shape" transform="translate(18.5,-75.92)">
			<title>Sheet.920</title>
			<desc>Ui</desc>
			<v:textBlock v:margins="rect(4,4,4,4)" v:tabSpace="42.5197"/>
			<v:textRect cx="25.1123" cy="211.469" width="50.23" height="27.2586"/>
			<rect x="0" y="197.839" width="50.2245" height="27.2586" class="st6"/>
			<text x="14.78" y="218.67" class="st7" v:langID="1033"><v:paragraph v:horizAlign="1"/><v:tabList/>U<tspan class="st8">i</tspan></text>		</g>
		<g id="shape987-40" v:mID="987" v:groupContext="shape" transform="translate(113.322,-118.706)">
			<title>Sheet.987</title>
			<desc>CTx</desc>
			<v:textBlock v:margins="rect(4,4,4,4)" v:tabSpace="42.5197"/>
			<v:textRect cx="23.8566" cy="211.469" width="47.72" height="27.2586"/>
			<rect x="0" y="197.839" width="47.7133" height="27.2586" class="st6"/>
			<text x="9.19" y="218.67" class="st7" v:langID="1055"><v:paragraph v:horizAlign="1"/><v:tabList/>C<tspan class="st8"
						v:langID="1033">Tx</tspan></text>		</g>
		<g id="shape988-44" v:mID="988" v:groupContext="shape" transform="translate(96.516,-162.537)">
			<title>Sheet.988</title>
			<desc>ITx</desc>
			<v:textBlock v:margins="rect(4,4,4,4)" v:tabSpace="42.5197"/>
			<v:textRect cx="18.7376" cy="211.469" width="37.48" height="27.2586"/>
			<rect x="0" y="197.839" width="37.4752" height="27.2586" class="st6"/>
			<text x="8.08" y="218.67" class="st7" v:langID="1055"><v:paragraph v:horizAlign="1"/><v:tabList/>I<tspan class="st8"
						v:langID="1033">Tx</tspan></text>		</g>
		<g id="shape989-48" v:mID="989" v:groupContext="shape" transform="translate(169.515,-129.7)">
			<title>Sheet.989</title>
			<desc>LR</desc>
			<v:textBlock v:margins="rect(4,4,4,4)" v:tabSpace="42.5197"/>
			<v:textRect cx="25.1123" cy="211.469" width="50.23" height="27.2586"/>
			<rect x="0" y="197.839" width="50.2245" height="27.2586" class="st6"/>
			<text x="13.78" y="218.67" class="st7" v:langID="1055"><v:paragraph v:horizAlign="1"/><v:tabList/>L<tspan class="st8"
						v:langID="1033">R</tspan></text>		</g>
		<g id="shape1007-52" v:mID="1007" v:groupContext="shape" transform="translate(358.277,46.8566) rotate(90)">
			<title>Sheet.1007</title>
			<path d="M0 225.1 L30.91 225.1" class="st4"/>
		</g>
		<g id="shape1008-55" v:mID="1008" v:groupContext="shape" transform="translate(366.287,46.8566) rotate(90)">
			<title>Sheet.1008</title>
			<path d="M0 225.1 L30.91 225.1" class="st4"/>
		</g>
		<g id="shape1009-58" v:mID="1009" v:groupContext="shape" transform="translate(141.189,-162.788)">
			<title>Sheet.1009</title>
			<path d="M0 225.1 L33.2 225.1" class="st4"/>
		</g>
		<g id="shape1010-61" v:mID="1010" v:groupContext="shape" transform="translate(118.884,-162.78)">
			<title>Sheet.1010</title>
			<path d="M0 225.1 L14.29 225.1" class="st5"/>
		</g>
		<g id="shape1011-64" v:mID="1011" v:groupContext="shape" transform="translate(-146.001,111.244) rotate(-89.8418)">
			<title>Sheet.1011</title>
			<path d="M0 225.1 L49.55 225.1" class="st4"/>
		</g>
		<g id="shape1012-67" v:mID="1012" v:groupContext="shape" transform="translate(119.412,287.416) rotate(180)">
			<title>Sheet.1012</title>
			<path d="M0 225.1 L40.18 225.1" class="st4"/>
		</g>
		<g id="group799-70" transform="translate(126.264,283.224) rotate(180)" v:mID="799" v:groupContext="group" v:layerMember="2">
			<v:userDefs>
				<v:ud v:nameU="BackStyle" v:prompt="" v:val="VT0(2):26"/>
				<v:ud v:nameU="visVersion" v:prompt="" v:val="VT0(17):26"/>
				<v:ud v:nameU="visAltText" v:prompt="" v:val="VT4(Back)"/>
				<v:ud v:nameU="visAltDescription" v:prompt="" v:val="VT4(Back Icon.)"/>
				<v:ud v:nameU="Font" v:prompt="" v:val="VT0(201):26"/>
			</v:userDefs>
			<title>Back.799</title>
			<g id="group800-71" transform="translate(5.17423E-06,-8.52651E-14)" v:mID="800" v:groupContext="group"
					v:layerMember="2">
				<title>Sheet.800</title>
				<g id="shape801-72" v:mID="801" v:groupContext="shape" v:layerMember="2">
					<title>Sheet.801</title>
				</g>
			</g>
			<g id="group802-74" transform="translate(0,-1.44877)" v:mID="802" v:groupContext="group" v:layerMember="2">
				<title>Sheet.802</title>
				<g id="shape803-75" v:mID="803" v:groupContext="shape" v:layerMember="2">
					<title>Sheet.803</title>
					<path d="M16.79 221.3 L2.07 221.3 L3.82 219.6 C4.06 219.38 4.06 219.02 3.82 218.81 C3.58 218.58 3.21 218.58 2.99
								 218.81 L0.24 221.47 C0 221.7 0 222.06 0.24 222.27 L2.99 224.93 C3.11 225.04 3.27 225.1 3.41 225.1
								 C3.54 225.1 3.7 225.04 3.82 224.93 C4.06 224.7 4.06 224.34 3.82 224.13 L2.07 222.44 L16.79 222.44
								 C17.13 222.44 17.39 222.19 17.39 221.87 C17.39 221.54 17.13 221.3 16.79 221.3 Z" class="st9"/>
				</g>
			</g>
		</g>
		<g id="shape1030-77" v:mID="1030" v:groupContext="shape" transform="translate(693.418,96.7676) rotate(90)">
			<title>Sheet.1030</title>
			<path d="M0 225.1 L13.66 225.1" class="st4"/>
		</g>
		<g id="shape1031-80" v:mID="1031" v:groupContext="shape" transform="translate(462.966,-60.4445)">
			<title>Sheet.1031</title>
			<path d="M0 225.1 L13.66 225.1" class="st4"/>
		</g>
		<g id="shape1032-83" v:mID="1032" v:groupContext="shape" transform="translate(461.384,-121.42)">
			<title>Sheet.1032</title>
			<path d="M0 225.1 L13.66 225.1" class="st4"/>
		</g>
		<g id="shape1037-86" v:mID="1037" v:groupContext="shape" transform="translate(275.804,287.407) rotate(180)">
			<title>Sheet.1037</title>
			<path d="M0 225.1 L61.07 225.1" class="st4"/>
		</g>
		<g id="shape1038-89" v:mID="1038" v:groupContext="shape" transform="translate(50.3196,101.798) rotate(-90)">
			<title>Sheet.1038</title>
			<path d="M0 225.1 L39.49 225.1" class="st4"/>
		</g>
		<g id="shape1039-92" v:mID="1039" v:groupContext="shape" transform="translate(50.317,205.094) rotate(-90)">
			<title>Sheet.1039</title>
			<path d="M0 225.1 L42.19 225.1" class="st4"/>
		</g>
		<g id="shape1044-95" v:mID="1044" v:groupContext="shape" transform="translate(431.514,430.283) rotate(-179.572)">
			<title>Sheet.1044</title>
			<path d="M0 225.1 L76.52 225.1" class="st4"/>
		</g>
		<g id="shape1045-98" v:mID="1045" v:groupContext="shape" transform="translate(581.789,162.059) rotate(90.0152)">
			<title>Sheet.1045</title>
			<path d="M0 225.1 L42.62 225.1" class="st4"/>
		</g>
		<g id="shape1046-101" v:mID="1046" v:groupContext="shape" transform="translate(397.015,-164.767)">
			<title>Sheet.1046</title>
			<path d="M0 225.1 L35.93 225.1" class="st4"/>
		</g>
		<g id="shape1049-104" v:mID="1049" v:groupContext="shape" transform="translate(358.993,-164.507)">
			<title>Sheet.1049</title>
			<desc>IRx</desc>
			<v:textBlock v:margins="rect(4,4,4,4)" v:tabSpace="42.5197"/>
			<v:textRect cx="18.7376" cy="211.469" width="37.48" height="27.2586"/>
			<rect x="0" y="197.839" width="37.4752" height="27.2586" class="st6"/>
			<text x="7.74" y="218.67" class="st7" v:langID="1055"><v:paragraph v:horizAlign="1"/><v:tabList/>I<tspan class="st8"
						v:langID="1033">Rx</tspan></text>		</g>
		<g id="shape1053-108" v:mID="1053" v:groupContext="shape" transform="translate(377.051,-164.758)">
			<title>Sheet.1053</title>
		</g>
		<g id="shape1054-109" v:mID="1054" v:groupContext="shape" transform="translate(377.051,-164.758)">
			<title>Sheet.1054</title>
		</g>
		<g id="shape1055-110" v:mID="1055" v:groupContext="shape" transform="translate(131.719,101.086) rotate(-90)">
			<title>Sheet.1055</title>
			<path d="M0 225.1 L40.75 225.1" class="st4"/>
		</g>
		<g id="shape1056-113" v:mID="1056" v:groupContext="shape" transform="translate(403.882,285.429) rotate(179.989)">
			<title>Sheet.1056</title>
			<path d="M0 225.1 L47.02 225.1" class="st4"/>
		</g>
		<g id="group1057-116" transform="translate(385.525,280.91) rotate(180)" v:mID="1057" v:groupContext="group"
				v:layerMember="2">
			<v:userDefs>
				<v:ud v:nameU="BackStyle" v:prompt="" v:val="VT0(2):26"/>
				<v:ud v:nameU="visVersion" v:prompt="" v:val="VT0(17):26"/>
				<v:ud v:nameU="visAltText" v:prompt="" v:val="VT4(Back)"/>
				<v:ud v:nameU="visAltDescription" v:prompt="" v:val="VT4(Back Icon.)"/>
				<v:ud v:nameU="Font" v:prompt="" v:val="VT0(201):26"/>
			</v:userDefs>
			<title>Back.1057</title>
			<g id="group1058-117" transform="translate(5.17423E-06,-8.52651E-14)" v:mID="1058" v:groupContext="group"
					v:layerMember="2">
				<title>Sheet.1058</title>
				<g id="shape1059-118" v:mID="1059" v:groupContext="shape" v:layerMember="2">
					<title>Sheet.1059</title>
				</g>
			</g>
			<g id="group1060-120" transform="translate(0,-1.44877)" v:mID="1060" v:groupContext="group" v:layerMember="2">
				<title>Sheet.1060</title>
				<g id="shape1061-121" v:mID="1061" v:groupContext="shape" v:layerMember="2">
					<title>Sheet.1061</title>
					<path d="M16.79 221.3 L2.07 221.3 L3.82 219.6 C4.06 219.38 4.06 219.02 3.82 218.81 C3.58 218.58 3.21 218.58 2.99
								 218.81 L0.24 221.47 C0 221.7 0 222.06 0.24 222.27 L2.99 224.93 C3.11 225.04 3.27 225.1 3.41 225.1
								 C3.54 225.1 3.7 225.04 3.82 224.93 C4.06 224.7 4.06 224.34 3.82 224.13 L2.07 222.44 L16.79 222.44
								 C17.13 222.44 17.39 222.19 17.39 221.87 C17.39 221.54 17.13 221.3 16.79 221.3 Z" class="st9"/>
				</g>
			</g>
		</g>
		<g id="shape1064-123" v:mID="1064" v:groupContext="shape" transform="translate(208.1,103.144) rotate(-90.3445)">
			<title>Sheet.1064</title>
			<path d="M0 225.1 L41.46 225.1" class="st4"/>
		</g>
		<g id="shape1065-126" v:mID="1065" v:groupContext="shape" transform="translate(208.096,205.398) rotate(-90)">
			<title>Sheet.1065</title>
			<path d="M0 225.1 L52.68 225.1" class="st4"/>
		</g>
		<g id="group1066-129" transform="translate(648.247,102.492) rotate(90)" v:mID="1066" v:groupContext="group"
				v:layerMember="1">
			<v:custProps>
				<v:cp v:nameU="Label" v:lbl="Label" v:type="0" v:format="@" v:sortKey="" v:invis="false" v:ask="false"
						v:langID="1033" v:val="VT4()"/>
				<v:cp v:nameU="Slider_Position" v:lbl="Slider position (0-1)" v:type="2" v:langID="1033" v:val="VT0(0.5):26"/>
			</v:custProps>
			<v:userDefs>
				<v:ud v:nameU="Form" v:val="VT0(1):5"/>
				<v:ud v:nameU="SubType" v:val="VT0(0):26"/>
				<v:ud v:nameU="visVersion" v:val="VT0(15):26"/>
				<v:ud v:nameU="visDescription" v:val="VT4(Represents a fixed or variable resistor.)"/>
			</v:userDefs>
			<title>Resistor.1066</title>
			<g id="shape1067-130" v:mID="1067" v:groupContext="shape" v:layerMember="1">
				<title>Sheet.1067</title>
				<v:userDefs>
					<v:ud v:nameU="SubType" v:val="VT0(0):26"/>
					<v:ud v:nameU="Form" v:val="VT0(1):5"/>
				</v:userDefs>
				<path d="M0 215.05 L4.19 205.01 L12.56 225.1 L20.93 205.01 L29.3 225.1 L37.67 205.01 L46.04 225.1 L50.22 215.05"
						class="st4"/>
			</g>
			<g id="shape1068-133" v:mID="1068" v:groupContext="shape" v:layerMember="1"
					transform="translate(-154.299,78.2586) rotate(-45)">
				<title>Sheet.1068</title>
				<v:userDefs>
					<v:ud v:nameU="SubType" v:val="VT0(0):26"/>
				</v:userDefs>
			</g>
		</g>
		<g id="shape1082-135" v:mID="1082" v:groupContext="shape" transform="translate(275.415,-20.0043)">
			<title>Sheet.1082</title>
		</g>
		<g id="group1083-136" transform="translate(481.545,101.861) rotate(90)" v:mID="1083" v:groupContext="group"
				v:layerMember="1">
			<v:custProps>
				<v:cp v:nameU="Core" v:lbl="Core" v:type="1" v:format="Air;Magnetic;Magnetic with Gap" v:langID="1033"
						v:val="VT4(Air)"/>
				<v:cp v:nameU="Adjustability" v:lbl="Adjustability" v:type="1" v:format="Fixed;Adjustable;Continuously Adjustable"
						v:langID="1033" v:val="VT4(Fixed)"/>
				<v:cp v:nameU="Taps" v:lbl="Taps" v:type="1" v:format="0;1;2;3" v:langID="1033" v:val="VT4(0)"/>
				<v:cp v:nameU="Label" v:lbl="Label" v:prompt="" v:type="0" v:format="@" v:sortKey="" v:invis="false" v:ask="false"
						v:langID="1033" v:cal="0" v:val="VT4()"/>
			</v:custProps>
			<v:userDefs>
				<v:ud v:nameU="Core" v:val="VT0(0):26"/>
				<v:ud v:nameU="Adjustability" v:val="VT0(0):26"/>
				<v:ud v:nameU="visDescription" v:val="VT4(Represents an inductor.)"/>
				<v:ud v:nameU="visVersion" v:val="VT0(15):26"/>
				<v:ud v:nameU="Label" v:prompt="" v:val="VT4()"/>
				<v:ud v:nameU="SolSH" v:prompt="" v:val="VT4({2EE3C7D2-E26E-4B72-9E9C-5170DDBF261A})"/>
				<v:ud v:nameU="Label" v:prompt="" v:val="VT4(L2)"/>
			</v:userDefs>
			<title>Inductor.1083</title>
			<g id="shape1084-137" v:mID="1084" v:groupContext="shape" v:layerMember="1" transform="translate(48.9537,-55.0819)">
				<title>Sheet.1084</title>
			</g>
			<g id="shape1085-139" v:mID="1085" v:groupContext="shape" v:layerMember="1" transform="translate(0,-1.44066E-05)">
				<title>Sheet.1085</title>
				<path d="" class="st10"/>
				<path d="M31.17 182.81 C37.6 189.88 37.72 203.11 31.17 203.11 C24.76 203.1 24.49 193.55 28.13 187.33 C35.02 173.62
							 47.13 177.19 51.21 187.77 C53.92 195.5 53.52 203.11 47.51 202.96 C40.79 202.79 41.23 187.06 47.51 182.02"
						class="st10"/>
				<path d="" class="st10"/>
				<path d="M61.47 188.4 C61.47 225.1 61.47 189.6 61.47 188.06 C61.48 179.85 55.18 174.58 47.51 182.02" class="st10"/>
				<path d="" class="st10"/>
				<path d="M14.31 182.84 C20.68 189.85 21.4 203.11 14.31 203.14 C7.22 203.17 9.35 190.74 11.75 186.63 C16.61 178.3
							 24.74 175.38 31.17 182.81" class="st10"/>
				<path d="" class="st10"/>
				<path d="M0 186.85 C0 225.1 0 191.85 0 189.34 C-0.01 178.07 7.88 175.34 14.31 182.84" class="st10"/>
			</g>
		</g>
		<g id="group1086-149" transform="translate(452.569,112.485) rotate(90)" v:mID="1086" v:groupContext="group"
				v:layerMember="1">
			<v:custProps>
				<v:cp v:nameU="Core" v:lbl="Core" v:type="1" v:format="Air;Magnetic;Magnetic with Gap" v:langID="1033"
						v:val="VT4(Air)"/>
				<v:cp v:nameU="Adjustability" v:lbl="Adjustability" v:type="1" v:format="Fixed;Adjustable;Continuously Adjustable"
						v:langID="1033" v:val="VT4(Fixed)"/>
				<v:cp v:nameU="Taps" v:lbl="Taps" v:type="1" v:format="0;1;2;3" v:langID="1033" v:val="VT4(0)"/>
				<v:cp v:nameU="Label" v:lbl="Label" v:prompt="" v:type="0" v:format="@" v:sortKey="" v:invis="false" v:ask="false"
						v:langID="1033" v:cal="0" v:val="VT4()"/>
			</v:custProps>
			<v:userDefs>
				<v:ud v:nameU="Core" v:val="VT0(0):26"/>
				<v:ud v:nameU="Adjustability" v:val="VT0(0):26"/>
				<v:ud v:nameU="visDescription" v:val="VT4(Represents an inductor.)"/>
				<v:ud v:nameU="visVersion" v:val="VT0(15):26"/>
				<v:ud v:nameU="Label" v:prompt="" v:val="VT4()"/>
				<v:ud v:nameU="SolSH" v:prompt="" v:val="VT4({2EE3C7D2-E26E-4B72-9E9C-5170DDBF261A})"/>
				<v:ud v:nameU="Label" v:prompt="" v:val="VT4(L3)"/>
			</v:userDefs>
			<title>Inductor.1086</title>
			<g id="shape1087-150" v:mID="1087" v:groupContext="shape" v:layerMember="1" transform="translate(32.031,-36.0408)">
				<title>Sheet.1087</title>
			</g>
			<g id="shape1088-152" v:mID="1088" v:groupContext="shape" v:layerMember="1" transform="translate(0,-9.42645E-06)">
				<title>Sheet.1088</title>
				<path d="" class="st3"/>
				<path d="M20.4 197.43 C24.6 202.06 24.68 210.71 20.4 210.71 C16.2 210.71 16.03 204.46 18.41 200.38 C22.91 191.41
							 30.84 193.75 33.51 200.67 C35.28 205.73 35.02 210.71 31.09 210.61 C26.69 210.5 26.97 200.21 31.09 196.91"
						class="st3"/>
				<path d="" class="st3"/>
				<path d="M40.22 202.65 C40.22 225.1 40.22 201.87 40.22 200.87 C40.23 195.49 36.11 192.04 31.09 196.91" class="st3"/>
				<path d="" class="st3"/>
				<path d="M9.37 197.45 C13.53 202.04 14 210.71 9.36 210.73 C4.72 210.75 6.12 202.62 7.69 199.93 C10.87 194.48 16.19
							 192.57 20.4 197.43" class="st3"/>
				<path d="" class="st3"/>
				<path d="M0 204.2 C0 225.1 0 203.34 0 201.7 C-0 194.33 5.16 192.54 9.37 197.45" class="st3"/>
			</g>
		</g>
		<g id="group1089-162" transform="translate(150.829,162.554) rotate(-90)" v:mID="1089" v:groupContext="group"
				v:layerMember="1">
			<v:custProps>
				<v:cp v:nameU="Core" v:lbl="Core" v:type="1" v:format="Air;Magnetic;Magnetic with Gap" v:langID="1033"
						v:val="VT4(Air)"/>
				<v:cp v:nameU="Adjustability" v:lbl="Adjustability" v:type="1" v:format="Fixed;Adjustable;Continuously Adjustable"
						v:langID="1033" v:val="VT4(Fixed)"/>
				<v:cp v:nameU="Taps" v:lbl="Taps" v:type="1" v:format="0;1;2;3" v:langID="1033" v:val="VT4(0)"/>
				<v:cp v:nameU="Label" v:lbl="Label" v:prompt="" v:type="0" v:format="@" v:sortKey="" v:invis="false" v:ask="false"
						v:langID="1033" v:cal="0" v:val="VT4()"/>
			</v:custProps>
			<v:userDefs>
				<v:ud v:nameU="Core" v:val="VT0(0):26"/>
				<v:ud v:nameU="Adjustability" v:val="VT0(0):26"/>
				<v:ud v:nameU="visDescription" v:val="VT4(Represents an inductor.)"/>
				<v:ud v:nameU="visVersion" v:val="VT0(15):26"/>
				<v:ud v:nameU="Label" v:prompt="" v:val="VT4()"/>
				<v:ud v:nameU="SolSH" v:prompt="" v:val="VT4({2EE3C7D2-E26E-4B72-9E9C-5170DDBF261A})"/>
				<v:ud v:nameU="Label" v:prompt="" v:val="VT4(L4)"/>
			</v:userDefs>
			<title>Inductor.1089</title>
			<g id="shape1090-163" v:mID="1090" v:groupContext="shape" v:layerMember="1" transform="translate(48.9537,-55.0819)">
				<title>Sheet.1090</title>
			</g>
			<g id="shape1091-165" v:mID="1091" v:groupContext="shape" v:layerMember="1" transform="translate(0,-1.44066E-05)">
				<title>Sheet.1091</title>
				<path d="" class="st10"/>
				<path d="M31.17 182.81 C37.6 189.88 37.72 203.11 31.17 203.11 C24.76 203.1 24.49 193.55 28.13 187.33 C35.02 173.62
							 47.13 177.19 51.21 187.77 C53.92 195.5 53.52 203.11 47.51 202.96 C40.79 202.79 41.23 187.06 47.51 182.02"
						class="st10"/>
				<path d="" class="st10"/>
				<path d="M61.47 190.79 C61.47 225.1 61.47 189.6 61.47 188.06 C61.48 179.85 55.18 174.58 47.51 182.02" class="st10"/>
				<path d="" class="st10"/>
				<path d="M14.31 182.84 C20.68 189.85 21.4 203.11 14.31 203.14 C7.22 203.17 9.35 190.74 11.75 186.63 C16.61 178.3
							 24.74 175.38 31.17 182.81" class="st10"/>
				<path d="" class="st10"/>
				<path d="M0 188.46 C0 225.1 0 191.85 0 189.34 C-0.01 178.07 7.88 175.34 14.31 182.84" class="st10"/>
			</g>
		</g>
		<g id="shape1092-175" v:mID="1092" v:groupContext="shape" transform="translate(85.0905,162.901) rotate(-90)">
			<title>Sheet.1092</title>
			<path d="M0 225.1 L63.75 225.1" class="st5"/>
		</g>
		<g id="shape1093-178" v:mID="1093" v:groupContext="shape" transform="translate(94.749,160.969) rotate(-90)">
			<title>Sheet.1093</title>
			<path d="M0 225.1 L61.81 225.1" class="st5"/>
		</g>
		<g id="shape1094-181" v:mID="1094" v:groupContext="shape" transform="translate(13.6171,112.384) rotate(-90)">
			<title>Sheet.1094</title>
			<path d="M0 225.1 L50.07 225.1" class="st4"/>
		</g>
		<g id="shape1095-184" v:mID="1095" v:groupContext="shape" transform="translate(15.0741,205.364) rotate(-90)">
			<title>Sheet.1095</title>
			<path d="M0 225.1 L52.51 225.1" class="st4"/>
		</g>
		<g id="shape1096-187" v:mID="1096" v:groupContext="shape" transform="translate(192.354,-78.8739)">
			<title>Sheet.1096</title>
			<desc>LM</desc>
			<v:textBlock v:margins="rect(4,4,4,4)" v:tabSpace="42.5197"/>
			<v:textRect cx="25.1123" cy="211.469" width="50.23" height="27.2586"/>
			<rect x="0" y="197.839" width="50.2245" height="27.2586" class="st6"/>
			<text x="12.45" y="218.67" class="st7" v:langID="1055"><v:paragraph v:horizAlign="1"/><v:tabList/>L<tspan class="st8"
						v:langID="1033">M</tspan></text>		</g>
		<g id="shape1098-191" v:mID="1098" v:groupContext="shape" transform="translate(288.94,-129.807)">
			<title>Sheet.1098</title>
			<desc>n:1</desc>
			<v:textBlock v:margins="rect(4,4,4,4)" v:tabSpace="42.5197"/>
			<v:textRect cx="25.1123" cy="211.469" width="50.23" height="27.2586"/>
			<rect x="0" y="197.839" width="50.2245" height="27.2586" class="st6"/>
			<text x="9.78" y="218.67" class="st7" v:langID="1033"><v:paragraph v:horizAlign="1"/><v:tabList/>n:1</text>		</g>
		<g id="shape1099-194" v:mID="1099" v:groupContext="shape" transform="translate(26.9385,-87.4029)">
			<title>Sheet.1099</title>
			<desc>f</desc>
			<v:textBlock v:margins="rect(4,4,4,4)" v:tabSpace="42.5197"/>
			<v:textRect cx="25.1123" cy="211.469" width="50.23" height="27.2586"/>
			<rect x="0" y="197.839" width="50.2245" height="27.2586" class="st6"/>
			<text x="23.11" y="218.67" class="st11" v:langID="1033"><v:paragraph v:horizAlign="1"/><v:tabList/>f</text>		</g>
		<g id="shape1100-197" v:mID="1100" v:groupContext="shape" transform="translate(454.342,-90.9582)">
			<title>Sheet.1100</title>
			<desc>f</desc>
			<v:textBlock v:margins="rect(4,4,4,4)" v:tabSpace="42.5197"/>
			<v:textRect cx="25.1123" cy="211.469" width="50.23" height="27.2586"/>
			<rect x="0" y="197.839" width="50.2245" height="27.2586" class="st6"/>
			<text x="23.11" y="218.67" class="st11" v:langID="1033"><v:paragraph v:horizAlign="1"/><v:tabList/>f</text>		</g>
	</g>
</svg>
