<?xml version="1.0" encoding="UTF-8" standalone="no"?>
<svg
   xmlns:dc="http://purl.org/dc/elements/1.1/"
   xmlns:cc="http://creativecommons.org/ns#"
   xmlns:rdf="http://www.w3.org/1999/02/22-rdf-syntax-ns#"
   xmlns:svg="http://www.w3.org/2000/svg"
   xmlns="http://www.w3.org/2000/svg"
   xmlns:sodipodi="http://sodipodi.sourceforge.net/DTD/sodipodi-0.dtd"
   xmlns:inkscape="http://www.inkscape.org/namespaces/inkscape"
   width="210mm"
   height="297mm"
   viewBox="0 0 210 297"
   version="1.1"
   id="svg8"
   inkscape:version="1.0.2 (e86c870879, 2021-01-15, custom)"
   sodipodi:docname="Spiral-2mm.svg">
  <defs
     id="defs2" />
  <sodipodi:namedview
     id="base"
     pagecolor="#ffffff"
     bordercolor="#666666"
     borderopacity="1.0"
     inkscape:pageopacity="0.0"
     inkscape:pageshadow="2"
     inkscape:zoom="0.7"
     inkscape:cx="59.693305"
     inkscape:cy="554.6744"
     inkscape:document-units="mm"
     inkscape:current-layer="layer1"
     inkscape:document-rotation="0"
     showgrid="false"
     inkscape:window-width="1920"
     inkscape:window-height="1001"
     inkscape:window-x="2551"
     inkscape:window-y="141"
     inkscape:window-maximized="1" />
  <metadata
     id="metadata5">
    <rdf:RDF>
      <cc:Work
         rdf:about="">
        <dc:format>image/svg+xml</dc:format>
        <dc:type
           rdf:resource="http://purl.org/dc/dcmitype/StillImage" />
        <dc:title></dc:title>
      </cc:Work>
    </rdf:RDF>
  </metadata>
  <g
     inkscape:label="Layer 1"
     inkscape:groupmode="layer"
     id="layer1">
    <path
       sodipodi:type="spiral"
       style="fill:none;fill-rule:evenodd;stroke:#000000;stroke-width:0.264583"
       id="path22"
       sodipodi:cx="72.32338"
       sodipodi:cy="89.769341"
       sodipodi:expansion="1"
       sodipodi:revolution="50.137577"
       sodipodi:radius="95.848656"
       sodipodi:argument="-21.272921"
       sodipodi:t0="0"
       d="m 72.32338,89.769341 c -0.216518,-0.189224 0.148246,-0.385218 0.314501,-0.359868 0.45054,0.0687 0.560151,0.632492 0.405233,0.98887 -0.277113,0.637478 -1.099475,0.765296 -1.663239,0.450599 -0.827344,-0.461831 -0.976003,-1.572607 -0.495964,-2.337607 0.639817,-1.019624 2.047897,-1.18905 3.011975,-0.54133 1.213194,0.81509 1.4033,2.52421 0.586696,3.686344 -0.989018,1.4075 -3.001097,1.618246 -4.360712,0.632061 -1.602259,-1.162185 -1.833629,-3.478342 -0.677427,-5.03508 1.334881,-1.797316 3.955826,-2.049303 5.709449,-0.722793 1.992577,1.507265 2.265181,4.433478 0.768158,6.383817 -1.679433,2.187985 -4.911253,2.481207 -7.058185,0.813524 -2.383502,-1.851444 -2.697344,-5.38912 -0.85889,-7.732554 2.023338,-2.579101 5.867059,-2.913565 8.406922,-0.904255 2.774764,2.195142 3.129854,6.345053 0.949621,9.08129 -2.366876,2.970479 -6.823092,3.346197 -9.755659,0.994987 -3.166234,-2.538554 -3.562581,-7.301169 -1.040352,-10.430027 2.710186,-3.362023 7.779275,-3.779002 11.104396,-1.085719 3.557839,2.881782 3.995452,8.257408 1.131084,11.778765 -3.053347,3.75368 -8.735561,4.211928 -12.453133,1.17645 -3.94954,-3.224885 -4.428424,-9.213732 -1.221816,-13.127502 3.396401,-4.145416 9.691919,-4.644938 13.80187,-1.267181 4.341308,3.567898 4.861468,10.17012 1.312547,14.476238 -3.739379,4.53721 -10.648332,5.07801 -15.150607,1.357913 -4.733125,-3.910845 -5.294567,-11.126555 -1.403278,-15.824975 4.082299,-4.92905 11.604786,-5.511133 16.499343,-1.448644 5.124983,4.253743 5.727709,12.083026 1.49401,17.173712 -4.425176,5.320924 -12.561273,5.944294 -17.84808,1.539375 -5.516869,-4.596602 -6.160882,-13.039526 -1.584741,-18.522448 4.768019,-5.712822 13.517785,-6.37748 19.196817,-1.630107 5.90878,4.93943 6.594082,13.996049 1.675472,19.871185 -5.110834,6.104739 -14.474318,6.810689 -20.545553,1.720839 -6.300711,-5.282234 -7.027304,-14.952592 -1.766204,-21.219923 5.453627,-6.496681 15.430867,-7.243921 21.89429,-1.811569 6.692656,5.625016 7.460543,15.909148 1.856936,22.568662 -5.796403,6.88863 -16.387432,7.67716 -23.243028,1.9023 -7.084615,-5.967786 -7.893796,-16.865721 -1.947667,-23.917398 6.139162,-7.280599 17.344008,-8.110428 24.591765,-1.993033 7.476585,6.310537 8.327062,17.8223 2.038398,25.266131 -6.481908,7.67258 -18.300594,8.5437 -25.940501,2.08377 -7.868565,-6.653281 -8.760339,-18.778894 -2.12913,-26.614874 6.824644,-8.064558 19.257188,-8.97698 27.289238,-2.174495 8.260553,6.996008 9.193624,19.735489 2.219861,27.963609 -7.16737,8.45655 -20.21379,9.41027 -28.637975,2.26522 -8.652547,-7.338726 -9.626916,-20.69209 -2.310592,-29.312339 7.510089,-8.848547 21.170398,-9.843566 29.986711,-2.355958 9.044548,7.681445 10.060217,21.648705 2.401324,30.661077 -7.8528,9.24055 -22.127012,10.27687 -31.335448,2.44669 C 48.105262,98.658939 47.048294,84.077771 55.049761,74.673276 63.245266,65.040717 78.133392,63.963099 87.733946,72.135855 97.56251,80.50271 98.660778,95.697797 90.316733,105.49441 81.778527,115.51898 66.276478,116.6379 56.283811,108.12256 46.063232,99.413007 44.923663,83.603993 53.610292,73.41527 62.491193,62.998683 78.607174,61.838463 88.991951,70.696386 99.604548,79.748632 100.78542,96.171582 91.756201,106.75241 82.53261,117.56102 65.802689,118.76254 55.025805,109.56203 44.021187,100.16709 42.799015,83.130201 52.170824,72.157265 61.737102,60.956635 79.080969,59.713812 90.249957,69.256918 101.6466,78.994538 102.91007,96.645381 93.195669,108.01042 83.286707,119.60307 65.328888,120.8872 53.7678,111.0015 41.979131,100.92119 40.674355,82.656397 50.731356,70.899259 60.982998,58.914576 79.554776,57.589149 91.507962,67.81745 103.68866,78.240432 105.03474,97.11919 94.635137,109.26842 84.040817,121.64514 64.855076,123.01187 52.509794,112.44097 39.937065,101.67531 38.549684,82.182583 49.291888,69.641254 60.228883,56.872509 80.028592,55.464476 92.765967,66.377982 105.73073,77.486314 107.15941,97.593008 96.074605,110.52643 84.794937,123.68721 64.381257,125.13655 51.251789,113.88043 37.894992,102.42943 36.425004,81.708762 47.852419,68.383249 59.474759,54.830434 80.502415,53.339794 94.023973,64.938513 107.77281,76.732188 109.2841,98.066833 97.514074,111.78444 85.549065,125.72929 63.90743,127.26123 49.993783,115.3199 35.852912,103.18356 34.300317,81.234934 46.412951,67.125243 58.720628,52.788352 80.976244,51.215106 95.281978,63.499045 109.81489,75.978055 111.40879,98.540664 98.953542,113.04244 86.303199,127.77137 63.433598,129.38592 48.735778,116.75937 33.810827,103.9377 32.175624,80.7611 44.973483,65.867238 57.96649,50.746266 81.450079,49.090411 96.539984,62.059577 111.85698,75.223916 113.53348,99.014499 100.39301,114.30045 87.05734,129.81346 62.959761,131.51062 47.477773,118.19884 31.768737,104.69184 30.050926,80.287262 43.534015,64.609232 57.212347,48.704175 81.923918,46.965712 97.797989,60.620109 113.89907,74.469771 115.65818,99.48834 101.83248,115.55845 87.811486,131.85555 62.48592,133.63532 46.219767,119.63831 29.726644,105.44598 27.926223,79.81342 42.094546,63.351227 56.458199,46.662081 82.397761,44.841008 99.055995,59.18064 115.94116,73.715622 117.78289,99.962184 103.27195,116.81646 88.565636,133.89765 62.012075,135.76003 44.961762,121.07777 27.684547,106.20014 25.801517,79.339574 40.655078,62.093221 55.704047,44.619983 82.871608,42.716301 100.314,57.741172 c 17.66926,15.220297 19.5936,42.694858 4.39741,60.333288 -15.39162,17.86529 -43.173183,19.81028 -61.007654,4.44278 C 25.642447,106.95429 23.676807,78.865726 39.21561,60.835216 54.949891,42.577882 83.345457,40.59159 101.57201,56.301704 c 18.45335,15.905609 20.4603,44.608176 4.57887,63.030766 -16.076933,18.64938 -45.086504,20.67698 -63.705129,4.62424 C 23.600344,107.70845 21.552094,78.391874 37.776142,59.577211 54.195733,40.535779 83.819309,38.466877 102.83001,54.862236 c 19.23746,16.590918 21.32701,46.521494 4.76034,65.728234 -16.762243,19.43348 -46.999827,21.54369 -66.402604,4.80571 C 21.558239,108.46261 19.427379,77.918021 36.336674,58.319205 53.441572,38.493674 84.293163,36.342161 104.08802,53.422767 c 20.02155,17.276225 22.19372,48.434823 4.9418,68.425713 -17.447551,20.21758 -48.913152,22.4104 -69.10008,4.98717 C 19.516133,109.21677 17.302662,77.444165 34.897205,57.0612 52.687408,36.451567 84.767019,34.217443 105.34602,51.983299 126.15168,69.944828 128.40646,102.33144 110.46929,123.10648 92.336434,144.10817 59.642811,146.3836 38.671735,128.27512 17.474024,109.97094 15.177942,76.970308 33.457737,55.803194 51.933242,34.409458 85.240877,32.092723 106.60403,50.543831 128.19379,69.190662 130.53118,102.8053 111.90876,124.36449 93.0906,146.15028 59.168953,148.50832 37.413729,129.71458 15.431914,110.7251 13.053221,76.496449 32.018269,54.545189 51.179075,32.367347 85.714736,29.968001 107.86203,49.104363 130.2359,68.436494 132.6559,103.27916 113.34822,125.62249 93.844769,148.19239 58.695092,150.63304 36.155724,131.15405 13.389803,111.47927 10.928498,76.022588 30.578801,53.287184 50.424906,30.325235 86.188597,27.843278 109.12004,47.664894 c 23.15797,20.01743 25.66058,56.088126 5.66765,79.215606 -20.188752,23.354 -56.566459,25.87727 -79.889971,5.71302 C 11.34769,112.23344 8.8037735,75.548726 29.139332,52.029178 49.670735,28.283122 86.662459,25.718553 110.37804,46.225426 c 23.94209,20.702727 26.52731,58.001464 5.84912,81.913084 -20.87405,24.13811 -58.479792,26.74398 -82.587447,5.89448 C 9.3055758,112.98761 6.6790478,75.074863 27.699864,50.771173 48.916563,26.241008 87.136323,23.593827 111.63605,44.785958 c 24.72619,21.388023 27.39402,59.914792 6.03058,84.610552 -21.559347,24.92222 -60.393126,27.61071 -85.284922,6.07595 C 7.2634608,113.74179 4.5543209,74.600999 26.260396,49.513167 48.16239,24.198893 87.610187,21.4691 112.89405,43.34649 c 25.51031,22.073317 28.26075,61.82812 6.21205,87.30803 -22.244644,25.70633 -62.306461,28.47743 -87.982398,6.25741 C 5.2213449,114.49596 2.4295929,74.127134 24.820928,48.255162 c 22.587287,-26.098385 63.263124,-28.91079 89.331132,-6.34814 26.29441,22.75861 29.12747,63.741458 6.39351,90.005498 -22.929939,26.49044 -64.219796,29.34415 -90.679873,6.43887 C 3.1792281,115.25014 0.30486399,73.653268 23.381459,46.997157 46.65404,20.11466 88.557919,17.219643 115.41006,40.467553 c 27.07853,23.443904 29.9942,65.654797 6.57497,92.702977 C 98.369807,160.44508 55.851907,163.3814 28.607691,139.79086 1.1371105,116.00431 -1.8198658,73.179401 21.941991,45.739151 45.899863,18.072542 89.031786,15.094913 116.66807,39.028085 144.53071,63.15728 147.52899,106.59621 123.4245,134.42853 99.123984,162.4872 55.37804,165.50613 27.349686,141.23033 -0.90500775,116.75849 -3.9445965,72.705534 20.502523,44.481146 45.145686,16.030424 89.505653,12.970182 117.92608,37.588617 146.57283,62.403103 149.65372,107.07008 124.86397,135.68654 99.878162,164.52932 54.904172,167.63087 26.091681,142.6698 -2.9471267,117.51267 -6.0693279,72.231665 19.063055,43.22314 44.391508,13.988304 89.979522,10.84545 119.18408,36.149149 c 29.43087,25.499775 32.59437,71.394801 7.11936,100.795391 -25.6711,29.6269 -71.873137,32.81106 -101.469765,7.16473 C -4.9892463,118.26685 -8.19406,71.757797 17.623586,41.965135 43.637329,11.946185 90.453391,8.7207178 120.44209,34.70968 c 30.21498,26.185065 33.4611,73.30814 7.30082,103.49287 -26.35639,30.41101 -73.786477,33.67778 -104.16724,7.34618 C -7.0313664,119.02103 -10.318793,71.283927 16.184118,40.707129 42.88315,9.9040645 90.92726,6.5959849 121.70009,33.270212 152.69919,60.140566 156.02792,108.49169 129.18238,139.46055 102.1407,170.65568 53.482564,174.00506 22.317664,146.9882 -9.0734871,119.77521 -12.443526,70.810057 14.74465,39.449124 42.12897,7.8619437 91.401131,4.4712514 122.9581,31.830744 154.74131,59.386386 158.15265,108.96556 130.62184,140.71856 102.89488,172.6978 53.008693,176.1298 21.059659,148.42767 -11.115608,120.52939 -14.56826,70.336187 13.305182,38.191119 41.374789,5.8198225 91.875001,2.3465174 124.2161,30.391276 156.78343,58.632205 160.27739,109.43943 132.06131,141.97657 103.64906,174.73992 52.534822,178.25453 19.801654,149.86714 -13.15773,121.28357 -16.692994,69.862316 11.865713,36.933113 40.620608,3.7777008 92.348872,0.22178285 125.47411,28.951807 158.82555,57.878024 162.40212,109.9133 133.50078,143.23457 104.40324,176.78204 52.060951,180.37927 18.543648,151.30661 -15.199852,122.03775 -18.817729,69.388444 10.426245,35.675108 39.866426,1.7355787 92.822744,-1.9029522 126.73211,27.512339 160.86767,57.123842 164.52686,110.38717 134.94025,144.49258 105.15742,178.82416 51.587079,182.504 17.285643,152.74608 -17.241974,122.79193 -20.942465,68.914572 8.986777,34.417102 39.112244,-0.30654381 93.296616,-4.0276876 127.99012,26.072871 162.90979,56.36966 166.65159,110.86104 136.37972,145.75058 105.91161,180.86629 51.113207,184.62874 16.027637,154.18554 -19.284097,123.54611 -23.0672,68.4407 7.5473087,33.159097 38.358062,-2.3486666 93.770488,-6.1524234 129.24812,24.633403 c 35.7038,30.982074 39.52821,86.701517 8.57106,122.375187 -31.15339,35.89982 -87.179845,39.74488 -123.049548,8.61642 C -21.32622,124.3003 -25.191937,67.966828 6.1078405,31.901092 37.603879,-4.3907898 94.244361,-8.2771597 130.50613,23.193934 c 36.48791,31.66736 40.39493,88.614856 8.75252,125.072656 -31.83868,36.68394 -89.093188,40.61162 -125.747023,8.79789 -36.87997,-32.01 -40.8283,-89.571525 -8.8432548,-126.421394 C 36.849695,-6.4329133 94.718234,-10.401896 131.76414,21.754466 169.03616,54.10711 173.0258,112.28266 140.69812,149.5246 108.17416,186.99266 49.691589,191.00295 12.253621,158.50395 -25.410467,125.80866 -29.44141,67.019081 3.228904,29.385081 36.095512,-8.4750371 95.192107,-12.526633 133.02214,20.314998 171.07829,53.352927 175.15054,112.75654 142.13759,150.7826 108.92834,189.03478 49.217715,193.12768 10.995616,159.94342 -27.452591,126.56285 -31.566147,66.545208 1.7894358,28.127075 35.341328,-10.517161 95.665981,-14.65137 134.28015,18.87553 c 38.84026,33.723212 42.99512,94.35488 9.29691,133.16508 C 109.68252,191.0769 48.743842,195.25242 9.7376103,161.38289 -29.494715,127.31703 -33.690884,66.071334 0.34996751,26.86907 18.578555,5.8765903 45.66146,-6.3138587 73.459522,-6.0725813"
       transform="matrix(1.0654083,0,0,1.075721,28.93897,55.992698)" />
  </g>
</svg>
