<?xml version="1.0" encoding="UTF-8" standalone="no"?>
<!DOCTYPE svg PUBLIC "-//W3C//DTD SVG 1.1//EN" "http://www.w3.org/Graphics/SVG/1.1/DTD/svg11.dtd">
<!-- Generated by Microsoft Visio, SVG Export Impedance_model.svg Page-1 -->
<svg xmlns="http://www.w3.org/2000/svg" xmlns:xlink="http://www.w3.org/1999/xlink" xmlns:ev="http://www.w3.org/2001/xml-events"
		xmlns:v="http://schemas.microsoft.com/visio/2003/SVGExtensions/" width="2.62733in" height="1.48046in"
		viewBox="0 0 189.168 106.593" xml:space="preserve" color-interpolation-filters="sRGB" class="st20">
	<v:documentProperties v:langID="1033" v:viewMarkup="false">
		<v:userDefs>
			<v:ud v:nameU="msvSubprocessMaster" v:prompt="" v:val="VT4(Rectangle)"/>
			<v:ud v:nameU="msvNoAutoConnect" v:val="VT0(1):26"/>
		</v:userDefs>
	</v:documentProperties>

	<style type="text/css">
	<![CDATA[
		.st1 {fill:#ff0000}
		.st2 {stroke:#ff0000;stroke-linecap:butt;stroke-width:0.325682}
		.st3 {stroke:#ff0000;stroke-linecap:round;stroke-linejoin:round;stroke-width:0.26}
		.st4 {stroke:#ff0000;stroke-width:0.26}
		.st5 {stroke:#002060;stroke-linecap:butt;stroke-width:0.249144}
		.st6 {stroke:#002060;stroke-width:0.2}
		.st7 {fill:#002060}
		.st8 {stroke:#002060;stroke-linecap:butt;stroke-width:0.325682}
		.st9 {stroke:#002060;stroke-linecap:round;stroke-linejoin:round;stroke-width:0.26}
		.st10 {stroke:#000000;stroke-linecap:round;stroke-linejoin:round;stroke-width:0.26}
		.st11 {fill:#ffffff;fill-opacity:0;stroke:#000000;stroke-width:0.33}
		.st12 {stroke:#000000;stroke-dasharray:1.82,1.3;stroke-linecap:round;stroke-linejoin:round;stroke-width:0.26}
		.st13 {fill:none;stroke:none;stroke-width:0.25}
		.st14 {fill:#000000;font-family:Times New Roman;font-size:0.416656em}
		.st15 {fill:#002060;font-family:Times New Roman;font-size:0.416656em}
		.st16 {fill:#ff0000;font-family:Times New Roman;font-size:0.416656em}
		.st17 {stroke:#000000;stroke-width:0.26}
		.st18 {stroke:#000000;stroke-linecap:butt;stroke-width:0.187463}
		.st19 {font-size:0.600033em}
		.st20 {fill:none;fill-rule:evenodd;font-size:12px;overflow:visible;stroke-linecap:square;stroke-miterlimit:3}
	]]>
	</style>

	<g v:mID="0" v:index="1" v:groupContext="foregroundPage">
		<v:userDefs>
			<v:ud v:nameU="msvThemeOrder" v:val="VT0(0):26"/>
			<v:ud v:nameU="TransistorCount" v:prompt="" v:val="VT0(7):26"/>
			<v:ud v:nameU="TunnelDiodeCount" v:prompt="" v:val="VT0(2):26"/>
			<v:ud v:nameU="DiodeCount" v:prompt="" v:val="VT0(2):26"/>
			<v:ud v:nameU="InductorCount" v:prompt="" v:val="VT0(9):26"/>
			<v:ud v:nameU="ResistorCount" v:prompt="" v:val="VT0(3):26"/>
			<v:ud v:nameU="AccumulatorCount" v:prompt="" v:val="VT0(5):26"/>
		</v:userDefs>
		<title>Page-1</title>
		<v:pageProperties v:drawingScale="1" v:pageScale="1" v:drawingUnits="0" v:shadowOffsetX="9" v:shadowOffsetY="-9"/>
		<v:layer v:name="Electrical" v:index="0"/>
		<v:layer v:name="Web and Media Icons" v:index="1"/>
		<g id="shape1311-1" v:mID="1311" v:groupContext="shape" v:layerMember="0"
				transform="translate(-11.6349,40.0464) rotate(-90) scale(-1,1)">
			<title>Capacitor.1311</title>
			<v:custProps>
				<v:cp v:nameU="Label" v:lbl="Label" v:prompt="" v:type="0" v:format="@" v:sortKey="" v:invis="false" v:ask="false"
						v:langID="1033" v:cal="0" v:val="VT4()"/>
			</v:custProps>
			<v:userDefs>
				<v:ud v:nameU="Form" v:val="VT0(0):26"/>
				<v:ud v:nameU="Type" v:val="VT0(0):26"/>
				<v:ud v:nameU="visDescription" v:val="VT4(Represents a fixed or variable capacitor.)"/>
				<v:ud v:nameU="visVersion" v:val="VT0(15):26"/>
				<v:ud v:nameU="Label" v:prompt="" v:val="VT4()"/>
				<v:ud v:nameU="SolSH" v:prompt="" v:val="VT4({2EE3C7D2-E26E-4B72-9E9C-5170DDBF261A})"/>
				<v:ud v:nameU="Label" v:prompt="" v:val="VT4(C2)"/>
			</v:userDefs>
			<path d="M1.21 102.2 L1.21 101.55 L6.91 101.55 L6.91 102.2 L1.21 102.2 ZM1.21 103.5 L1.21 102.85 L6.91 102.85 L6.91 103.5
						 L1.21 103.5 Z" class="st1"/>
			<path d="M4.07 106.59 L4.07 103.42" class="st2"/>
			<path d="M4.07 101.63 L4.07 98.45" class="st2"/>
		</g>
		<g id="group1312-5" transform="translate(99.1639,-60.3296)" v:mID="1312" v:groupContext="group" v:layerMember="0">
			<v:custProps>
				<v:cp v:nameU="Core" v:lbl="Core" v:type="1" v:format="Air;Magnetic;Magnetic with Gap" v:langID="1033"
						v:val="VT4(Air)"/>
				<v:cp v:nameU="Adjustability" v:lbl="Adjustability" v:type="1" v:format="Fixed;Adjustable;Continuously Adjustable"
						v:langID="1033" v:val="VT4(Fixed)"/>
				<v:cp v:nameU="Taps" v:lbl="Taps" v:type="1" v:format="0;1;2;3" v:langID="1033" v:val="VT4(0)"/>
				<v:cp v:nameU="Label" v:lbl="Label" v:prompt="" v:type="0" v:format="@" v:sortKey="" v:invis="false" v:ask="false"
						v:langID="1033" v:cal="0" v:val="VT4()"/>
			</v:custProps>
			<v:userDefs>
				<v:ud v:nameU="Core" v:val="VT0(0):26"/>
				<v:ud v:nameU="Adjustability" v:val="VT0(0):26"/>
				<v:ud v:nameU="visDescription" v:val="VT4(Represents an inductor.)"/>
				<v:ud v:nameU="visVersion" v:val="VT0(15):26"/>
				<v:ud v:nameU="Label" v:prompt="" v:val="VT4()"/>
				<v:ud v:nameU="SolSH" v:prompt="" v:val="VT4({2EE3C7D2-E26E-4B72-9E9C-5170DDBF261A})"/>
				<v:ud v:nameU="Label" v:prompt="" v:val="VT4(L6)"/>
			</v:userDefs>
			<title>Inductor.1312</title>
			<g id="shape1313-6" v:mID="1313" v:groupContext="shape" v:layerMember="0" transform="translate(6.48437,-7.29657)">
				<title>Sheet.1313</title>
			</g>
			<g id="shape1314-8" v:mID="1314" v:groupContext="shape" v:layerMember="0" transform="translate(0,-1.90841E-06)">
				<title>Sheet.1314</title>
				<path d="" class="st2"/>
				<path d="M4.13 100.99 C4.98 101.93 5 103.68 4.13 103.68 C3.28 103.68 3.24 102.41 3.73 101.59 C4.64 99.77 6.24 100.25
							 6.78 101.65 C7.14 102.67 7.09 103.68 6.29 103.66 C5.4 103.64 5.46 101.55 6.29 100.89" class="st2"/>
				<path d="" class="st2"/>
				<path d="M8.14 103.1 C8.14 106.59 8.14 101.89 8.14 101.69 C8.14 100.6 7.31 99.9 6.29 100.89" class="st2"/>
				<path d="" class="st2"/>
				<path d="M1.9 101 C2.74 101.92 2.83 103.68 1.9 103.68 C0.96 103.69 1.24 102.04 1.56 101.5 C2.2 100.39 3.28 100.01
							 4.13 100.99" class="st2"/>
				<path d="" class="st2"/>
				<path d="M0 102.83 C0 106.59 0 102.19 0 101.86 C-0 100.36 1.04 100 1.9 101" class="st2"/>
			</g>
		</g>
		<g id="shape1315-18" v:mID="1315" v:groupContext="shape" transform="translate(94.9583,-62.4757)">
			<title>Sheet.1315</title>
			<path d="M0 106.59 L4.3 106.59" class="st3"/>
		</g>
		<g id="shape1326-21" v:mID="1326" v:groupContext="shape" transform="translate(107.41,-62.4963)">
			<title>Sheet.1326</title>
			<path d="M0 106.59 L4.09 106.59" class="st3"/>
		</g>
		<g id="shape1329-24" v:mID="1329" v:groupContext="shape" transform="translate(218.095,44.0969) rotate(90)">
			<title>Sheet.1329</title>
			<path d="M0 106.59 L7.1 106.59" class="st3"/>
		</g>
		<g id="shape1330-27" v:mID="1330" v:groupContext="shape" transform="translate(218.095,59.3344) rotate(90)">
			<title>Sheet.1330</title>
			<path d="M0 106.59 L5.76 106.59" class="st3"/>
		</g>
		<g id="group1331-30" transform="translate(99.1639,-39.7447)" v:mID="1331" v:groupContext="group" v:layerMember="0">
			<v:custProps>
				<v:cp v:nameU="Label" v:lbl="Label" v:type="0" v:format="@" v:sortKey="" v:invis="false" v:ask="false"
						v:langID="1033" v:val="VT4()"/>
				<v:cp v:nameU="Slider_Position" v:lbl="Slider position (0-1)" v:type="2" v:langID="1033" v:val="VT0(0.5):26"/>
			</v:custProps>
			<v:userDefs>
				<v:ud v:nameU="Form" v:val="VT0(1):5"/>
				<v:ud v:nameU="SubType" v:val="VT0(0):26"/>
				<v:ud v:nameU="visDescription" v:val="VT4(Represents a fixed or variable resistor.)"/>
				<v:ud v:nameU="visVersion" v:val="VT0(15):26"/>
			</v:userDefs>
			<title>Resistor.16</title>
			<g id="shape1332-31" v:mID="1332" v:groupContext="shape" v:layerMember="0">
				<title>Sheet.1332</title>
				<v:userDefs>
					<v:ud v:nameU="SubType" v:val="VT0(0):26"/>
					<v:ud v:nameU="Form" v:val="VT0(1):5"/>
				</v:userDefs>
				<path d="M0 104.96 L0.68 103.34 L2.04 106.59 L3.39 103.34 L4.75 106.59 L6.11 103.34 L7.46 106.59 L8.14 104.96"
						class="st4"/>
			</g>
			<g id="shape1333-34" v:mID="1333" v:groupContext="shape" v:layerMember="0"
					transform="translate(-74.5834,33.2191) rotate(-45)">
				<title>Sheet.1333</title>
				<v:userDefs>
					<v:ud v:nameU="SubType" v:val="VT0(0):26"/>
				</v:userDefs>
			</g>
		</g>
		<g id="shape1334-36" v:mID="1334" v:groupContext="shape" transform="translate(107.306,-41.3731)">
			<title>Sheet.1334</title>
			<path d="M0 106.59 L4.09 106.59" class="st3"/>
		</g>
		<g id="shape1335-39" v:mID="1335" v:groupContext="shape" v:layerMember="0"
				transform="translate(43.6177,40.1462) rotate(-90) scale(-1,1)">
			<title>Capacitor.1335</title>
			<v:custProps>
				<v:cp v:nameU="Label" v:lbl="Label" v:prompt="" v:type="0" v:format="@" v:sortKey="" v:invis="false" v:ask="false"
						v:langID="1033" v:cal="0" v:val="VT4()"/>
			</v:custProps>
			<v:userDefs>
				<v:ud v:nameU="Form" v:val="VT0(0):26"/>
				<v:ud v:nameU="Type" v:val="VT0(0):26"/>
				<v:ud v:nameU="visDescription" v:val="VT4(Represents a fixed or variable capacitor.)"/>
				<v:ud v:nameU="visVersion" v:val="VT0(15):26"/>
				<v:ud v:nameU="Label" v:prompt="" v:val="VT4()"/>
				<v:ud v:nameU="SolSH" v:prompt="" v:val="VT4({2EE3C7D2-E26E-4B72-9E9C-5170DDBF261A})"/>
				<v:ud v:nameU="Label" v:prompt="" v:val="VT4(C4)"/>
			</v:userDefs>
			<path d="M1.21 102.2 L1.21 101.55 L6.91 101.55 L6.91 102.2 L1.21 102.2 ZM1.21 103.5 L1.21 102.85 L6.91 102.85 L6.91 103.5
						 L1.21 103.5 Z" class="st1"/>
			<path d="M4.07 106.59 L4.07 103.42" class="st2"/>
			<path d="M4.07 101.63 L4.07 98.45" class="st2"/>
		</g>
		<g id="group1336-43" transform="translate(128.391,-60.1098)" v:mID="1336" v:groupContext="group" v:layerMember="0">
			<v:custProps>
				<v:cp v:nameU="Core" v:lbl="Core" v:type="1" v:format="Air;Magnetic;Magnetic with Gap" v:langID="1033"
						v:val="VT4(Air)"/>
				<v:cp v:nameU="Adjustability" v:lbl="Adjustability" v:type="1" v:format="Fixed;Adjustable;Continuously Adjustable"
						v:langID="1033" v:val="VT4(Fixed)"/>
				<v:cp v:nameU="Taps" v:lbl="Taps" v:type="1" v:format="0;1;2;3" v:langID="1033" v:val="VT4(0)"/>
				<v:cp v:nameU="Label" v:lbl="Label" v:prompt="" v:type="0" v:format="@" v:sortKey="" v:invis="false" v:ask="false"
						v:langID="1033" v:cal="0" v:val="VT4()"/>
			</v:custProps>
			<v:userDefs>
				<v:ud v:nameU="Core" v:val="VT0(0):26"/>
				<v:ud v:nameU="Adjustability" v:val="VT0(0):26"/>
				<v:ud v:nameU="visDescription" v:val="VT4(Represents an inductor.)"/>
				<v:ud v:nameU="visVersion" v:val="VT0(15):26"/>
				<v:ud v:nameU="Label" v:prompt="" v:val="VT4()"/>
				<v:ud v:nameU="SolSH" v:prompt="" v:val="VT4({2EE3C7D2-E26E-4B72-9E9C-5170DDBF261A})"/>
				<v:ud v:nameU="Label" v:prompt="" v:val="VT4(L6)"/>
			</v:userDefs>
			<title>Inductor.1336</title>
			<g id="shape1337-44" v:mID="1337" v:groupContext="shape" v:layerMember="0" transform="translate(6.48437,-7.29657)">
				<title>Sheet.1337</title>
			</g>
			<g id="shape1338-46" v:mID="1338" v:groupContext="shape" v:layerMember="0" transform="translate(0,-1.90841E-06)">
				<title>Sheet.1338</title>
				<path d="" class="st2"/>
				<path d="M4.13 100.99 C4.98 101.93 5 103.68 4.13 103.68 C3.28 103.68 3.24 102.41 3.73 101.59 C4.64 99.77 6.24 100.25
							 6.78 101.65 C7.14 102.67 7.09 103.68 6.29 103.66 C5.4 103.64 5.46 101.55 6.29 100.89" class="st2"/>
				<path d="" class="st2"/>
				<path d="M8.14 103.1 C8.14 106.59 8.14 101.89 8.14 101.69 C8.14 100.6 7.31 99.9 6.29 100.89" class="st2"/>
				<path d="" class="st2"/>
				<path d="M1.9 101 C2.74 101.92 2.83 103.68 1.9 103.68 C0.96 103.69 1.24 102.04 1.56 101.5 C2.2 100.39 3.28 100.01
							 4.13 100.99" class="st2"/>
				<path d="" class="st2"/>
				<path d="M0 104.46 C0 106.59 0 102.19 0 101.86 C-0 100.36 1.04 100 1.9 101" class="st2"/>
			</g>
		</g>
		<g id="shape1339-56" v:mID="1339" v:groupContext="shape" transform="translate(142.069,150.81) rotate(180)">
			<title>Sheet.1339</title>
			<path d="M0 106.59 L5.37 106.59" class="st3"/>
		</g>
		<g id="shape1341-59" v:mID="1341" v:groupContext="shape" transform="translate(124.018,-62.2556)">
			<title>Sheet.1341</title>
			<path d="M0 106.59 L4.33 106.59" class="st3"/>
		</g>
		<g id="shape1342-62" v:mID="1342" v:groupContext="shape" transform="translate(230.61,44.617) rotate(90.1502)">
			<title>Sheet.1342</title>
			<path d="M0 106.59 L6.85 106.59" class="st3"/>
		</g>
		<g id="shape1343-65" v:mID="1343" v:groupContext="shape" transform="translate(230.592,59.0155) rotate(89.8286)">
			<title>Sheet.1343</title>
			<path d="M0 106.59 L6.01 106.59" class="st3"/>
		</g>
		<g id="group1344-68" transform="translate(128.267,-39.625)" v:mID="1344" v:groupContext="group" v:layerMember="0">
			<v:custProps>
				<v:cp v:nameU="Label" v:lbl="Label" v:type="0" v:format="@" v:sortKey="" v:invis="false" v:ask="false"
						v:langID="1033" v:val="VT4()"/>
				<v:cp v:nameU="Slider_Position" v:lbl="Slider position (0-1)" v:type="2" v:langID="1033" v:val="VT0(0.5):26"/>
			</v:custProps>
			<v:userDefs>
				<v:ud v:nameU="Form" v:val="VT0(1):5"/>
				<v:ud v:nameU="SubType" v:val="VT0(0):26"/>
				<v:ud v:nameU="visDescription" v:val="VT4(Represents a fixed or variable resistor.)"/>
				<v:ud v:nameU="visVersion" v:val="VT0(15):26"/>
			</v:userDefs>
			<title>Resistor.1344</title>
			<g id="shape1345-69" v:mID="1345" v:groupContext="shape" v:layerMember="0">
				<title>Sheet.1345</title>
				<v:userDefs>
					<v:ud v:nameU="SubType" v:val="VT0(0):26"/>
					<v:ud v:nameU="Form" v:val="VT0(1):5"/>
				</v:userDefs>
				<path d="M0 104.96 L0.68 103.34 L2.04 106.59 L3.39 103.34 L4.75 106.59 L6.11 103.34 L7.46 106.59 L8.14 104.96"
						class="st4"/>
			</g>
			<g id="shape1346-72" v:mID="1346" v:groupContext="shape" v:layerMember="0"
					transform="translate(-74.5834,33.2191) rotate(-45)">
				<title>Sheet.1346</title>
				<v:userDefs>
					<v:ud v:nameU="SubType" v:val="VT0(0):26"/>
				</v:userDefs>
			</g>
		</g>
		<g id="shape1347-74" v:mID="1347" v:groupContext="shape" transform="translate(136.324,-41.2534) rotate(-0.0453898)">
			<title>Sheet.1347</title>
			<path d="M0 106.59 L19.17 106.59" class="st3"/>
		</g>
		<g id="shape1352-77" v:mID="1352" v:groupContext="shape" v:layerMember="0" transform="translate(107.431,-47.2588)">
			<title>AC source</title>
			<v:custProps>
				<v:cp v:nameU="Label" v:lbl="Label" v:prompt="" v:type="0" v:format="@" v:sortKey="" v:invis="false" v:ask="false"
						v:langID="1033" v:cal="0" v:val="VT4()"/>
			</v:custProps>
			<v:userDefs>
				<v:ud v:nameU="AT" v:prompt="Action toggle" v:val="VT0(0):26"/>
				<v:ud v:nameU="LimitHgt" v:val="VT0(0):26"/>
				<v:ud v:nameU="visDescription" v:val="VT4(AC current or voltage source.)"/>
				<v:ud v:nameU="visVersion" v:val="VT0(15):26"/>
				<v:ud v:nameU="Label" v:prompt="" v:val="VT4()"/>
				<v:ud v:nameU="SolSH" v:prompt="" v:val="VT4({2EE3C7D2-E26E-4B72-9E9C-5170DDBF261A})"/>
				<v:ud v:nameU="Label" v:prompt="" v:val="VT4(AC)"/>
			</v:userDefs>
			<path d="M5.55 102.35 L6.2 102.35 C6.2 103.16 5.68 103.75 4.97 103.75 C4.3 103.75 3.75 103.2 3.75 102.52 C3.75 102.2
						 3.49 101.95 3.17 101.95 C2.8 101.95 2.59 102.21 2.59 102.68 L1.94 102.68 C1.94 101.66 2.6 101.29 3.17 101.29
						 C3.85 101.29 4.4 101.85 4.4 102.52 C4.4 102.84 4.66 103.1 4.97 103.1 C5.32 103.1 5.55 102.8 5.55 102.35
						 Z" class="st1"/>
			<path d="M4.07 99.92 L4.07 98.45" class="st2"/>
			<path d="M4.07 106.59 L4.07 105.13" class="st2"/>
			<path d="M6.68 102.52 A2.60545 2.60545 -180 1 0 1.47 102.52 A2.60545 2.60545 -180 1 0 6.68 102.52" class="st2"/>
		</g>
		<g id="shape1353-82" v:mID="1353" v:groupContext="shape" v:layerMember="0" transform="translate(119.929,-47.2588)">
			<title>AC source.1353</title>
			<v:custProps>
				<v:cp v:nameU="Label" v:lbl="Label" v:prompt="" v:type="0" v:format="@" v:sortKey="" v:invis="false" v:ask="false"
						v:langID="1033" v:cal="0" v:val="VT4()"/>
			</v:custProps>
			<v:userDefs>
				<v:ud v:nameU="AT" v:prompt="Action toggle" v:val="VT0(0):26"/>
				<v:ud v:nameU="LimitHgt" v:val="VT0(0):26"/>
				<v:ud v:nameU="visDescription" v:val="VT4(AC current or voltage source.)"/>
				<v:ud v:nameU="visVersion" v:val="VT0(15):26"/>
				<v:ud v:nameU="Label" v:prompt="" v:val="VT4()"/>
				<v:ud v:nameU="SolSH" v:prompt="" v:val="VT4({2EE3C7D2-E26E-4B72-9E9C-5170DDBF261A})"/>
				<v:ud v:nameU="Label" v:prompt="" v:val="VT4(AC)"/>
			</v:userDefs>
			<path d="M5.55 102.35 L6.2 102.35 C6.2 103.16 5.68 103.75 4.97 103.75 C4.3 103.75 3.75 103.2 3.75 102.52 C3.75 102.2
						 3.49 101.95 3.17 101.95 C2.8 101.95 2.59 102.21 2.59 102.68 L1.94 102.68 C1.94 101.66 2.6 101.29 3.17 101.29
						 C3.85 101.29 4.4 101.85 4.4 102.52 C4.4 102.84 4.66 103.1 4.97 103.1 C5.32 103.1 5.55 102.8 5.55 102.35
						 Z" class="st1"/>
			<path d="M4.07 99.92 L4.07 98.45" class="st2"/>
			<path d="M4.07 106.59 L4.07 105.13" class="st2"/>
			<path d="M6.68 102.52 A2.60545 2.60545 -180 1 0 1.47 102.52 A2.60545 2.60545 -180 1 0 6.68 102.52" class="st2"/>
		</g>
		<g id="shape1354-87" v:mID="1354" v:groupContext="shape" transform="translate(124.018,-41.2534)">
			<title>Sheet.1354</title>
			<path d="M0 106.59 L4.25 106.59" class="st3"/>
		</g>
		<g id="group1355-90" transform="translate(260.533,50.7027) rotate(90)" v:mID="1355" v:groupContext="group"
				v:layerMember="0">
			<v:custProps>
				<v:cp v:nameU="Label" v:lbl="Label" v:type="0" v:format="@" v:sortKey="" v:invis="false" v:ask="false"
						v:langID="1033" v:val="VT4()"/>
				<v:cp v:nameU="Slider_Position" v:lbl="Slider position (0-1)" v:type="2" v:langID="1033" v:val="VT0(0.5):26"/>
			</v:custProps>
			<v:userDefs>
				<v:ud v:nameU="Form" v:val="VT0(1):5"/>
				<v:ud v:nameU="SubType" v:val="VT0(0):26"/>
				<v:ud v:nameU="visDescription" v:val="VT4(Represents a fixed or variable resistor.)"/>
				<v:ud v:nameU="visVersion" v:val="VT0(15):26"/>
			</v:userDefs>
			<title>Resistor.1355</title>
			<g id="shape1356-91" v:mID="1356" v:groupContext="shape" v:layerMember="0">
				<title>Sheet.1356</title>
				<v:userDefs>
					<v:ud v:nameU="SubType" v:val="VT0(0):26"/>
					<v:ud v:nameU="Form" v:val="VT0(1):5"/>
				</v:userDefs>
				<path d="M0 104.96 L0.68 103.34 L2.04 106.59 L3.39 103.34 L4.75 106.59 L6.11 103.34 L7.46 106.59 L8.14 104.96"
						class="st4"/>
			</g>
			<g id="shape1357-94" v:mID="1357" v:groupContext="shape" v:layerMember="0"
					transform="translate(-74.5834,33.2191) rotate(-45)">
				<title>Sheet.1357</title>
				<v:userDefs>
					<v:ud v:nameU="SubType" v:val="VT0(0):26"/>
				</v:userDefs>
			</g>
		</g>
		<g id="shape1358-96" v:mID="1358" v:groupContext="shape" transform="translate(155.579,150.81) rotate(180)">
			<title>Sheet.1358</title>
			<path d="M0 106.59 L5.37 106.59" class="st3"/>
		</g>
		<g id="shape1359-99" v:mID="1359" v:groupContext="shape" transform="translate(48.9753,50.5274) rotate(-89.9058)">
			<title>Sheet.1359</title>
			<path d="M0 106.59 L6.49 106.59" class="st3"/>
		</g>
		<g id="shape1360-102" v:mID="1360" v:groupContext="shape" transform="translate(48.8961,63.8589) rotate(-89.2121)">
			<title>Sheet.1360</title>
			<path d="M0 106.59 L6.48 106.59" class="st3"/>
		</g>
		<g id="group1362-105" transform="translate(-46.1872,48.2528) rotate(-90)" v:mID="1362" v:groupContext="group"
				v:layerMember="0">
			<v:custProps>
				<v:cp v:nameU="Core" v:lbl="Core" v:type="1" v:format="Air;Magnetic;Magnetic with Gap" v:langID="1033"
						v:val="VT4(Air)"/>
				<v:cp v:nameU="Adjustability" v:lbl="Adjustability" v:type="1" v:format="Fixed;Adjustable;Continuously Adjustable"
						v:langID="1033" v:val="VT4(Fixed)"/>
				<v:cp v:nameU="Taps" v:lbl="Taps" v:type="1" v:format="0;1;2;3" v:langID="1033" v:val="VT4(0)"/>
				<v:cp v:nameU="Label" v:lbl="Label" v:prompt="" v:type="0" v:format="@" v:sortKey="" v:invis="false" v:ask="false"
						v:langID="1033" v:cal="0" v:val="VT4()"/>
			</v:custProps>
			<v:userDefs>
				<v:ud v:nameU="Core" v:val="VT0(0):26"/>
				<v:ud v:nameU="Adjustability" v:val="VT0(0):26"/>
				<v:ud v:nameU="visDescription" v:val="VT4(Represents an inductor.)"/>
				<v:ud v:nameU="visVersion" v:val="VT0(15):26"/>
				<v:ud v:nameU="Label" v:prompt="" v:val="VT4()"/>
				<v:ud v:nameU="SolSH" v:prompt="" v:val="VT4({2EE3C7D2-E26E-4B72-9E9C-5170DDBF261A})"/>
				<v:ud v:nameU="Label" v:prompt="" v:val="VT4(L7)"/>
			</v:userDefs>
			<title>Inductor.1362</title>
			<g id="shape1363-106" v:mID="1363" v:groupContext="shape" v:layerMember="0" transform="translate(4.96049,-5.58182)">
				<title>Sheet.1363</title>
			</g>
			<g id="shape1364-108" v:mID="1364" v:groupContext="shape" v:layerMember="0" transform="translate(0,-1.45992E-06)">
				<title>Sheet.1364</title>
				<path d="" class="st5"/>
				<path d="M3.16 102.31 C3.81 103.02 3.82 104.36 3.16 104.36 C2.51 104.36 2.48 103.4 2.85 102.77 C3.55 101.38 4.78
							 101.74 5.19 102.81 C5.46 103.59 5.42 104.36 4.81 104.35 C4.13 104.33 4.18 102.74 4.81 102.23"
						class="st5"/>
				<path d="" class="st5"/>
				<path d="M6.23 102.91 C6.23 106.59 6.23 103 6.23 102.84 C6.23 102.01 5.59 101.47 4.81 102.23" class="st5"/>
				<path d="" class="st5"/>
				<path d="M1.45 102.31 C2.1 103.02 2.17 104.36 1.45 104.37 C0.73 104.37 0.95 103.11 1.19 102.7 C1.68 101.85 2.51 101.56
							 3.16 102.31" class="st5"/>
				<path d="" class="st5"/>
				<path d="M0 104.05 C0 106.59 0 103.22 0 102.97 C-0 101.83 0.8 101.55 1.45 102.31" class="st5"/>
			</g>
		</g>
		<g id="group1365-118" transform="translate(163.207,51.6278) rotate(90)" v:mID="1365" v:groupContext="group"
				v:layerMember="0">
			<v:custProps>
				<v:cp v:nameU="Label" v:lbl="Label" v:type="0" v:format="@" v:sortKey="" v:invis="false" v:ask="false"
						v:langID="1033" v:val="VT4()"/>
				<v:cp v:nameU="Slider_Position" v:lbl="Slider position (0-1)" v:type="2" v:langID="1033" v:val="VT0(0.5):26"/>
			</v:custProps>
			<v:userDefs>
				<v:ud v:nameU="Form" v:val="VT0(1):5"/>
				<v:ud v:nameU="SubType" v:val="VT0(0):26"/>
				<v:ud v:nameU="visDescription" v:val="VT4(Represents a fixed or variable resistor.)"/>
				<v:ud v:nameU="visVersion" v:val="VT0(15):26"/>
			</v:userDefs>
			<title>Resistor.1365</title>
			<g id="shape1366-119" v:mID="1366" v:groupContext="shape" v:layerMember="0">
				<title>Sheet.1366</title>
				<v:userDefs>
					<v:ud v:nameU="SubType" v:val="VT0(0):26"/>
					<v:ud v:nameU="Form" v:val="VT0(1):5"/>
				</v:userDefs>
				<path d="M0 105.35 L0.52 104.1 L1.56 106.59 L2.6 104.1 L3.63 106.59 L4.67 104.1 L5.71 106.59 L6.23 105.35"
						class="st6"/>
			</g>
			<g id="shape1367-122" v:mID="1367" v:groupContext="shape" v:layerMember="0"
					transform="translate(-74.7689,32.7494) rotate(-45)">
				<title>Sheet.1367</title>
				<v:userDefs>
					<v:ud v:nameU="SubType" v:val="VT0(0):26"/>
				</v:userDefs>
			</g>
		</g>
		<g id="shape1369-124" v:mID="1369" v:groupContext="shape" v:layerMember="0" transform="translate(53.9218,-37.375)">
			<title>DC source</title>
			<v:custProps>
				<v:cp v:nameU="Label" v:lbl="Label" v:prompt="" v:type="0" v:format="@" v:sortKey="" v:invis="false" v:ask="false"
						v:langID="1033" v:cal="0" v:val="VT4()"/>
			</v:custProps>
			<v:userDefs>
				<v:ud v:nameU="AT" v:prompt="Action toggle" v:val="VT0(0):26"/>
				<v:ud v:nameU="LimitHgt" v:val="VT0(0):26"/>
				<v:ud v:nameU="visDescription" v:val="VT4(DC current or voltage source.)"/>
				<v:ud v:nameU="visVersion" v:val="VT0(15):26"/>
				<v:ud v:nameU="Label" v:prompt="" v:val="VT4()"/>
				<v:ud v:nameU="SolSH" v:prompt="" v:val="VT4({2EE3C7D2-E26E-4B72-9E9C-5170DDBF261A})"/>
				<v:ud v:nameU="Label" v:prompt="" v:val="VT4(DC)"/>
			</v:userDefs>
			<path d="M3.3 103.65 L4.78 103.65 L4.78 103.98 L3.3 103.98 L3.3 103.65 ZM3.28 101.17 L3.28 100.84 L3.85 100.84 L3.85
						 100.27 L4.18 100.27 L4.18 100.84 L4.76 100.84 L4.76 101.17 L4.18 101.17 L4.18 101.74 L3.85 101.74 L3.85
						 101.17 L3.28 101.17 Z" class="st7"/>
			<path d="M4.05 106.59 L4.05 105.13" class="st8"/>
			<path d="M4.05 99.92 L4.05 98.45" class="st8"/>
			<path d="M1.42 102.52 A2.63163 2.60545 -180 1 1 6.68 102.52 A2.63163 2.60545 -180 1 1 1.42 102.52" class="st8"/>
		</g>
		<g id="shape1371-129" v:mID="1371" v:groupContext="shape" transform="translate(164.567,57.9682) rotate(90)">
			<title>Sheet.1371</title>
			<path d="M0 106.59 L3.38 106.59" class="st9"/>
		</g>
		<g id="shape1372-132" v:mID="1372" v:groupContext="shape" transform="translate(164.452,48.2528) rotate(90)">
			<title>Sheet.1372</title>
			<path d="M0 106.59 L3.38 106.59" class="st9"/>
		</g>
		<g id="shape1373-135" v:mID="1373" v:groupContext="shape" transform="translate(193.409,34.3432) rotate(90)">
			<title>Sheet.1373</title>
			<path d="M0 106.59 L9.77 106.59" class="st3"/>
		</g>
		<g id="shape1374-138" v:mID="1374" v:groupContext="shape" transform="translate(73.0613,140.936) rotate(180)">
			<title>Sheet.1374</title>
			<path d="M0 106.59 L14.65 106.59" class="st10"/>
		</g>
		<g id="shape1375-141" v:mID="1375" v:groupContext="shape" transform="translate(165.001,34.3432) rotate(90)">
			<title>Sheet.1375</title>
			<path d="M0 106.59 L7.59 106.59" class="st9"/>
		</g>
		<g id="shape1376-144" v:mID="1376" v:groupContext="shape" transform="translate(99.7152,171.812) rotate(179.704)">
			<title>Sheet.1376</title>
			<path d="M0 106.59 L11.72 106.59" class="st3"/>
		</g>
		<g id="shape1377-147" v:mID="1377" v:groupContext="shape" transform="translate(194.04,65.2807) rotate(90)">
			<title>Sheet.1377</title>
			<path d="M0 106.59 L9.21 106.59" class="st3"/>
		</g>
		<g id="shape1378-150" v:mID="1378" v:groupContext="shape" transform="translate(87.9556,180.873) rotate(179.726)">
			<title>Sheet.1378</title>
			<path d="M0 106.59 L29.45 106.59" class="st10"/>
		</g>
		<g id="shape1379-153" v:mID="1379" v:groupContext="shape" transform="translate(164.586,69.2182) rotate(90)">
			<title>Sheet.1379</title>
			<path d="M0 106.59 L5.2 106.59" class="st9"/>
		</g>
		<g id="shape1380-156" v:mID="1380" v:groupContext="shape" transform="translate(58.4515,140.936) rotate(179.976)">
			<title>Sheet.1380</title>
			<path d="M0 106.59 L24.38 106.59" class="st10"/>
		</g>
		<g id="shape1381-159" v:mID="1381" v:groupContext="shape" transform="translate(58.1645,181.015) rotate(180)">
			<title>Sheet.1381</title>
			<path d="M0 106.59 L23.94 106.59" class="st10"/>
		</g>
		<g id="shape1382-162" v:mID="1382" v:groupContext="shape" transform="translate(30.6691,-38.4824)">
			<title>Circle.1382</title>
			<v:userDefs>
				<v:ud v:nameU="visVersion" v:val="VT0(15):26"/>
			</v:userDefs>
			<path d="M0 103.27 A3.32688 3.32688 0 0 1 6.65 103.27 A3.32688 3.32688 0 1 1 0 103.27 Z" class="st11"/>
		</g>
		<g id="shape1384-164" v:mID="1384" v:groupContext="shape" transform="translate(36.2645,172.706) rotate(180)">
			<title>Sheet.1384</title>
			<path d="M0 106.59 L1.18 106.59" class="st10"/>
		</g>
		<g id="shape1385-167" v:mID="1385" v:groupContext="shape" transform="translate(35.0863,169.478) rotate(180)">
			<title>Sheet.1385</title>
			<path d="M0 106.59 L1.98 106.59" class="st10"/>
		</g>
		<g id="shape1386-170" v:mID="1386" v:groupContext="shape" transform="translate(-73.4844,66.1131) rotate(-90)">
			<title>Sheet.1386</title>
			<path d="M0 106.59 L3.23 106.59" class="st10"/>
		</g>
		<g id="shape1387-173" v:mID="1387" v:groupContext="shape" transform="translate(-71.5069,66.1131) rotate(-90)">
			<title>Sheet.1387</title>
			<path d="M0 106.59 L3.23 106.59" class="st10"/>
		</g>
		<g id="shape1388-176" v:mID="1388" v:groupContext="shape" transform="translate(33.1087,172.78) rotate(180)">
			<title>Sheet.1388</title>
			<path d="M0 106.59 L1.18 106.59" class="st10"/>
		</g>
		<g id="shape1389-179" v:mID="1389" v:groupContext="shape" transform="translate(-72.5971,61.457) rotate(-90)">
			<title>Sheet.1389</title>
			<path d="M0 106.59 L4.42 106.59" class="st10"/>
		</g>
		<g id="shape1390-182" v:mID="1390" v:groupContext="shape" transform="translate(-72.373,74.4218) rotate(-90)">
			<title>Sheet.1390</title>
			<path d="M0 106.59 L6.08 106.59" class="st10"/>
		</g>
		<g id="shape1391-185" v:mID="1391" v:groupContext="shape" transform="translate(-56.8293,82.7182) rotate(-90)">
			<title>Sheet.1391</title>
			<path d="M0 106.59 L54 106.59" class="st12"/>
		</g>
		<g id="shape1392-188" v:mID="1392" v:groupContext="shape" transform="translate(21.5639,-18.25)">
			<title>Sheet.1392</title>
			<desc>Converter</desc>
			<v:textBlock v:margins="rect(4,4,4,4)"/>
			<v:textRect cx="15.0774" cy="99.8432" width="30.16" height="13.5"/>
			<rect x="0" y="93.0932" width="30.1549" height="13.5" class="st13"/>
			<text x="5.08" y="98.34" class="st14" v:langID="1033"><v:paragraph v:horizAlign="1"/><v:tabList/>Converter<v:newlineChar/></text>		</g>
		<g id="shape1393-191" v:mID="1393" v:groupContext="shape" transform="translate(-34.6293,81.3682) rotate(-90)">
			<title>Sheet.1393</title>
			<path d="M0 106.59 L51.75 106.59" class="st12"/>
		</g>
		<g id="shape1394-194" v:mID="1394" v:groupContext="shape" transform="translate(33.2358,-26.6875)">
			<title>Sheet.1394</title>
			<desc>Motor</desc>
			<v:textBlock v:margins="rect(4,4,4,4)"/>
			<v:textRect cx="26.5781" cy="103.451" width="53.16" height="6.28333"/>
			<rect x="0" y="100.31" width="53.1562" height="6.28333" class="st13"/>
			<text x="20.33" y="107.05" class="st15" v:langID="1033"><v:paragraph v:horizAlign="1"/><v:tabList/>Motor</text>		</g>
		<g id="shape1396-197" v:mID="1396" v:groupContext="shape" transform="translate(93.0937,-27)">
			<title>Sheet.1396</title>
			<desc>IPT</desc>
			<v:textBlock v:margins="rect(4,4,4,4)"/>
			<v:textRect cx="26.5781" cy="103.451" width="53.16" height="6.28333"/>
			<rect x="0" y="100.31" width="53.1562" height="6.28333" class="st13"/>
			<text x="22.83" y="107.05" class="st16" v:langID="1033"><v:paragraph v:horizAlign="1"/><v:tabList/>IPT</text>		</g>
		<g id="group1403-200" transform="translate(139.607,52.1239) rotate(90)" v:mID="1403" v:groupContext="group"
				v:layerMember="0">
			<v:custProps>
				<v:cp v:nameU="Label" v:lbl="Label" v:type="0" v:format="@" v:sortKey="" v:invis="false" v:ask="false"
						v:langID="1033" v:val="VT4()"/>
				<v:cp v:nameU="Slider_Position" v:lbl="Slider position (0-1)" v:type="2" v:langID="1033" v:val="VT0(0.5):26"/>
			</v:custProps>
			<v:userDefs>
				<v:ud v:nameU="Form" v:val="VT0(1):5"/>
				<v:ud v:nameU="SubType" v:val="VT0(0):26"/>
				<v:ud v:nameU="visDescription" v:val="VT4(Represents a fixed or variable resistor.)"/>
				<v:ud v:nameU="visVersion" v:val="VT0(15):26"/>
			</v:userDefs>
			<title>Resistor.1403</title>
			<g id="shape1404-201" v:mID="1404" v:groupContext="shape" v:layerMember="0">
				<title>Sheet.1404</title>
				<v:userDefs>
					<v:ud v:nameU="SubType" v:val="VT0(0):26"/>
					<v:ud v:nameU="Form" v:val="VT0(1):5"/>
				</v:userDefs>
				<path d="M0 105.61 L0.41 104.63 L1.23 106.59 L2.05 104.63 L2.86 106.59 L3.68 104.63 L4.5 106.59 L4.91 105.61"
						class="st17"/>
			</g>
			<g id="shape1405-204" v:mID="1405" v:groupContext="shape" v:layerMember="0"
					transform="translate(-74.8968,32.4256) rotate(-45)">
				<title>Sheet.1405</title>
				<v:userDefs>
					<v:ud v:nameU="SubType" v:val="VT0(0):26"/>
				</v:userDefs>
			</g>
		</g>
		<g id="shape1406-206" v:mID="1406" v:groupContext="shape" transform="translate(-72.5107,42.1503) rotate(-90.3941)">
			<title>Sheet.1406</title>
			<path d="M0 106.59 L7.07 106.59" class="st10"/>
		</g>
		<g id="group1407-209" transform="translate(-70.9688,46.1244) rotate(-90)" v:mID="1407" v:groupContext="group"
				v:layerMember="0">
			<v:custProps>
				<v:cp v:nameU="Core" v:lbl="Core" v:type="1" v:format="Air;Magnetic;Magnetic with Gap" v:langID="1033"
						v:val="VT4(Air)"/>
				<v:cp v:nameU="Adjustability" v:lbl="Adjustability" v:type="1" v:format="Fixed;Adjustable;Continuously Adjustable"
						v:langID="1033" v:val="VT4(Fixed)"/>
				<v:cp v:nameU="Taps" v:lbl="Taps" v:type="1" v:format="0;1;2;3" v:langID="1033" v:val="VT4(0)"/>
				<v:cp v:nameU="Label" v:lbl="Label" v:prompt="" v:type="0" v:format="@" v:sortKey="" v:invis="false" v:ask="false"
						v:langID="1033" v:cal="0" v:val="VT4()"/>
			</v:custProps>
			<v:userDefs>
				<v:ud v:nameU="Core" v:val="VT0(0):26"/>
				<v:ud v:nameU="Adjustability" v:val="VT0(0):26"/>
				<v:ud v:nameU="visDescription" v:val="VT4(Represents an inductor.)"/>
				<v:ud v:nameU="visVersion" v:val="VT0(15):26"/>
				<v:ud v:nameU="Label" v:prompt="" v:val="VT4()"/>
				<v:ud v:nameU="SolSH" v:prompt="" v:val="VT4({2EE3C7D2-E26E-4B72-9E9C-5170DDBF261A})"/>
				<v:ud v:nameU="Label" v:prompt="" v:val="VT4(L8)"/>
			</v:userDefs>
			<title>Inductor.1407</title>
			<g id="shape1408-210" v:mID="1408" v:groupContext="shape" v:layerMember="0" transform="translate(3.73241,-4.19991)">
				<title>Sheet.1408</title>
			</g>
			<g id="shape1409-212" v:mID="1409" v:groupContext="shape" v:layerMember="0" transform="translate(0,-1.09849E-06)">
				<title>Sheet.1409</title>
				<path d="" class="st18"/>
				<path d="M2.38 103.37 C2.87 103.91 2.88 104.92 2.38 104.92 C1.89 104.92 1.87 104.19 2.14 103.71 C2.67 102.67 3.59
							 102.94 3.9 103.75 C4.11 104.34 4.08 104.92 3.62 104.9 C3.11 104.89 3.14 103.69 3.62 103.31"
						class="st18"/>
				<path d="" class="st18"/>
				<path d="M4.69 103.82 C4.69 106.59 4.69 103.89 4.69 103.77 C4.69 103.14 4.21 102.74 3.62 103.31" class="st18"/>
				<path d="" class="st18"/>
				<path d="M1.09 103.37 C1.58 103.91 1.63 104.92 1.09 104.92 C0.55 104.92 0.71 103.97 0.9 103.66 C1.27 103.03 1.89
							 102.8 2.38 103.37" class="st18"/>
				<path d="" class="st18"/>
				<path d="M0 104.95 C0 106.59 0 104.06 0 103.87 C-0 103.01 0.6 102.8 1.09 103.37" class="st18"/>
			</g>
		</g>
		<g id="shape1410-222" v:mID="1410" v:groupContext="shape" transform="translate(-72.5971,52.1239) rotate(-90)">
			<title>Sheet.1410</title>
			<path d="M0 106.59 L1.69 106.59" class="st10"/>
		</g>
		<g id="group1411-225" transform="translate(77.9709,139.954) rotate(180)" v:mID="1411" v:groupContext="group"
				v:layerMember="0">
			<v:custProps>
				<v:cp v:nameU="Label" v:lbl="Label" v:type="0" v:format="@" v:sortKey="" v:invis="false" v:ask="false"
						v:langID="1033" v:val="VT4()"/>
				<v:cp v:nameU="Slider_Position" v:lbl="Slider position (0-1)" v:type="2" v:langID="1033" v:val="VT0(0.5):26"/>
			</v:custProps>
			<v:userDefs>
				<v:ud v:nameU="Form" v:val="VT0(1):5"/>
				<v:ud v:nameU="SubType" v:val="VT0(0):26"/>
				<v:ud v:nameU="visDescription" v:val="VT4(Represents a fixed or variable resistor.)"/>
				<v:ud v:nameU="visVersion" v:val="VT0(15):26"/>
			</v:userDefs>
			<title>Resistor.1411</title>
			<g id="shape1412-226" v:mID="1412" v:groupContext="shape" v:layerMember="0">
				<title>Sheet.1412</title>
				<v:userDefs>
					<v:ud v:nameU="SubType" v:val="VT0(0):26"/>
					<v:ud v:nameU="Form" v:val="VT0(1):5"/>
				</v:userDefs>
				<path d="M0 105.61 L0.41 104.63 L1.23 106.59 L2.05 104.63 L2.86 106.59 L3.68 104.63 L4.5 106.59 L4.91 105.61"
						class="st17"/>
			</g>
			<g id="shape1413-229" v:mID="1413" v:groupContext="shape" v:layerMember="0"
					transform="translate(-74.8968,32.4256) rotate(-45)">
				<title>Sheet.1413</title>
				<v:userDefs>
					<v:ud v:nameU="SubType" v:val="VT0(0):26"/>
				</v:userDefs>
			</g>
		</g>
		<g id="group1414-231" transform="translate(79.827,-70.6093)" v:mID="1414" v:groupContext="group" v:layerMember="0">
			<v:custProps>
				<v:cp v:nameU="Core" v:lbl="Core" v:type="1" v:format="Air;Magnetic;Magnetic with Gap" v:langID="1033"
						v:val="VT4(Air)"/>
				<v:cp v:nameU="Adjustability" v:lbl="Adjustability" v:type="1" v:format="Fixed;Adjustable;Continuously Adjustable"
						v:langID="1033" v:val="VT4(Fixed)"/>
				<v:cp v:nameU="Taps" v:lbl="Taps" v:type="1" v:format="0;1;2;3" v:langID="1033" v:val="VT4(0)"/>
				<v:cp v:nameU="Label" v:lbl="Label" v:prompt="" v:type="0" v:format="@" v:sortKey="" v:invis="false" v:ask="false"
						v:langID="1033" v:cal="0" v:val="VT4()"/>
			</v:custProps>
			<v:userDefs>
				<v:ud v:nameU="Core" v:val="VT0(0):26"/>
				<v:ud v:nameU="Adjustability" v:val="VT0(0):26"/>
				<v:ud v:nameU="visDescription" v:val="VT4(Represents an inductor.)"/>
				<v:ud v:nameU="visVersion" v:val="VT0(15):26"/>
				<v:ud v:nameU="Label" v:prompt="" v:val="VT4()"/>
				<v:ud v:nameU="SolSH" v:prompt="" v:val="VT4({2EE3C7D2-E26E-4B72-9E9C-5170DDBF261A})"/>
				<v:ud v:nameU="Label" v:prompt="" v:val="VT4(L8)"/>
			</v:userDefs>
			<title>Inductor.1414</title>
			<g id="shape1415-232" v:mID="1415" v:groupContext="shape" v:layerMember="0" transform="translate(3.73241,-4.19991)">
				<title>Sheet.1415</title>
			</g>
			<g id="shape1416-234" v:mID="1416" v:groupContext="shape" v:layerMember="0" transform="translate(0,-1.09849E-06)">
				<title>Sheet.1416</title>
				<path d="" class="st18"/>
				<path d="M2.38 103.37 C2.87 103.91 2.88 104.92 2.38 104.92 C1.89 104.92 1.87 104.19 2.14 103.71 C2.67 102.67 3.59
							 102.94 3.9 103.75 C4.11 104.34 4.08 104.92 3.62 104.9 C3.11 104.89 3.14 103.69 3.62 103.31"
						class="st18"/>
				<path d="" class="st18"/>
				<path d="M4.69 103.55 C4.69 106.59 4.69 103.89 4.69 103.77 C4.69 103.14 4.21 102.74 3.62 103.31" class="st18"/>
				<path d="" class="st18"/>
				<path d="M1.09 103.37 C1.58 103.91 1.63 104.92 1.09 104.92 C0.55 104.92 0.71 103.97 0.9 103.66 C1.27 103.03 1.89
							 102.8 2.38 103.37" class="st18"/>
				<path d="" class="st18"/>
				<path d="M0 104.95 C0 106.59 0 104.06 0 103.87 C-0 103.01 0.6 102.8 1.09 103.37" class="st18"/>
			</g>
		</g>
		<g id="shape1417-244" v:mID="1417" v:groupContext="shape" transform="translate(79.827,140.936) rotate(180)">
			<title>Sheet.1417</title>
			<path d="M0 106.59 L1.86 106.59" class="st10"/>
		</g>
		<g id="shape1418-247" v:mID="1418" v:groupContext="shape" transform="translate(86.8163,140.936) rotate(180)">
			<title>Sheet.1418</title>
			<path d="M0 106.59 L2.25 106.59" class="st10"/>
		</g>
		<g id="shape1419-250" v:mID="1419" v:groupContext="shape" transform="translate(18,-34.372)">
			<title>Sheet.1419</title>
			<desc>Vo</desc>
			<v:textBlock v:margins="rect(4,4,4,4)"/>
			<v:textRect cx="8.48898" cy="99.8432" width="16.98" height="13.5"/>
			<rect x="0" y="93.0932" width="16.978" height="13.5" class="st13"/>
			<text x="5.93" y="101.34" class="st14" v:langID="1033"><v:paragraph v:horizAlign="1"/><v:tabList/>V<tspan class="st19">o</tspan></text>		</g>
		<g id="shape1420-254" v:mID="1420" v:groupContext="shape" transform="translate(20.1985,-46.125)">
			<title>Sheet.1420</title>
			<desc>Rs</desc>
			<v:textBlock v:margins="rect(4,4,4,4)"/>
			<v:textRect cx="8.48898" cy="99.8432" width="16.98" height="13.5"/>
			<rect x="0" y="93.0932" width="16.978" height="13.5" class="st13"/>
			<text x="6.24" y="101.34" class="st14" v:langID="1033"><v:paragraph v:horizAlign="1"/><v:tabList/>R<tspan class="st19">s</tspan></text>		</g>
		<g id="shape1421-258" v:mID="1421" v:groupContext="shape" transform="translate(19.5845,-56.25)">
			<title>Sheet.1421</title>
			<desc>Ls</desc>
			<v:textBlock v:margins="rect(4,4,4,4)"/>
			<v:textRect cx="8.48898" cy="99.8432" width="16.98" height="13.5"/>
			<rect x="0" y="93.0932" width="16.978" height="13.5" class="st13"/>
			<text x="6.38" y="101.34" class="st14" v:langID="1033"><v:paragraph v:horizAlign="1"/><v:tabList/>L<tspan class="st19">s</tspan></text>		</g>
		<g id="shape1422-262" v:mID="1422" v:groupContext="shape" transform="translate(54.1769,-55.7257)">
			<title>Sheet.1422</title>
			<desc>Ls</desc>
			<v:textBlock v:margins="rect(4,4,4,4)"/>
			<v:textRect cx="8.48898" cy="99.8432" width="16.98" height="13.5"/>
			<rect x="0" y="93.0932" width="16.978" height="13.5" class="st13"/>
			<text x="6.38" y="101.34" class="st15" v:langID="1033"><v:paragraph v:horizAlign="1"/><v:tabList/>L<tspan class="st19">s</tspan></text>		</g>
		<g id="shape1423-266" v:mID="1423" v:groupContext="shape" transform="translate(54.7749,-45.475)">
			<title>Sheet.1423</title>
			<desc>Rs</desc>
			<v:textBlock v:margins="rect(4,4,4,4)"/>
			<v:textRect cx="8.48898" cy="99.8432" width="16.98" height="13.5"/>
			<rect x="0" y="93.0932" width="16.978" height="13.5" class="st13"/>
			<text x="6.24" y="101.34" class="st15" v:langID="1033"><v:paragraph v:horizAlign="1"/><v:tabList/>R<tspan class="st19">s</tspan></text>		</g>
		<g id="shape1424-270" v:mID="1424" v:groupContext="shape" transform="translate(53.9218,-34.6231)">
			<title>Sheet.1424</title>
			<desc>Vemf</desc>
			<v:textBlock v:margins="rect(4,4,4,4)"/>
			<v:textRect cx="10.9945" cy="99.8432" width="21.99" height="13.5"/>
			<rect x="0" y="93.0932" width="21.989" height="13.5" class="st13"/>
			<text x="6.86" y="101.34" class="st15" v:langID="1033"><v:paragraph v:horizAlign="1"/><v:tabList/>V<tspan class="st19">emf</tspan></text>		</g>
		<g id="shape1425-274" v:mID="1425" v:groupContext="shape" transform="translate(73.6813,-70.6093)">
			<title>Sheet.1425</title>
			<desc>Lc</desc>
			<v:textBlock v:margins="rect(4,4,4,4)"/>
			<v:textRect cx="8.48898" cy="99.8432" width="16.98" height="13.5"/>
			<rect x="0" y="93.0932" width="16.978" height="13.5" class="st13"/>
			<text x="6.3" y="101.34" class="st14" v:langID="1033"><v:paragraph v:horizAlign="1"/><v:tabList/>L<tspan class="st19">c</tspan></text>		</g>
		<g id="shape1426-278" v:mID="1426" v:groupContext="shape" transform="translate(67.5357,-70.6093)">
			<title>Sheet.1426</title>
			<desc>Rc</desc>
			<v:textBlock v:margins="rect(4,4,4,4)"/>
			<v:textRect cx="8.48898" cy="99.8432" width="16.98" height="13.5"/>
			<rect x="0" y="93.0932" width="16.978" height="13.5" class="st13"/>
			<text x="6.16" y="101.34" class="st14" v:langID="1033"><v:paragraph v:horizAlign="1"/><v:tabList/>R<tspan class="st19">c</tspan></text>		</g>
		<g id="shape1427-282" v:mID="1427" v:groupContext="shape" transform="translate(64.3139,-64.8903)">
			<title>Sheet.1427</title>
			<desc>CTX</desc>
			<v:textBlock v:margins="rect(4,4,4,4)"/>
			<v:textRect cx="27.4375" cy="101.788" width="54.88" height="9.60974"/>
			<rect x="0" y="96.9834" width="54.875" height="9.60974" class="st13"/>
			<text x="23.77" y="103.29" class="st16" v:langID="1033"><v:paragraph v:horizAlign="1"/><v:tabList/>C<tspan class="st19">TX</tspan></text>		</g>
		<g id="shape1428-286" v:mID="1428" v:groupContext="shape" transform="translate(75.7975,-65.0106)">
			<title>Sheet.1428</title>
			<desc>LTX</desc>
			<v:textBlock v:margins="rect(4,4,4,4)"/>
			<v:textRect cx="27.4375" cy="101.788" width="54.88" height="9.60974"/>
			<rect x="0" y="96.9834" width="54.875" height="9.60974" class="st13"/>
			<text x="23.91" y="103.29" class="st16" v:langID="1033"><v:paragraph v:horizAlign="1"/><v:tabList/>L<tspan class="st19">TX</tspan></text>		</g>
		<g id="shape1429-290" v:mID="1429" v:groupContext="shape" transform="translate(71.0639,-46.525)">
			<title>Sheet.1429</title>
			<desc>jωMIRX</desc>
			<v:textBlock v:margins="rect(4,4,4,4)"/>
			<v:textRect cx="27.4375" cy="101.788" width="54.88" height="9.60974"/>
			<rect x="0" y="96.9834" width="54.875" height="9.60974" class="st13"/>
			<text x="19.96" y="103.29" class="st16" v:langID="1033"><v:paragraph v:horizAlign="1"/><v:tabList/>jωMI<tspan
						class="st19">RX</tspan> </text>		</g>
		<g id="shape1430-294" v:mID="1430" v:groupContext="shape" transform="translate(103.939,-65.5)">
			<title>Sheet.1430</title>
			<desc>LRX</desc>
			<v:textBlock v:margins="rect(4,4,4,4)"/>
			<v:textRect cx="27.4375" cy="101.788" width="54.88" height="9.60974"/>
			<rect x="0" y="96.9834" width="54.875" height="9.60974" class="st13"/>
			<text x="23.83" y="103.29" class="st16" v:langID="1033"><v:paragraph v:horizAlign="1"/><v:tabList/>L<tspan class="st19">RX</tspan></text>		</g>
		<g id="shape1431-298" v:mID="1431" v:groupContext="shape" transform="translate(137.471,-65.1951)">
			<title>Sheet.1431</title>
			<desc>CRX</desc>
			<v:textBlock v:margins="rect(4,4,4,4)"/>
			<v:textRect cx="8.48898" cy="101.788" width="16.98" height="9.60974"/>
			<rect x="0" y="96.9834" width="16.978" height="9.60974" class="st13"/>
			<text x="4.74" y="103.29" class="st16" v:langID="1033"><v:paragraph v:horizAlign="1"/><v:tabList/>C<tspan class="st19">RX</tspan></text>		</g>
		<g id="shape1432-302" v:mID="1432" v:groupContext="shape" transform="translate(108.189,-46.2807)">
			<title>Sheet.1432</title>
			<desc>jωMITX</desc>
			<v:textBlock v:margins="rect(4,4,4,4)"/>
			<v:textRect cx="27.4375" cy="101.788" width="54.88" height="9.60974"/>
			<rect x="0" y="96.9834" width="54.875" height="9.60974" class="st13"/>
			<text x="20.04" y="103.29" class="st16" v:langID="1033"><v:paragraph v:horizAlign="1"/><v:tabList/>jωMI<tspan
						class="st19">TX</tspan> </text>		</g>
		<g id="shape1433-306" v:mID="1433" v:groupContext="shape" transform="translate(75.1264,-31.4451)">
			<title>Sheet.1433</title>
			<desc>RTX</desc>
			<v:textBlock v:margins="rect(4,4,4,4)"/>
			<v:textRect cx="27.4375" cy="101.788" width="54.88" height="9.60974"/>
			<rect x="0" y="96.9834" width="54.875" height="9.60974" class="st13"/>
			<text x="23.77" y="103.29" class="st16" v:langID="1033"><v:paragraph v:horizAlign="1"/><v:tabList/>R<tspan class="st19">TX</tspan> </text>		</g>
		<g id="shape1434-310" v:mID="1434" v:groupContext="shape" transform="translate(104.9,-31.1403)">
			<title>Sheet.1434</title>
			<desc>RRX</desc>
			<v:textBlock v:margins="rect(4,4,4,4)"/>
			<v:textRect cx="27.4375" cy="101.788" width="54.88" height="9.60974"/>
			<rect x="0" y="96.9834" width="54.875" height="9.60974" class="st13"/>
			<text x="23.69" y="103.29" class="st16" v:langID="1033"><v:paragraph v:horizAlign="1"/><v:tabList/>R<tspan class="st19">RX</tspan> </text>		</g>
		<g id="shape1435-314" v:mID="1435" v:groupContext="shape" transform="translate(153.94,-46.2807)">
			<title>Sheet.1435</title>
			<desc>RL</desc>
			<v:textBlock v:margins="rect(4,4,4,4)"/>
			<v:textRect cx="8.48898" cy="101.788" width="16.98" height="9.60974"/>
			<rect x="0" y="96.9834" width="16.978" height="9.60974" class="st13"/>
			<text x="5.91" y="103.29" class="st16" v:langID="1033"><v:paragraph v:horizAlign="1"/><v:tabList/>R<tspan class="st19">L</tspan></text>		</g>
		<g id="shape1436-318" v:mID="1436" v:groupContext="shape" transform="translate(-72.6095,50.3432) rotate(-90)">
			<title>Sheet.1436</title>
			<path d="M0 106.59 L4.22 106.59" class="st10"/>
		</g>
	</g>
</svg>
