<?xml version="1.0" encoding="UTF-8" standalone="no"?>
<!DOCTYPE svg PUBLIC "-//W3C//DTD SVG 1.1//EN" "http://www.w3.org/Graphics/SVG/1.1/DTD/svg11.dtd">
<!-- Generated by Microsoft Visio, SVG Export block_conventional_combined.svg Page-1 -->
<svg xmlns="http://www.w3.org/2000/svg" xmlns:xlink="http://www.w3.org/1999/xlink" xmlns:ev="http://www.w3.org/2001/xml-events"
		width="2.54893in" height="3.64852in" viewBox="0 0 183.523 262.694" xml:space="preserve" color-interpolation-filters="sRGB"
		class="st41">
	<style type="text/css">
	<![CDATA[
		.st1 {stroke:#000000;stroke-linecap:round;stroke-linejoin:round;stroke-width:0.65}
		.st2 {fill:#f4b183;fill-opacity:0.2;stroke:#000000;stroke-width:0.5}
		.st3 {fill:none;stroke:none;stroke-width:0.25}
		.st4 {fill:#000000;font-family:Times New Roman;font-size:0.499992em}
		.st5 {font-size:1em}
		.st6 {fill:#a5a5a5;fill-opacity:0.2;stroke:#000000;stroke-width:0.65}
		.st7 {stroke:#000000;stroke-linecap:butt;stroke-width:0.521711}
		.st8 {fill:#000000}
		.st9 {fill:#000000;font-family:Times New Roman;font-size:0.333344em}
		.st10 {fill:#538135;fill-opacity:0.2;stroke:#000000;stroke-width:0.5}
		.st11 {fill:#000000;stroke:#000000;stroke-width:0.75}
		.st12 {fill:#feffff;stroke:#000000;stroke-width:0.65}
		.st13 {stroke:#000000;stroke-linecap:round;stroke-linejoin:round;stroke-width:0.5}
		.st14 {fill:#cbffff;fill-opacity:0.2;stroke:#000000;stroke-width:0.5}
		.st15 {fill:#305497;fill-opacity:0.2;stroke:#000000;stroke-width:0.5}
		.st16 {stroke:#000000;stroke-width:0.75}
		.st17 {stroke:#000000;stroke-linecap:round;stroke-linejoin:round;stroke-width:0.75}
		.st18 {fill:#bfbfbf;fill-opacity:0.2;stroke:#000000;stroke-width:0.5}
		.st19 {fill:#c5e0b3;fill-opacity:0.2;stroke:#000000;stroke-opacity:0;stroke-width:0.5}
		.st20 {fill:#b5c6e7;fill-opacity:0.2;stroke:#000000;stroke-opacity:0;stroke-width:0.5}
		.st21 {fill:#e2efd9;stroke:#000000;stroke-width:0.25}
		.st22 {stroke:#000000;stroke-linecap:round;stroke-linejoin:round;stroke-width:0.25}
		.st23 {fill:#e2efd9;stroke:none;stroke-width:0.25}
		.st24 {fill:#a8d08d;stroke:#000000;stroke-width:0.25}
		.st25 {fill:#a8d08d;stroke:none;stroke-width:0.25}
		.st26 {stroke:#4672c4;stroke-linecap:round;stroke-linejoin:round;stroke-width:1}
		.st27 {stroke:#f7cbac;stroke-linecap:round;stroke-linejoin:round;stroke-width:1}
		.st28 {fill:#7f7f7f;stroke:#a5a5a5;stroke-width:0.25}
		.st29 {stroke:#7f7f7f;stroke-linecap:round;stroke-linejoin:round;stroke-width:1}
		.st30 {fill:#d8d8d8;stroke:#000000;stroke-width:0.25}
		.st31 {fill:#d8d8d8;stroke:#d8d8d8;stroke-width:0.25}
		.st32 {fill:#90aadb;stroke:#000000;stroke-width:0.25}
		.st33 {fill:#90aadb;stroke:none;stroke-width:0.25}
		.st34 {fill:#dae2f3;stroke:#000000;stroke-width:0.25}
		.st35 {fill:#dae2f3;stroke:none;stroke-width:0.25}
		.st36 {fill:#c5e0b3;stroke:none;stroke-width:0.25}
		.st37 {marker-start:url(#mrkr1-489);stroke:#000000;stroke-linecap:round;stroke-linejoin:round;stroke-width:0.25}
		.st38 {fill:#000000;fill-opacity:1;stroke:#000000;stroke-opacity:1;stroke-width:0.14792899408284}
		.st39 {fill:#f4b183;stroke:none;stroke-width:0.25}
		.st40 {fill:#000000;font-family:Times New Roman;font-size:0.666664em}
		.st41 {fill:none;fill-rule:evenodd;font-size:12px;overflow:visible;stroke-linecap:square;stroke-miterlimit:3}
	]]>
	</style>

	<defs id="Markers">
		<g id="lend1">
			<path d="M 1 -1 L 0 0 L 1 1 " style="stroke-linecap:round;stroke-linejoin:round;fill:none"/>
		</g>
		<marker id="mrkr1-489" class="st38" orient="auto" markerUnits="strokeWidth" overflow="visible">
			<use xlink:href="#lend1" transform="scale(6.76) "/>
		</marker>
	</defs>
	<g>
		<title>Page-1</title>
		<g id="shape4308-1" transform="translate(70.735,-96.1588) rotate(-0.50878)">
			<title>Sheet.4308</title>
			<path d="M0 262.69 L13.77 262.69" class="st1"/>
		</g>
		<g id="shape4739-4" transform="translate(72.6492,-103.822)">
			<title>Sheet.4739</title>
			<path d="M0 262.69 L12.85 262.69" class="st1"/>
		</g>
		<g id="shape4740-7" transform="translate(69.6719,-112.066) rotate(-0.670614)">
			<title>Sheet.4740</title>
			<path d="M0 262.69 L14.45 262.69" class="st1"/>
		</g>
		<g id="shape3565-10" transform="translate(56.059,-86.8141)">
			<title>Rectangle.3565</title>
			<rect x="0" y="227.73" width="16.5902" height="34.9633" class="st2"/>
		</g>
		<g id="group4313-12" transform="translate(365.525,142.998) rotate(90)">
			<title>Inductor.4313</title>
			<g id="shape4314-13">
				<title>Sheet.4314</title>
				<path d="M0 262.69 A1.62107 1.86903 0 1 1 3.24 262.69 A1.62107 1.86903 0 1 1 6.48 262.69 A1.62107 1.86903 0 1 1 9.72
							 262.69 A1.62107 1.86903 0 1 1 12.96 262.69" class="st1"/>
				<path d="M0 262.69 L0 262.6" class="st1"/>
				<path d="M12.96 262.69 L12.96 262.6" class="st1"/>
			</g>
			<g id="shape4315-18" transform="translate(6.24627,2.1867)">
				<title>Sheet.4315</title>
			</g>
			<g id="shape4316-20" transform="translate(-183.583,80.7985) rotate(-45)">
				<title>Sheet.4316</title>
			</g>
		</g>
		<g id="group4321-22" transform="translate(-94.0891,-17.648) rotate(-45)">
			<title>Inductor.4321</title>
			<g id="shape4322-23">
				<title>Sheet.4322</title>
				<path d="M0 262.69 A1.62107 1.86903 0 1 1 3.24 262.69 A1.62107 1.86903 0 1 1 6.48 262.69 A1.62107 1.86903 0 1 1 9.72
							 262.69 A1.62107 1.86903 0 1 1 12.96 262.69" class="st1"/>
				<path d="M0 262.69 L0 262.6" class="st1"/>
				<path d="M12.96 262.69 L12.96 262.35" class="st1"/>
			</g>
			<g id="shape4323-28" transform="translate(6.24627,2.1867)">
				<title>Sheet.4323</title>
			</g>
			<g id="shape4324-30" transform="translate(-183.583,80.7985) rotate(-45)">
				<title>Sheet.4324</title>
			</g>
		</g>
		<g id="group4325-32" transform="translate(290.587,-26.8109) rotate(45)">
			<title>Inductor.4325</title>
			<g id="shape4326-33">
				<title>Sheet.4326</title>
				<path d="M0 262.69 A1.62107 1.86903 0 1 1 3.24 262.69 A1.62107 1.86903 0 1 1 6.48 262.69 A1.62107 1.86903 0 1 1 9.72
							 262.69 A1.62107 1.86903 0 1 1 12.96 262.69" class="st1"/>
				<path d="M0 262.69 L0 262.55" class="st1"/>
				<path d="M12.96 262.69 L12.96 262.6" class="st1"/>
			</g>
			<g id="shape4327-38" transform="translate(6.24627,2.1867)">
				<title>Sheet.4327</title>
			</g>
			<g id="shape4328-40" transform="translate(-183.583,80.7985) rotate(-45)">
				<title>Sheet.4328</title>
			</g>
		</g>
		<g id="shape4329-42" transform="translate(365.617,155.953) rotate(89.9994)">
			<title>Sheet.4329</title>
			<path d="M0 262.69 L2.11 262.69" class="st1"/>
		</g>
		<g id="shape4330-45" transform="translate(216.072,395.139) rotate(154.486)">
			<title>Sheet.4330</title>
			<path d="M0 262.69 L2.26 262.69" class="st1"/>
		</g>
		<g id="shape4332-48" transform="translate(-22.436,388.907) rotate(-151.053)">
			<title>Sheet.4332</title>
			<path d="M0 262.69 L2.04 262.69" class="st1"/>
		</g>
		<g id="group4443-51" transform="translate(133.254,-111.572)">
			<title>Inductor.4443</title>
			<g id="shape4444-52">
				<title>Sheet.4444</title>
				<path d="M0 262.69 A2.74283 3.16238 0 1 1 5.48 262.69 A2.74283 3.16238 0 1 1 10.96 262.69 A2.74283 3.16238 0 1 1
							 16.44 262.69 A2.74283 3.16238 0 1 1 21.93 262.69" class="st1"/>
				<path d="M0 262.69 L0 270.71" class="st1"/>
				<path d="M21.93 262.69 L21.93 271.39" class="st1"/>
			</g>
			<g id="shape4445-57" transform="translate(10.5686,3.69987)">
				<title>Sheet.4445</title>
			</g>
			<g id="shape4446-59" transform="translate(-182.081,83.4677) rotate(-45)">
				<title>Sheet.4446</title>
			</g>
		</g>
		<g id="shape4918-61" transform="translate(44.8956,-126.339)">
			<title>Rectangle.4918</title>
			<desc>Motor Drive (DC/AC)</desc>
			<rect x="0" y="251.602" width="47.0551" height="11.0916" class="st3"/>
			<text x="8.45" y="255.35" class="st4">Motor Drive  <tspan x="12.36" dy="1.2em" class="st5">(DC/AC)</tspan></text>		</g>
		<g id="shape4921-65" transform="translate(47.2716,-126.499)">
			<title>Rectangle.4921</title>
			<desc>WFSM</desc>
			<rect x="0" y="251.602" width="105.449" height="11.0916" class="st3"/>
			<text x="43.89" y="258.95" class="st4">WFSM</text>		</g>
		<g id="shape4922-68" transform="translate(123.935,-127.834)">
			<title>Rectangle.4922</title>
			<desc>Field Windings</desc>
			<rect x="0" y="251.602" width="38.2374" height="11.0916" class="st3"/>
			<text x="12.95" y="255.35" class="st4">Field <tspan x="7.45" dy="1.2em" class="st5">Windings</tspan></text>		</g>
		<g id="shape4312-72" transform="translate(85.5024,-84.351)">
			<title>Sheet.4312</title>
			<ellipse cx="17.1681" cy="243.223" rx="17.1681" ry="19.471" class="st6"/>
		</g>
		<g id="group4964-74" transform="translate(57.8327,-97.7744)">
			<title>MOSFET N-Type.4268</title>
			<g id="shape4965-75" transform="translate(1.54348,-1.56513)">
				<title>Sheet.4965</title>
				<path d="M9.91 257.74 A4.95625 4.95625 -180 1 0 -0 257.74 A4.95625 4.95625 -180 1 0 9.91 257.74 L9.91 257.74 L9.91
							 257.74" class="st7"/>
			</g>
			<g id="shape4966-78">
				<title>Sheet.4966</title>
				<path d="M6.65 256.17 L8.63 255.07 L8.63 257.2 L6.65 256.17 Z" class="st8"/>
				<path d="M7.96 256.17 L13.04 256.17" class="st7"/>
				<path d="M4.99 253.01 L4.99 259.09 L0 259.09" class="st7"/>
				<path d="M9.24 249.65 L9.24 253.29 L6.24 253.29" class="st7"/>
				<path d="M9.24 262.69 L9.24 259.09 L6.26 259.09" class="st7"/>
				<path d="M8.11 256.17 L6.26 256.17" class="st7"/>
				<path d="M6.26 257.24 L6.26 255.11" class="st7"/>
				<path d="M6.26 258.02 L6.26 260.15" class="st7"/>
				<path d="M6.26 252.2 L6.26 254.33" class="st7"/>
			</g>
		</g>
		<g id="shape4967-88" transform="translate(38.5356,-110.721) rotate(-0.670614)">
			<title>Sheet.4967</title>
			<path d="M0 262.69 L14.45 262.69" class="st1"/>
		</g>
		<g id="shape4968-91" transform="translate(41.8858,-99.57)">
			<title>Sheet.4968</title>
			<path d="M0 262.69 L14.17 262.69" class="st1"/>
		</g>
		<g id="shape4969-94" transform="translate(31.1811,-109.891)">
			<title>Rectangle.4969</title>
			<desc>DC Main</desc>
			<rect x="0" y="251.602" width="26.7539" height="11.0916" class="st3"/>
			<text x="5.88" y="258.35" class="st9">DC Main</text>		</g>
		<g id="shape4971-97" transform="translate(41.0985,-44.1922)">
			<title>Rectangle.4971</title>
			<rect x="0" y="227.73" width="16.5902" height="34.9633" class="st10"/>
		</g>
		<g id="group4972-99" transform="translate(42.8723,-55.1524)">
			<title>MOSFET N-Type.4972</title>
			<g id="shape4973-100" transform="translate(1.54348,-1.56513)">
				<title>Sheet.4973</title>
				<path d="M9.91 257.74 A4.95625 4.95625 -180 1 0 -0 257.74 A4.95625 4.95625 -180 1 0 9.91 257.74 L9.91 257.74 L9.91
							 257.74" class="st7"/>
			</g>
			<g id="shape4974-103">
				<title>Sheet.4974</title>
				<path d="M6.65 256.17 L8.63 255.07 L8.63 257.2 L6.65 256.17 Z" class="st8"/>
				<path d="M7.96 256.17 L13.04 256.17" class="st7"/>
				<path d="M4.99 253.01 L4.99 259.09 L0 259.09" class="st7"/>
				<path d="M9.24 249.65 L9.24 253.29 L6.24 253.29" class="st7"/>
				<path d="M9.24 262.69 L9.24 259.09 L6.26 259.09" class="st7"/>
				<path d="M8.11 256.17 L6.26 256.17" class="st7"/>
				<path d="M6.26 257.24 L6.26 255.11" class="st7"/>
				<path d="M6.26 258.02 L6.26 260.15" class="st7"/>
				<path d="M6.26 252.2 L6.26 254.33" class="st7"/>
			</g>
		</g>
		<g id="shape4975-113" transform="translate(23.5752,-68.0995) rotate(-0.670614)">
			<title>Sheet.4975</title>
			<path d="M0 262.69 L14.45 262.69" class="st1"/>
		</g>
		<g id="shape4976-116" transform="translate(26.9254,-56.9481)">
			<title>Sheet.4976</title>
			<path d="M0 262.69 L14.17 262.69" class="st1"/>
		</g>
		<g id="shape4977-119" transform="translate(18.25,-67.6182)">
			<title>Rectangle.4977</title>
			<desc>DC Main</desc>
			<rect x="0" y="251.602" width="26.7539" height="11.0916" class="st3"/>
			<text x="5.88" y="258.35" class="st9">DC Main</text>		</g>
		<g id="shape4978-122" transform="translate(22.0674,-30.7678)">
			<title>Rectangle.4978</title>
			<desc>WPT Converter (DC/AC)</desc>
			<rect x="0" y="251.602" width="54.6525" height="11.0916" class="st3"/>
			<text x="8.25" y="255.35" class="st4">WPT Converter  <tspan x="16.16" dy="1.2em" class="st5">(DC/AC)</tspan></text>		</g>
		<g id="shape4979-126" transform="translate(92.3634,-67.4848)">
			<title>Circle.4979</title>
			<path d="M0 262.08 a0.616535 0.616535 0 1 1 1.23307 0 a0.616535 0.616535 0 0 1 -1.23307 0 Z" class="st11"/>
		</g>
		<g id="group4980-128" transform="translate(353.163,196.343) rotate(90)">
			<title>Inductor.4980</title>
			<g id="shape4981-129">
				<title>Sheet.4981</title>
				<path d="M0 262.69 A1.02838 1.18568 0 1 1 2.06 262.69 A1.02838 1.18568 0 1 1 4.11 262.69 A1.02838 1.18568 0 1 1 6.17
							 262.69 A1.02838 1.18568 0 1 1 8.22 262.69" class="st1"/>
				<path d="M0 262.69 L0 266.38" class="st1"/>
				<path d="M8.22 262.69 L8.22 266.24" class="st1"/>
			</g>
			<g id="shape4982-134" transform="translate(3.96252,1.3872)">
				<title>Sheet.4982</title>
			</g>
			<g id="shape4983-136" transform="translate(-184.376,79.3882) rotate(-45)">
				<title>Sheet.4983</title>
			</g>
		</g>
		<g id="shape4984-138" transform="translate(78.4206,-56.0045)">
			<title>Rectangle.4984</title>
			<rect x="0" y="249.654" width="7.93702" height="13.0394" class="st12"/>
		</g>
		<g id="shape4985-140" transform="translate(345.084,200.282) rotate(90)">
			<title>Sheet.4985</title>
			<path d="M0 262.69 L3.91 262.69" class="st13"/>
		</g>
		<g id="shape4986-143" transform="translate(84.3961,462.092) rotate(180)">
			<title>Sheet.4986</title>
			<path d="M0 262.69 L4.01 262.69" class="st13"/>
		</g>
		<g id="shape4987-146" transform="translate(84.3961,462.976) rotate(180)">
			<title>Sheet.4987</title>
			<path d="M0 262.69 L4.01 262.69" class="st13"/>
		</g>
		<g id="shape4988-149" transform="translate(345.073,195.492) rotate(90)">
			<title>Sheet.4988</title>
			<path d="M0 262.69 L3.91 262.69" class="st13"/>
		</g>
		<g id="shape4989-152" transform="translate(96.311,-67.4848)">
			<title>Circle.4989</title>
			<path d="M0 262.08 a0.616535 0.616535 0 1 1 1.23307 0 a0.616535 0.616535 0 0 1 -1.23307 0 Z" class="st11"/>
		</g>
		<g id="group4990-154" transform="translate(-164.163,204.563) rotate(-90)">
			<title>Inductor.4990</title>
			<g id="shape4991-155">
				<title>Sheet.4991</title>
				<path d="M0 262.69 A1.02838 1.18568 0 1 1 2.06 262.69 A1.02838 1.18568 0 1 1 4.11 262.69 A1.02838 1.18568 0 1 1 6.17
							 262.69 A1.02838 1.18568 0 1 1 8.22 262.69" class="st1"/>
				<path d="M0 262.69 L0 265.16" class="st1"/>
				<path d="M8.22 262.69 L8.22 265.02" class="st1"/>
			</g>
			<g id="shape4992-160" transform="translate(3.96252,1.3872)">
				<title>Sheet.4992</title>
			</g>
			<g id="shape4993-162" transform="translate(-184.376,79.3882) rotate(-45)">
				<title>Sheet.4993</title>
			</g>
		</g>
		<g id="shape4994-164" transform="translate(116.727,459.036) rotate(180)">
			<title>Sheet.4994</title>
			<path d="M0 262.69 L15.87 262.69" class="st1"/>
		</g>
		<g id="shape4995-167" transform="translate(116.868,467.257) rotate(180)">
			<title>Sheet.4995</title>
			<path d="M0 262.69 L15.87 262.69" class="st1"/>
		</g>
		<g id="shape4996-170" transform="translate(102.967,-56.1463)">
			<title>Rectangle.4996</title>
			<rect x="0" y="249.654" width="7.93702" height="13.0394" class="st12"/>
		</g>
		<g id="shape4997-172" transform="translate(369.891,199.807) rotate(90)">
			<title>Sheet.4997</title>
			<path d="M0 262.69 L3.91 262.69" class="st13"/>
		</g>
		<g id="shape4998-175" transform="translate(109.203,461.617) rotate(180)">
			<title>Sheet.4998</title>
			<path d="M0 262.69 L4.01 262.69" class="st13"/>
		</g>
		<g id="shape4999-178" transform="translate(109.203,462.501) rotate(180)">
			<title>Sheet.4999</title>
			<path d="M0 262.69 L4.01 262.69" class="st13"/>
		</g>
		<g id="shape5000-181" transform="translate(369.88,195.017) rotate(90)">
			<title>Sheet.5000</title>
			<path d="M0 262.69 L3.91 262.69" class="st13"/>
		</g>
		<g id="shape5002-184" transform="translate(78.4206,459.178) rotate(180)">
			<title>Sheet.5002</title>
			<path d="M0 262.69 L6.07 262.69" class="st1"/>
		</g>
		<g id="shape5003-187" transform="translate(78.4206,466.832) rotate(180)">
			<title>Sheet.5003</title>
			<path d="M0 262.69 L6.07 262.69" class="st1"/>
		</g>
		<g id="shape5004-190" transform="translate(71.3662,-45.0729)">
			<title>Rectangle.5004</title>
			<rect x="0" y="227.73" width="47.0551" height="34.9633" class="st14"/>
		</g>
		<g id="shape5005-192" transform="translate(57.6888,-68.7604)">
			<title>Sheet.5005</title>
			<path d="M0 262.69 L13.04 262.69" class="st1"/>
		</g>
		<g id="shape5006-195" transform="translate(56.6955,-57.3707) rotate(-0.216636)">
			<title>Sheet.5006</title>
			<path d="M0 262.69 L13.04 262.69" class="st1"/>
		</g>
		<g id="shape5007-198" transform="translate(41.0985,-30.7678)">
			<title>Rectangle.5007</title>
			<desc>Coupled Coils Compensations</desc>
			<rect x="0" y="251.602" width="105.449" height="11.0916" class="st3"/>
			<text x="35.47" y="255.35" class="st4">Coupled Coils <tspan x="34.22" dy="1.2em" class="st5">Compensations</tspan></text>		</g>
		<g id="shape5008-202" transform="translate(-100.522,187.846) rotate(-90)">
			<title>Rectangle.5008</title>
			<rect x="0" y="227.73" width="18.0075" height="34.9633" class="st15"/>
		</g>
		<g id="shape5012-204" transform="translate(115.876,-68.1007) rotate(-0.647982)">
			<title>Sheet.5012</title>
			<path d="M0 262.69 L11.2 262.69" class="st1"/>
		</g>
		<g id="shape5013-207" transform="translate(118.705,-51.7526)">
			<title>Sheet.5013</title>
			<path d="M0 262.69 L41.1 262.69" class="st1"/>
		</g>
		<g id="group5014-210" transform="translate(155.557,438.82) rotate(180)">
			<title>Diode.5014</title>
			<g id="shape5015-211" transform="translate(-1.51879E-13,8.15011)">
				<title>Sheet.5015</title>
			</g>
			<g id="shape5016-213" transform="translate(8.15011,5.68434E-14)">
				<title>Sheet.5016</title>
				<path d="M0 262.69 L5.43 259.98 L0 257.26 L0 262.69 Z" class="st8"/>
				<path d="M5.43 257.26 L5.43 262.69" class="st16"/>
				<path d="M0 262.69 L5.43 259.98 L0 257.26 L0 262.69" class="st16"/>
			</g>
			<g id="shape5017-217" transform="translate(0,-2.7167)">
				<title>Sheet.5017</title>
				<path d="M0 262.69 L21.73 262.69" class="st17"/>
			</g>
		</g>
		<g id="shape5018-220" transform="translate(392.737,188.269) rotate(90)">
			<title>Sheet.5018</title>
			<path d="M0 262.69 L6.18 262.69" class="st1"/>
		</g>
		<g id="shape5019-223" transform="translate(422.501,187.846) rotate(90)">
			<title>Sheet.5019</title>
			<path d="M0 262.69 L23.09 262.69" class="st1"/>
		</g>
		<g id="shape5020-226" transform="translate(395.937,156.721) rotate(89.4735)">
			<title>Sheet.5020</title>
			<path d="M0 262.69 L10.7 262.69" class="st1"/>
		</g>
		<g id="shape5021-229" transform="translate(417.862,157.392) rotate(89.4708)">
			<title>Sheet.5021</title>
			<path d="M0 262.69 L10.02 262.69" class="st1"/>
		</g>
		<g id="shape5022-232" transform="translate(125.967,-61.9489)">
			<title>Rectangle.5022</title>
			<desc>Rectifiers (AC/DC)</desc>
			<rect x="0" y="251.602" width="34.9633" height="11.0916" class="st3"/>
			<text x="5.82" y="255.35" class="st4">Rectifiers <tspan x="6.32" dy="1.2em" class="st5">(AC/DC)</tspan></text>		</g>
		<g id="shape5024-236" transform="translate(-100.522,157.676) rotate(-90)">
			<title>Rectangle.5024</title>
			<rect x="0" y="227.73" width="15.1729" height="34.9633" class="st18"/>
		</g>
		<g id="shape5025-238" transform="translate(76.4686,-53.2859)">
			<title>Rectangle.5025</title>
			<rect x="0" y="244.686" width="18.1417" height="18.0075" class="st19"/>
		</g>
		<g id="shape5026-240" transform="translate(95.1771,-53.237)">
			<title>Rectangle.5026</title>
			<rect x="0" y="244.686" width="18.9922" height="18.0075" class="st20"/>
		</g>
		<g id="shape5027-242" transform="translate(33.0985,-69.4145)">
			<title>Rectangle.5027</title>
			<desc>Tx</desc>
			<rect x="0" y="251.602" width="105.449" height="11.0916" class="st3"/>
			<text x="49.39" y="258.95" class="st4">Tx</text>		</g>
		<g id="shape5028-245" transform="translate(53.7914,-69.4145)">
			<title>Rectangle.5028</title>
			<desc>Rx</desc>
			<rect x="0" y="251.602" width="105.449" height="11.0916" class="st3"/>
			<text x="49.22" y="258.95" class="st4">Rx</text>		</g>
		<g id="group5029-248" transform="translate(34.7388,-177.925)">
			<title>Sheet.5029</title>
			<g id="shape5030-249" transform="translate(2.40914,-0.00265776)">
				<title>Sheet.5030</title>
				<rect x="0" y="231.865" width="5.12588" height="30.8287" class="st21"/>
			</g>
			<g id="shape5031-251" transform="translate(1.4988E-15,-0.00265776)">
				<title>Sheet.5031</title>
				<ellipse cx="2.29416" cy="247.279" rx="2.29416" ry="15.4143" class="st21"/>
			</g>
			<g id="shape5032-253" transform="translate(7.23665,-30.8304) rotate(0.153294)">
				<title>Sheet.5032</title>
				<path d="M0 262.69 L0.99 262.69" class="st22"/>
			</g>
			<g id="shape5033-256" transform="translate(7.21876,-0.00171755) rotate(0.153294)">
				<title>Sheet.5033</title>
				<path d="M0 262.69 L0.99 262.69" class="st22"/>
			</g>
			<g id="shape5034-259" transform="translate(5.2826,-0.00265776)">
				<title>Sheet.5034</title>
				<ellipse cx="2.29416" cy="247.279" rx="2.29416" ry="15.4143" class="st21"/>
			</g>
			<g id="shape5035-261" transform="translate(4.97208,-0.00265776)">
				<title>Sheet.5035</title>
				<rect x="0" y="231.865" width="2.56294" height="30.8287" class="st23"/>
			</g>
			<g id="shape5036-263" transform="translate(3.1851,-30.8328) rotate(0.0276576)">
				<title>Sheet.5036</title>
				<path d="M0 262.69 L4.5 262.69" class="st22"/>
			</g>
			<g id="shape5037-266" transform="translate(3.24058,-0.00262716) rotate(0.0276576)">
				<title>Sheet.5037</title>
				<path d="M0 262.69 L4.5 262.69" class="st22"/>
			</g>
		</g>
		<g id="group5038-269" transform="translate(29.8033,-177.925)">
			<title>Sheet.5038</title>
			<g id="shape5039-270" transform="translate(2.40914,-0.00265776)">
				<title>Sheet.5039</title>
				<rect x="0" y="231.865" width="5.12588" height="30.8287" class="st24"/>
			</g>
			<g id="shape5040-272" transform="translate(1.4988E-15,-0.00265776)">
				<title>Sheet.5040</title>
				<ellipse cx="2.29416" cy="247.279" rx="2.29416" ry="15.4143" class="st24"/>
			</g>
			<g id="shape5041-274" transform="translate(7.23665,-30.8304) rotate(0.153294)">
				<title>Sheet.5041</title>
				<path d="M0 262.69 L0.99 262.69" class="st22"/>
			</g>
			<g id="shape5042-277" transform="translate(7.21876,-0.00171755) rotate(0.153294)">
				<title>Sheet.5042</title>
				<path d="M0 262.69 L0.99 262.69" class="st22"/>
			</g>
			<g id="shape5043-280" transform="translate(5.2826,-0.00265776)">
				<title>Sheet.5043</title>
				<ellipse cx="2.29416" cy="247.279" rx="2.29416" ry="15.4143" class="st24"/>
			</g>
			<g id="shape5044-282" transform="translate(4.97208,-0.00265776)">
				<title>Sheet.5044</title>
				<rect x="0" y="231.865" width="2.56294" height="30.8287" class="st25"/>
			</g>
			<g id="shape5045-284" transform="translate(3.1851,-30.8328) rotate(0.0276576)">
				<title>Sheet.5045</title>
				<path d="M0 262.69 L4.5 262.69" class="st22"/>
			</g>
			<g id="shape5046-287" transform="translate(3.24058,-0.00262716) rotate(0.0276576)">
				<title>Sheet.5046</title>
				<path d="M0 262.69 L4.5 262.69" class="st22"/>
			</g>
		</g>
		<g id="shape5047-290" transform="translate(63.4847,-203.741)">
			<title>Sheet.5047</title>
			<path d="M0 262.69 L7.74 262.69" class="st26"/>
		</g>
		<g id="shape5048-293" transform="translate(333.916,58.9696) rotate(90)">
			<title>Sheet.5048</title>
			<path d="M0 262.69 L7.55 262.69" class="st26"/>
		</g>
		<g id="shape5049-296" transform="translate(62.216,-205.774) rotate(-0.203094)">
			<title>Sheet.5049</title>
			<path d="M0 262.69 L10.91 262.69" class="st26"/>
		</g>
		<g id="shape5050-299" transform="translate(336.711,61.7526) rotate(90.9929)">
			<title>Sheet.5050</title>
			<path d="M0 262.69 L8.85 262.69" class="st26"/>
		</g>
		<g id="shape5051-302" transform="translate(137.836,348.014) rotate(180)">
			<title>Sheet.5051</title>
			<path d="M0 262.69 L18.43 262.69" class="st27"/>
		</g>
		<g id="shape5052-305" transform="translate(142.655,343.951) rotate(180)">
			<title>Sheet.5052</title>
			<path d="M0 262.69 L21.83 262.69" class="st27"/>
		</g>
		<g id="shape5053-308" transform="translate(147.474,339.983) rotate(180)">
			<title>Sheet.5053</title>
			<path d="M0 262.69 L26.65 262.69" class="st27"/>
		</g>
		<g id="shape5054-311" transform="translate(-115.22,93.4463) rotate(-90)">
			<title>Sheet.5054</title>
			<path d="M0 262.69 L16.16 262.69" class="st27"/>
		</g>
		<g id="shape5055-314" transform="translate(-124.857,93.4463) rotate(-90)">
			<title>Sheet.5055</title>
			<path d="M0 262.69 L7.68 262.69" class="st27"/>
		</g>
		<g id="shape5056-317" transform="translate(28.6169,-156.492)">
			<title>Rectangle.3807</title>
			<rect x="0" y="257.271" width="17.0936" height="5.42226" class="st28"/>
		</g>
		<g id="shape5057-319" transform="translate(297.632,84.8349) rotate(90)">
			<title>Sheet.5057</title>
			<path d="M0 262.69 L15.69 262.69" class="st29"/>
		</g>
		<g id="shape5058-322" transform="translate(299.9,84.8382) rotate(90)">
			<title>Sheet.5058</title>
			<path d="M0 262.69 L15.69 262.69" class="st29"/>
		</g>
		<g id="shape5059-325" transform="translate(302.168,84.8347) rotate(90)">
			<title>Sheet.5059</title>
			<path d="M0 262.69 L15.69 262.69" class="st29"/>
		</g>
		<g id="shape5060-328" transform="translate(304.83,84.7184) rotate(90)">
			<title>Sheet.5060</title>
			<path d="M0 262.69 L15.69 262.69" class="st29"/>
		</g>
		<g id="shape5061-331" transform="translate(294.996,84.8328) rotate(90)">
			<title>Sheet.5061</title>
			<path d="M0 262.69 L15.69 262.69" class="st29"/>
		</g>
		<g id="shape5062-334" transform="translate(76.2389,-156.492)">
			<title>Rectangle.4175</title>
			<rect x="0" y="257.271" width="42.0385" height="5.42226" class="st28"/>
		</g>
		<g id="shape5063-336" transform="translate(345.254,96.105) rotate(90)">
			<title>Sheet.5063</title>
			<path d="M0 262.69 L6.47 262.69" class="st29"/>
		</g>
		<g id="shape5064-339" transform="translate(347.522,96.1064) rotate(90)">
			<title>Sheet.5064</title>
			<path d="M0 262.69 L6.47 262.69" class="st29"/>
		</g>
		<g id="shape5065-342" transform="translate(349.79,96.105) rotate(90)">
			<title>Sheet.5065</title>
			<path d="M0 262.69 L6.47 262.69" class="st29"/>
		</g>
		<g id="shape5066-345" transform="translate(352.452,96.057) rotate(90)">
			<title>Sheet.5066</title>
			<path d="M0 262.69 L6.47 262.69" class="st29"/>
		</g>
		<g id="shape5067-348" transform="translate(342.618,96.1042) rotate(90)">
			<title>Sheet.5067</title>
			<path d="M0 262.69 L6.47 262.69" class="st29"/>
		</g>
		<g id="shape5068-351" transform="translate(357.714,96.0455) rotate(90)">
			<title>Sheet.5068</title>
			<path d="M0 262.69 L6.47 262.69" class="st29"/>
		</g>
		<g id="shape5069-354" transform="translate(359.982,96.0469) rotate(90)">
			<title>Sheet.5069</title>
			<path d="M0 262.69 L6.47 262.69" class="st29"/>
		</g>
		<g id="shape5070-357" transform="translate(362.25,96.0455) rotate(90)">
			<title>Sheet.5070</title>
			<path d="M0 262.69 L6.47 262.69" class="st29"/>
		</g>
		<g id="shape5071-360" transform="translate(364.911,95.9975) rotate(90)">
			<title>Sheet.5071</title>
			<path d="M0 262.69 L6.47 262.69" class="st29"/>
		</g>
		<g id="shape5072-363" transform="translate(355.078,96.0447) rotate(90)">
			<title>Sheet.5072</title>
			<path d="M0 262.69 L6.47 262.69" class="st29"/>
		</g>
		<g id="shape5073-366" transform="translate(370.001,96.186) rotate(90)">
			<title>Sheet.5073</title>
			<path d="M0 262.69 L6.47 262.69" class="st29"/>
		</g>
		<g id="shape5074-369" transform="translate(372.269,96.1874) rotate(90)">
			<title>Sheet.5074</title>
			<path d="M0 262.69 L6.47 262.69" class="st29"/>
		</g>
		<g id="shape5075-372" transform="translate(374.536,96.186) rotate(90)">
			<title>Sheet.5075</title>
			<path d="M0 262.69 L6.47 262.69" class="st29"/>
		</g>
		<g id="shape5076-375" transform="translate(377.198,96.138) rotate(90)">
			<title>Sheet.5076</title>
			<path d="M0 262.69 L6.47 262.69" class="st29"/>
		</g>
		<g id="shape5077-378" transform="translate(367.365,96.1852) rotate(90)">
			<title>Sheet.5077</title>
			<path d="M0 262.69 L6.47 262.69" class="st29"/>
		</g>
		<g id="shape5078-381" transform="translate(134.86,-157.088)">
			<title>Rectangle.4191</title>
			<rect x="0" y="257.271" width="17.0936" height="5.42226" class="st28"/>
		</g>
		<g id="shape5079-383" transform="translate(403.876,95.5083) rotate(90)">
			<title>Sheet.5079</title>
			<path d="M0 262.69 L6.47 262.69" class="st29"/>
		</g>
		<g id="shape5080-386" transform="translate(406.143,93.4463) rotate(90)">
			<title>Sheet.5080</title>
			<path d="M0 262.69 L8.54 262.69" class="st29"/>
		</g>
		<g id="shape5081-389" transform="translate(408.411,95.5083) rotate(90)">
			<title>Sheet.5081</title>
			<path d="M0 262.69 L6.47 262.69" class="st29"/>
		</g>
		<g id="shape5082-392" transform="translate(411.073,95.4603) rotate(90)">
			<title>Sheet.5082</title>
			<path d="M0 262.69 L6.47 262.69" class="st29"/>
		</g>
		<g id="shape5083-395" transform="translate(401.239,95.5075) rotate(90)">
			<title>Sheet.5083</title>
			<path d="M0 262.69 L6.47 262.69" class="st29"/>
		</g>
		<g id="shape5084-398" transform="translate(-120.038,93.4463) rotate(-90)">
			<title>Sheet.5084</title>
			<path d="M0 262.69 L12.19 262.69" class="st27"/>
		</g>
		<g id="group5085-401" transform="translate(54.2144,-167.144)">
			<title>Sheet.5085</title>
			<g id="shape5086-402" transform="translate(24.8941,-0.00448839)">
				<title>Sheet.5086</title>
				<rect x="0" y="210.631" width="37.437" height="52.063" class="st30"/>
			</g>
			<g id="shape5087-404" transform="translate(22.2626,-0.332984)">
				<title>Sheet.5087</title>
				<ellipse cx="2.66365" cy="236.662" rx="2.66365" ry="26.0315" class="st30"/>
			</g>
			<g id="shape5088-406" transform="translate(56.79,-0.00448839)">
				<title>Sheet.5088</title>
				<ellipse cx="5.58761" cy="236.662" rx="5.58761" ry="26.0315" class="st30"/>
			</g>
			<g id="shape5089-408" transform="translate(0.73417,-22.9156)">
				<title>Sheet.5089</title>
				<rect x="0" y="256.103" width="23.0536" height="6.59107" class="st30"/>
			</g>
			<g id="shape5090-410" transform="translate(-4.3715E-15,-22.9156)">
				<title>Sheet.5090</title>
				<ellipse cx="0.787662" cy="259.398" rx="0.787662" ry="3.29554" class="st30"/>
			</g>
			<g id="shape5091-412" transform="translate(23.0303,-22.9156)">
				<title>Sheet.5091</title>
				<ellipse cx="1.01804" cy="259.398" rx="1.01804" ry="3.29554" class="st30"/>
			</g>
			<g id="shape5092-414" transform="translate(21.7517,-22.9156)">
				<title>Sheet.5092</title>
				<rect x="0" y="256.103" width="2.30532" height="6.59107" class="st31"/>
			</g>
			<g id="shape5093-416" transform="translate(55.0913,-0.00448839)">
				<title>Sheet.5093</title>
				<rect x="0" y="210.631" width="6.98592" height="52.063" class="st31"/>
			</g>
			<g id="shape5094-418" transform="translate(55.1813,-52.0674) rotate(0.0354461)">
				<title>Sheet.5094</title>
				<path d="M0 262.69 L7.26 262.69" class="st22"/>
			</g>
			<g id="shape5095-421" transform="translate(55.0506,-0.00443812) rotate(0.0354461)">
				<title>Sheet.5095</title>
				<path d="M0 262.69 L7.26 262.69" class="st22"/>
			</g>
			<g id="shape5096-424" transform="translate(16.9672,-29.5067) rotate(0.0354461)">
				<title>Sheet.5096</title>
				<path d="M0 262.69 L7.26 262.69" class="st22"/>
			</g>
			<g id="shape5097-427" transform="translate(16.2427,-22.9153) rotate(-0.0936081)">
				<title>Sheet.5097</title>
				<path d="M0 262.69 L7.46 262.69" class="st22"/>
			</g>
		</g>
		<g id="group5098-430" transform="translate(54.2144,-177.925)">
			<title>Sheet.5098</title>
			<g id="shape5099-431" transform="translate(2.40914,-0.00265776)">
				<title>Sheet.5099</title>
				<rect x="0" y="231.865" width="5.12588" height="30.8287" class="st32"/>
			</g>
			<g id="shape5100-433" transform="translate(1.4988E-15,-0.00265776)">
				<title>Sheet.5100</title>
				<ellipse cx="2.29416" cy="247.279" rx="2.29416" ry="15.4143" class="st32"/>
			</g>
			<g id="shape5101-435" transform="translate(7.23665,-30.8304) rotate(0.153294)">
				<title>Sheet.5101</title>
				<path d="M0 262.69 L0.99 262.69" class="st22"/>
			</g>
			<g id="shape5102-438" transform="translate(7.21876,-0.00171755) rotate(0.153294)">
				<title>Sheet.5102</title>
				<path d="M0 262.69 L0.99 262.69" class="st22"/>
			</g>
			<g id="shape5103-441" transform="translate(5.2826,-0.00265776)">
				<title>Sheet.5103</title>
				<ellipse cx="2.29416" cy="247.279" rx="2.29416" ry="15.4143" class="st32"/>
			</g>
			<g id="shape5104-443" transform="translate(4.97208,-0.00265776)">
				<title>Sheet.5104</title>
				<rect x="0" y="231.865" width="2.56294" height="30.8287" class="st33"/>
			</g>
			<g id="shape5105-445" transform="translate(3.1851,-30.8328) rotate(0.0276576)">
				<title>Sheet.5105</title>
				<path d="M0 262.69 L4.5 262.69" class="st22"/>
			</g>
			<g id="shape5106-448" transform="translate(3.24058,-0.00262716) rotate(0.0276576)">
				<title>Sheet.5106</title>
				<path d="M0 262.69 L4.5 262.69" class="st22"/>
			</g>
		</g>
		<g id="group5107-451" transform="translate(49.2789,-177.925)">
			<title>Sheet.5107</title>
			<g id="shape5108-452" transform="translate(2.40914,-0.00265776)">
				<title>Sheet.5108</title>
				<rect x="0" y="231.865" width="5.12588" height="30.8287" class="st34"/>
			</g>
			<g id="shape5109-454" transform="translate(1.4988E-15,-0.00265776)">
				<title>Sheet.5109</title>
				<ellipse cx="2.29416" cy="247.279" rx="2.29416" ry="15.4143" class="st34"/>
			</g>
			<g id="shape5110-456" transform="translate(7.23665,-30.8304) rotate(0.153294)">
				<title>Sheet.5110</title>
				<path d="M0 262.69 L0.99 262.69" class="st22"/>
			</g>
			<g id="shape5111-459" transform="translate(7.21876,-0.00171755) rotate(0.153294)">
				<title>Sheet.5111</title>
				<path d="M0 262.69 L0.99 262.69" class="st22"/>
			</g>
			<g id="shape5112-462" transform="translate(5.2826,-0.00265776)">
				<title>Sheet.5112</title>
				<ellipse cx="2.29416" cy="247.279" rx="2.29416" ry="15.4143" class="st34"/>
			</g>
			<g id="shape5113-464" transform="translate(4.97208,-0.00265776)">
				<title>Sheet.5113</title>
				<rect x="0" y="231.865" width="2.56294" height="30.8287" class="st35"/>
			</g>
			<g id="shape5114-466" transform="translate(3.1851,-30.8328) rotate(0.0276576)">
				<title>Sheet.5114</title>
				<path d="M0 262.69 L4.5 262.69" class="st22"/>
			</g>
			<g id="shape5115-469" transform="translate(3.24058,-0.00262716) rotate(0.0276576)">
				<title>Sheet.5115</title>
				<path d="M0 262.69 L4.5 262.69" class="st22"/>
			</g>
		</g>
		<g id="shape5116-472" transform="translate(-224.719,44.9739) rotate(-90)">
			<title>Rectangle.4245</title>
			<desc>DC/AC</desc>
			<rect x="0" y="254.555" width="26.7239" height="8.13851" class="st25"/>
			<text x="4.19" y="260.42" class="st4">DC/AC</text>		</g>
		<g id="shape5117-475" transform="translate(-217.013,44.9739) rotate(-90)">
			<title>Rectangle.4246</title>
			<desc>Txs</desc>
			<rect x="0" y="254.555" width="26.7239" height="8.13851" class="st36"/>
			<text x="8.86" y="260.42" class="st4">Txs</text>		</g>
		<g id="shape5118-478" transform="translate(-205.085,45.1302) rotate(-90)">
			<title>Rectangle.4247</title>
			<desc>Rxs</desc>
			<rect x="0" y="254.555" width="26.7239" height="8.13851" class="st35"/>
			<text x="8.69" y="260.42" class="st4">Rxs</text>		</g>
		<g id="shape5119-481" transform="translate(-197.51,45.1302) rotate(-90)">
			<title>Rectangle.4248</title>
			<desc>AC/DC</desc>
			<rect x="0" y="254.555" width="26.7239" height="8.13851" class="st33"/>
			<text x="4.19" y="260.42" class="st4">AC/DC</text>		</g>
		<g id="shape5120-484" transform="translate(-202.964,52.9109) rotate(-90)">
			<title>Sheet.5120</title>
			<path d="M0 262.69 L7.37 262.69" class="st37"/>
		</g>
		<g id="shape5121-490" transform="translate(-208.174,52.9109) rotate(-90)">
			<title>Sheet.5121</title>
			<path d="M0 262.69 L7.37 262.69" class="st37"/>
		</g>
		<g id="shape5122-495" transform="translate(-222.653,53.1943) rotate(-90)">
			<title>Sheet.5122</title>
			<path d="M0 262.69 L7.37 262.69" class="st37"/>
		</g>
		<g id="shape5123-500" transform="translate(-227.863,53.1943) rotate(-90)">
			<title>Sheet.5123</title>
			<path d="M0 262.69 L7.37 262.69" class="st37"/>
		</g>
		<g id="shape5124-505" transform="translate(-190.054,54.8479) rotate(-90)">
			<title>Sheet.5124</title>
			<path d="M0 262.69 L19.51 262.69" class="st37"/>
		</g>
		<g id="shape5125-510" transform="translate(58.3285,-227.436)">
			<title>Rectangle.4259</title>
			<desc>Field</desc>
			<rect x="0" y="261.689" width="32.4713" height="1.00466" class="st3"/>
			<text x="10.07" y="260.39" class="st4">Field </text>		</g>
		<g id="shape5126-513" transform="translate(126.42,-165.178)">
			<title>Rectangle.4261</title>
			<desc>DC/AC</desc>
			<rect x="0" y="254.555" width="32.4713" height="8.13851" class="st39"/>
			<text x="7.07" y="260.42" class="st4">DC/AC</text>		</g>
		<g id="shape5127-516" transform="translate(-122.452,74.9429) rotate(-90)">
			<title>Sheet.5127</title>
			<path d="M0 262.69 L8.58 262.69" class="st37"/>
		</g>
		<g id="shape5128-521" transform="translate(123.234,-200.004)">
			<title>Rectangle.4263</title>
			<desc>Armature</desc>
			<rect x="0" y="261.689" width="42.0385" height="1.00466" class="st3"/>
			<text x="9.52" y="263.99" class="st4">Armature</text>		</g>
		<g id="shape5129-524" transform="translate(83.333,-192.84)">
			<title>Rectangle.4264</title>
			<desc>WFSM</desc>
			<rect x="0" y="261.689" width="32.4713" height="1.00466" class="st3"/>
			<text x="7.4" y="263.99" class="st4">WFSM</text>		</g>
		<g id="shape5130-527" transform="translate(54.2144,-175.167)">
			<title>Rectangle.4267</title>
			<desc>Shaft</desc>
			<rect x="0" y="226.343" width="32.4713" height="36.3506" class="st3"/>
			<text x="9.9" y="246.32" class="st4">Shaft</text>		</g>
		<g id="shape5131-530" transform="translate(76.2389,-148.523)">
			<title>Rectangle.5131</title>
			<desc>(a)</desc>
			<rect x="0" y="261.689" width="42.0385" height="1.00466" class="st3"/>
			<text x="16.58" y="264.59" class="st40">(a)</text>		</g>
		<g id="shape5132-533" transform="translate(78.7603,-22.2976)">
			<title>Rectangle.5132</title>
			<desc>(b)</desc>
			<rect x="0" y="261.689" width="42.0385" height="1.00466" class="st3"/>
			<text x="16.36" y="264.59" class="st40">(b)</text>		</g>
	</g>
</svg>
