<svg version="1.1" width="601.878" height="487.016" xmlns="http://www.w3.org/2000/svg" xmlns:xlink="http://www.w3.org/1999/xlink" id="svg13961" overflow="hidden"><defs id="defs13965"></defs><g id="g13967" transform="matrix(3.77953,0,0,3.77953,-84.2854,-212.896)"><g id="g13959"><path d=" M 23.8905 100.799 L 171.521 100.799" id="path1088" stroke="#262626" stroke-width="0.142116" stroke-linecap="butt" stroke-linejoin="round" stroke-miterlimit="4" stroke-dasharray="" stroke-opacity="1" fill="none"/><path d=" M 23.8905 72.4878 L 23.8905 72.4878 L 24.2131 72.4878 L 24.5357 72.4878 L 24.8584 72.4878 L 25.181 72.4878 L 25.5036 72.4878 L 25.8262 72.4878 L 26.1488 72.4878 L 26.4715 72.4878 L 26.7941 72.4878 L 27.1167 72.4878 L 27.4393 72.4878 L 27.7619 72.4878 L 28.063 72.4878 L 28.3857 72.4878 L 28.7083 72.4878 L 29.0309 72.4878 L 29.3535 72.4878 L 29.6761 72.4878 L 29.9988 72.4878 L 30.3214 72.4878 L 30.644 72.4878 L 30.9666 72.4878 L 31.2892 72.4878 L 31.6118 72.4878 L 31.9345 72.4878 L 32.2356 72.4878 L 32.5582 72.4878 L 32.8808 72.4878 L 33.2034 72.4878 L 33.5261 72.4878 L 33.8487 72.4878 L 34.1713 72.4878 L 34.4939 72.4878 L 34.8165 72.4878 L 35.1391 72.4878 L 35.4618 72.4878 L 35.7844 72.4878 L 36.107 72.4878 L 36.4081 72.4878 L 36.7307 72.4878 L 37.0533 72.4878 L 37.376 72.4878 L 37.6986 72.4878 L 38.0212 72.4878 L 38.3438 72.4878 L 38.6664 72.4878 L 38.9891 72.4878 L 39.3117 72.4878 L 39.6343 72.4878 L 39.9569 72.4878 L 40.258 72.4878 L 40.5806 72.4878 L 40.9033 72.4878 L 41.2259 72.4878 L 41.5485 72.4878 L 41.8711 72.4878 L 42.1937 72.4878 L 42.5164 72.4878 L 42.839 72.4878 L 43.1616 72.4878 L 43.4842 72.4878 L 43.8068 72.4878 L 44.1294 72.4878 L 44.4306 72.4878 L 44.7532 72.4878 L 45.0758 72.4878 L 45.3984 72.4878 L 45.721 72.4878 L 46.0437 72.4878 L 46.3663 72.4878 L 46.6889 72.4878 L 47.0115 72.4878 L 47.3341 72.4878 L 47.6567 72.4878 L 47.9794 72.4878 L 48.302 72.4878 L 48.6031 72.4878 L 48.9257 72.4878 L 49.2483 72.4878 L 49.5709 72.4878 L 49.8936 72.4878 L 50.2162 72.4878 L 50.5388 72.4878 L 50.8614 72.4878 L 51.184 72.4878 L 51.5067 72.4878 L 51.8293 100.799 L 52.1519 100.799 L 52.4745 100.799 L 52.7756 100.799 L 53.0982 100.799 L 53.4209 100.799 L 53.7435 100.799 L 54.0661 100.799 L 54.3887 100.799 L 54.7113 100.799 L 55.034 100.799 L 55.3566 100.799 L 55.6792 100.799 L 56.0018 100.799 L 56.3244 100.799 L 56.6255 100.799 L 56.9482 100.799 L 57.2708 100.799 L 57.5934 100.799 L 57.916 100.799 L 58.2386 100.799 L 58.5612 100.799 L 58.8839 100.799 L 59.2065 100.799 L 59.5291 100.799 L 59.8517 100.799 L 60.1743 100.799 L 60.497 100.799 L 60.7981 100.799 L 61.1207 100.799 L 61.4433 100.799 L 61.7659 100.799 L 62.0885 100.799 L 62.4112 100.799 L 62.7338 72.4878 L 63.0564 72.4878 L 63.379 72.4878 L 63.7016 72.4878 L 64.0243 72.4878 L 64.3469 72.4878 L 64.6695 72.4878 L 64.9706 72.4878 L 65.2932 72.4878 L 65.6158 72.4878 L 65.9385 72.4878 L 66.2611 72.4878 L 66.5837 72.4878 L 66.9063 72.4878 L 67.2289 72.4878 L 67.5516 72.4878 L 67.8742 72.4878 L 68.1968 72.4878 L 68.5194 72.4878 L 68.842 72.4878 L 69.1431 72.4878 L 69.4658 72.4878 L 69.7884 72.4878 L 70.111 72.4878 L 70.4336 72.4878 L 70.7562 72.4878 L 71.0788 72.4878 L 71.4015 72.4878 L 71.7241 72.4878 L 72.0467 72.4878 L 72.3693 72.4878 L 72.6919 72.4878 L 73.0146 72.4878 L 73.3157 72.4878 L 73.6383 72.4878 L 73.9609 72.4878 L 74.2835 72.4878 L 74.6061 72.4878 L 74.9288 72.4878 L 75.2514 72.4878 L 75.574 72.4878 L 75.8966 72.4878 L 76.2192 72.4878 L 76.5419 72.4878 L 76.8645 72.4878 L 77.1656 72.4878 L 77.4882 72.4878 L 77.8108 72.4878 L 78.1334 72.4878 L 78.4561 72.4878 L 78.7787 72.4878 L 79.1013 72.4878 L 79.4239 72.4878 L 79.7465 72.4878 L 80.0692 72.4878 L 80.3918 72.4878 L 80.7144 72.4878 L 81.037 72.4878 L 81.3381 72.4878 L 81.6607 72.4878 L 81.9834 72.4878 L 82.306 72.4878 L 82.6286 72.4878 L 82.9512 72.4878 L 83.2738 72.4878 L 83.5965 72.4878 L 83.9191 72.4878 L 84.2417 72.4878 L 84.5643 72.4878 L 84.8869 72.4878 L 85.2095 72.4878 L 85.5107 72.4878 L 85.8333 72.4878 L 86.1559 72.4878 L 86.4785 72.4878 L 86.8011 72.4878 L 87.1237 72.4878 L 87.4464 72.4878 L 87.769 72.4878 L 88.0916 72.4878 L 88.4142 72.4878 L 88.7368 72.4878 L 89.0594 72.4878 L 89.3821 72.4878 L 89.6832 72.4878 L 90.0058 72.4878 L 90.3284 72.4878 L 90.651 72.4878 L 90.9736 72.4878 L 91.2963 72.4878 L 91.6189 72.4878 L 91.9415 100.799 L 92.2641 100.799 L 92.5868 100.799 L 92.9094 100.799 L 93.232 100.799 L 93.5546 100.799 L 93.8557 100.799 L 94.1783 100.799 L 94.501 100.799 L 94.8236 100.799 L 95.1462 100.799 L 95.4688 100.799 L 95.7914 100.799 L 96.114 100.799 L 96.4367 100.799 L 96.7593 100.799 L 97.0819 100.799 L 97.4045 100.799 L 97.7056 100.799 L 98.0283 100.799 L 98.3509 100.799 L 98.6735 100.799 L 98.9961 100.799 L 99.3187 100.799 L 99.6413 100.799 L 99.964 100.799 L 100.287 100.799 L 100.609 100.799 L 100.932 100.799 L 101.254 100.799 L 101.577 100.799 L 101.878 100.799 L 102.201 100.799 L 102.523 100.799 L 102.846 72.4878 L 103.169 72.4878 L 103.491 72.4878 L 103.814 72.4878 L 104.136 72.4878 L 104.459 72.4878 L 104.782 72.4878 L 105.104 72.4878 L 105.427 72.4878 L 105.75 72.4878 L 106.051 72.4878 L 106.373 72.4878 L 106.696 72.4878 L 107.019 72.4878 L 107.341 72.4878 L 107.664 72.4878 L 107.986 72.4878 L 108.309 72.4878 L 108.632 72.4878 L 108.954 72.4878 L 109.277 72.4878 L 109.6 72.4878 L 109.922 72.4878 L 110.223 72.4878 L 110.546 72.4878 L 110.868 72.4878 L 111.191 72.4878 L 111.514 72.4878 L 111.836 72.4878 L 112.159 72.4878 L 112.482 72.4878 L 112.804 72.4878 L 113.127 72.4878 L 113.449 72.4878 L 113.772 72.4878 L 114.073 72.4878 L 114.396 72.4878 L 114.718 72.4878 L 115.041 72.4878 L 115.364 72.4878 L 115.686 72.4878 L 116.009 72.4878 L 116.331 72.4878 L 116.654 72.4878 L 116.977 72.4878 L 117.299 72.4878 L 117.622 72.4878 L 117.945 72.4878 L 118.246 72.4878 L 118.568 72.4878 L 118.891 72.4878 L 119.214 72.4878 L 119.536 72.4878 L 119.859 72.4878 L 120.181 72.4878 L 120.504 72.4878 L 120.827 72.4878 L 121.149 72.4878 L 121.472 72.4878 L 121.794 72.4878 L 122.117 72.4878 L 122.418 72.4878 L 122.741 72.4878 L 123.063 72.4878 L 123.386 72.4878 L 123.709 72.4878 L 124.031 72.4878 L 124.354 72.4878 L 124.677 72.4878 L 124.999 72.4878 L 125.322 72.4878 L 125.644 72.4878 L 125.967 72.4878 L 126.29 72.4878 L 126.591 72.4878 L 126.913 72.4878 L 127.236 72.4878 L 127.559 72.4878 L 127.881 72.4878 L 128.204 72.4878 L 128.526 72.4878 L 128.849 72.4878 L 129.172 72.4878 L 129.494 72.4878 L 129.817 72.4878 L 130.14 72.4878 L 130.462 72.4878 L 130.763 72.4878 L 131.086 72.4878 L 131.408 72.4878 L 131.731 72.4878 L 132.054 100.799 L 132.376 100.799 L 132.699 100.799 L 133.022 100.799 L 133.344 100.799 L 133.667 100.799 L 133.989 100.799 L 134.312 100.799 L 134.613 100.799 L 134.936 100.799 L 135.258 100.799 L 135.581 100.799 L 135.904 100.799 L 136.226 100.799 L 136.549 100.799 L 136.872 100.799 L 137.194 100.799 L 137.517 100.799 L 137.839 100.799 L 138.162 100.799 L 138.485 100.799 L 138.786 100.799 L 139.108 100.799 L 139.431 100.799 L 139.754 100.799 L 140.076 100.799 L 140.399 100.799 L 140.721 100.799 L 141.044 100.799 L 141.367 100.799 L 141.689 100.799 L 142.012 100.799 L 142.335 100.799 L 142.657 100.799 L 142.958 72.4878 L 143.281 72.4878 L 143.603 72.4878 L 143.926 72.4878 L 144.249 72.4878 L 144.571 72.4878 L 144.894 72.4878 L 145.217 72.4878 L 145.539 72.4878 L 145.862 72.4878 L 146.184 72.4878 L 146.507 72.4878 L 146.83 72.4878 L 147.131 72.4878 L 147.453 72.4878 L 147.776 72.4878 L 148.099 72.4878 L 148.421 72.4878 L 148.744 72.4878 L 149.066 72.4878 L 149.389 72.4878 L 149.712 72.4878 L 150.034 72.4878 L 150.357 72.4878 L 150.68 72.4878 L 151.002 72.4878 L 151.303 72.4878 L 151.626 72.4878 L 151.949 72.4878 L 152.271 72.4878 L 152.594 72.4878 L 152.916 72.4878 L 153.239 72.4878 L 153.562 72.4878 L 153.884 72.4878 L 154.207 72.4878 L 154.529 72.4878 L 154.852 72.4878 L 155.153 72.4878 L 155.476 72.4878 L 155.798 72.4878 L 156.121 72.4878 L 156.444 72.4878 L 156.766 72.4878 L 157.089 72.4878 L 157.412 72.4878 L 157.734 72.4878 L 158.057 72.4878 L 158.379 72.4878 L 158.702 72.4878 L 159.025 72.4878 L 159.326 72.4878 L 159.648 72.4878 L 159.971 72.4878 L 160.294 72.4878 L 160.616 72.4878 L 160.939 72.4878 L 161.261 72.4878 L 161.584 72.4878 L 161.907 72.4878 L 162.229 72.4878 L 162.552 72.4878 L 162.875 72.4878 L 163.197 72.4878 L 163.498 72.4878 L 163.821 72.4878 L 164.144 72.4878 L 164.466 72.4878 L 164.789 72.4878 L 165.111 72.4878 L 165.434 72.4878 L 165.757 72.4878 L 166.079 72.4878 L 166.402 72.4878 L 166.724 72.4878 L 167.047 72.4878 L 167.37 72.4878 L 167.671 72.4878 L 167.993 72.4878 L 168.316 72.4878 L 168.639 72.4878 L 168.961 72.4878 L 169.284 72.4878 L 169.607 72.4878 L 169.929 72.4878 L 170.252 72.4878 L 170.574 72.4878 L 170.897 72.4878 L 171.22 72.4878 L 171.521 72.4878 L 171.542 72.4878" id="path1092" stroke="#FF0000" stroke-width="0.555546" stroke-linecap="butt" stroke-linejoin="round" stroke-miterlimit="4" stroke-dasharray="" stroke-opacity="1" fill="none"/><path d=" M 23.5464 100.799 L 175.285 100.799" id="path1094" stroke="#000000" stroke-width="0.555546" stroke-linecap="butt" stroke-linejoin="round" stroke-miterlimit="4" stroke-dasharray="" stroke-opacity="1" fill="none"/><path d=" M 23.826 100.706 L 23.826 66.1253" id="path1102" stroke="#000000" stroke-width="0.492919" stroke-linecap="butt" stroke-linejoin="round" stroke-miterlimit="4" stroke-dasharray="" stroke-opacity="1" fill="none"/><path d=" M 62.7553 68.9948 L 62.7123 67.4484 L 61.7874 67.4609 L 61.8304 69.0072 Z M 62.6693 65.9021 L 62.6262 64.3557 L 61.7014 64.3681 L 61.7444 65.9145 Z M 62.5617 62.8093 L 62.5187 61.2629 L 61.6154 61.2754 L 61.6584 62.8218 Z M 62.8413 72.0875 L 62.7983 70.5412 L 61.8735 70.5536 L 61.9165 72.1 Z" id="path1110" stroke="none" stroke-width="0.248744" fill="#000000" fill-rule="nonzero" fill-opacity="1"/><path d=" M 103.19 68.85 L 103.19 67.3027 L 102.265 67.3027 L 102.265 68.85 Z M 103.19 65.7554 L 103.212 64.2081 L 102.287 64.2081 L 102.287 65.7554 Z M 103.212 62.6608 L 103.233 61.1135 L 102.308 61.1135 L 102.308 62.6608 Z M 103.169 71.9445 L 103.169 70.3973 L 102.265 70.3973 L 102.244 71.9445 Z" id="path1112" stroke="none" stroke-width="0.248818" fill="#000000" fill-rule="nonzero" fill-opacity="1"/><path d=" M 92.5914 70.091 L 92.6344 69.0976 L 91.7096 69.0897 L 91.6666 70.083 Z M 92.6559 68.1043 L 92.6989 67.1109 L 91.7741 67.1029 L 91.7526 68.0963 Z M 92.5054 72.0778 L 92.5484 71.0844 L 91.6235 71.0764 L 91.602 72.0698 Z" id="path1114" stroke="none" stroke-width="0.199367" fill="#000000" fill-rule="nonzero" fill-opacity="1"/><path d=" M 79.7243 60.2552 L 79.7243 60.0666 C 79.9129 60.0666 80.1016 60.0494 80.2902 60.0323 C 80.4788 59.998 80.5645 59.9637 80.5645 59.878 L 80.5645 56.706 C 80.5645 56.6374 80.5474 56.586 80.4959 56.5517 C 80.4445 56.5345 80.3759 56.5345 80.273 56.5345 L 80.033 56.5345 C 79.7072 56.5345 79.4843 56.6031 79.3471 56.7403 C 79.2786 56.8088 79.2271 56.9117 79.21 57.066 C 79.1757 57.2204 79.1414 57.409 79.1242 57.649 L 78.9528 57.649 L 79.0728 56.3288 L 82.5877 56.3288 L 82.7077 57.649 L 82.5363 57.649 C 82.502 57.3918 82.4848 57.2032 82.4505 57.0489 C 82.4334 56.9117 82.382 56.8089 82.3134 56.7403 C 82.1762 56.6031 81.9533 56.5345 81.6275 56.5345 L 81.3875 56.5345 C 81.3189 56.5345 81.2675 56.5345 81.2332 56.5345 C 81.1989 56.5345 81.1646 56.5517 81.1303 56.586 C 81.1132 56.6203 81.096 56.6545 81.096 56.706 L 81.096 59.878 C 81.096 59.9637 81.1817 59.998 81.3704 60.0323 C 81.559 60.0494 81.7476 60.0666 81.9362 60.0666 L 81.9362 60.2552 Z" id="path1116" stroke="none" stroke-width="0.264583" fill="#000000" fill-rule="nonzero" fill-opacity="1"/><path d=" M 83.1707 60.2723 L 83.1707 59.3464 C 83.1707 59.3122 83.1878 59.295 83.2221 59.295 L 83.2907 59.295 C 83.3078 59.295 83.325 59.3121 83.3421 59.3464 C 83.445 59.8951 83.7022 60.1694 84.1137 60.1694 C 84.3023 60.1694 84.4566 60.1352 84.5766 60.0494 C 84.6966 59.9637 84.7481 59.8437 84.7481 59.6722 C 84.7481 59.5522 84.7138 59.4322 84.6109 59.3464 C 84.508 59.2607 84.4052 59.2093 84.268 59.175 L 83.8908 59.1064 C 83.7536 59.0721 83.6336 59.0207 83.5307 58.9692 C 83.4278 58.9007 83.3421 58.8321 83.2735 58.7292 C 83.205 58.6435 83.1707 58.5234 83.1707 58.4034 C 83.1707 58.232 83.2221 58.0948 83.3078 57.9919 C 83.3936 57.8719 83.5136 57.8033 83.6507 57.7519 C 83.7879 57.7004 83.9422 57.6833 84.1137 57.6833 C 84.3194 57.6833 84.4909 57.7347 84.6281 57.8376 L 84.7995 57.7004 C 84.7995 57.6833 84.7995 57.6833 84.8167 57.6833 L 84.8681 57.6833 C 84.8681 57.6833 84.8852 57.6833 84.9024 57.7004 C 84.9024 57.7004 84.9024 57.7176 84.9024 57.7347 L 84.9024 58.4892 C 84.9024 58.5234 84.8853 58.5406 84.8681 58.5406 L 84.7995 58.5406 C 84.7652 58.5406 84.7481 58.5234 84.7481 58.4892 C 84.7481 58.2834 84.6966 58.1119 84.5766 57.9919 C 84.4738 57.8719 84.3023 57.8205 84.1137 57.8205 C 83.9422 57.8205 83.7879 57.8548 83.6507 57.9062 C 83.5307 57.9748 83.4622 58.0777 83.4622 58.232 C 83.4622 58.352 83.5136 58.4377 83.5993 58.5063 C 83.7022 58.5749 83.8051 58.6263 83.9251 58.6435 L 84.3194 58.7292 C 84.4395 58.7463 84.5766 58.7978 84.6795 58.8664 C 84.7995 58.9521 84.8853 59.0378 84.9538 59.1407 C 85.0224 59.2607 85.0567 59.3807 85.0567 59.5179 C 85.0567 59.6551 85.0224 59.7751 84.9881 59.878 C 84.9367 59.9808 84.8681 60.0666 84.7824 60.1352 C 84.6966 60.2037 84.5938 60.238 84.4738 60.2723 C 84.3537 60.3066 84.2337 60.3238 84.1137 60.3238 C 83.8736 60.3238 83.6679 60.238 83.4964 60.0837 L 83.2907 60.3066 C 83.2907 60.3238 83.2735 60.3238 83.2564 60.3238 L 83.2221 60.3238 C 83.1878 60.3238 83.1707 60.3066 83.1707 60.2723 Z" id="path1118" stroke="none" stroke-width="0.264583" fill="#000000" fill-rule="nonzero" fill-opacity="1"/><path d=" M 65.3597 61.3832 L 98.693 61.2856" id="path1120" stroke="#000000" stroke-width="0.290907" stroke-linecap="butt" stroke-linejoin="round" stroke-miterlimit="4" stroke-dasharray="" stroke-opacity="1" fill="none"/><path d=" M 66.0456 68.4733 L 88.0178 68.3749" id="path1120-9" stroke="#000000" stroke-width="0.237105" stroke-linecap="butt" stroke-linejoin="round" stroke-miterlimit="4" stroke-dasharray="" stroke-opacity="1" fill="none"/><path d=" M 73.2343 67.6845 L 73.2343 67.4788 C 73.6286 67.4788 73.8172 67.4273 73.8172 67.2902 L 73.8172 64.1353 C 73.8172 64.0153 73.6286 63.9467 73.2343 63.9467 L 73.2343 63.741 L 75.3432 63.741 C 75.6175 63.741 75.8576 63.8096 76.0805 63.9124 C 76.2862 64.0325 76.4748 64.1868 76.6291 64.3754 C 76.7834 64.564 76.9035 64.7697 76.9892 65.0098 C 77.0749 65.2498 77.1092 65.507 77.1092 65.7471 C 77.1092 66.0042 77.0749 66.2271 76.9892 66.4672 C 76.9035 66.6901 76.7834 66.8958 76.612 67.0844 C 76.4577 67.273 76.2691 67.4102 76.0633 67.5302 C 75.8404 67.6331 75.6004 67.6845 75.3432 67.6845 Z M 74.3316 67.2902 C 74.3316 67.3759 74.3659 67.4273 74.4173 67.4445 C 74.4516 67.4788 74.5373 67.4788 74.6231 67.4788 L 75.206 67.4788 C 75.3946 67.4788 75.5832 67.4445 75.7718 67.3588 C 75.9433 67.273 76.0805 67.153 76.2005 66.9987 C 76.3205 66.8272 76.4062 66.6558 76.4577 66.45 C 76.492 66.2614 76.5091 66.0214 76.5091 65.7471 C 76.5091 65.4727 76.492 65.2327 76.4577 65.0269 C 76.4062 64.804 76.3205 64.6154 76.2005 64.4611 C 76.0976 64.2897 75.9433 64.1696 75.7718 64.0839 C 75.5832 63.9982 75.3946 63.9467 75.206 63.9467 L 74.6231 63.9467 C 74.5545 63.9467 74.503 63.9467 74.4688 63.9639 C 74.4345 63.9639 74.4002 63.981 74.383 64.0153 C 74.3487 64.0325 74.3316 64.0839 74.3316 64.1354 Z" id="path1148" stroke="none" stroke-width="0.264583" fill="#000000" fill-rule="nonzero" fill-opacity="1"/><path d=" M 78.4809 67.6845 L 78.4809 67.4788 C 78.6695 67.4788 78.8581 67.4788 79.0467 67.4445 C 79.2181 67.4274 79.321 67.3759 79.321 67.2902 L 79.321 64.1353 C 79.321 64.0496 79.2867 63.9982 79.2524 63.981 C 79.201 63.9639 79.1324 63.9467 79.0295 63.9467 L 78.7723 63.9467 C 78.4637 63.9467 78.2408 64.0153 78.1037 64.1525 C 78.0351 64.2211 77.9836 64.3411 77.9493 64.4954 C 77.9322 64.6497 77.8979 64.8383 77.8808 65.0612 L 77.7093 65.0612 L 77.8293 63.741 L 81.3442 63.741 L 81.4471 65.0612 L 81.2928 65.0612 C 81.2585 64.8212 81.2413 64.6326 81.2071 64.4783 C 81.1899 64.3411 81.1385 64.2211 81.0699 64.1525 C 80.9327 64.0153 80.7098 63.9467 80.3841 63.9467 L 80.144 63.9467 C 80.0754 63.9467 80.024 63.9467 79.9897 63.9639 C 79.9554 63.9639 79.9211 63.981 79.8868 64.0153 C 79.8697 64.0325 79.8525 64.0839 79.8525 64.1354 L 79.8525 67.2902 C 79.8525 67.3759 79.9383 67.4274 80.1269 67.4445 C 80.3155 67.4788 80.5041 67.4788 80.6927 67.4788 L 80.6927 67.6845 Z" id="path1150" stroke="none" stroke-width="0.264583" fill="#000000" fill-rule="nonzero" fill-opacity="1"/><path d=" M 81.9272 67.7017 L 81.9272 66.7587 C 81.9272 66.7244 81.9443 66.7244 81.9786 66.7244 L 82.0472 66.7244 C 82.0643 66.7244 82.0815 66.7244 82.0986 66.7587 C 82.2015 67.3245 82.4587 67.5988 82.8702 67.5988 C 83.0588 67.5988 83.196 67.5645 83.3331 67.4788 C 83.4532 67.3931 83.5046 67.2559 83.5046 67.0844 C 83.5046 66.9644 83.4532 66.8615 83.3674 66.7758 C 83.2646 66.6901 83.1617 66.6215 83.0245 66.5872 L 82.6473 66.5186 C 82.5101 66.4843 82.3901 66.45 82.2872 66.3986 C 82.1844 66.33 82.0986 66.2614 82.0301 66.1586 C 81.9615 66.0557 81.9272 65.9528 81.9272 65.8156 C 81.9272 65.6613 81.9786 65.507 82.0644 65.4041 C 82.1501 65.3013 82.2701 65.2155 82.4073 65.1812 C 82.5444 65.1298 82.6987 65.0955 82.8702 65.0955 C 83.0588 65.0955 83.2303 65.147 83.3846 65.267 L 83.556 65.1127 C 83.556 65.1127 83.556 65.0955 83.5732 65.0955 L 83.6246 65.0955 C 83.6246 65.0955 83.6418 65.1127 83.6589 65.1127 C 83.6589 65.1298 83.6589 65.1298 83.6589 65.1469 L 83.6589 65.9014 C 83.6589 65.9357 83.6418 65.9528 83.6246 65.9528 L 83.556 65.9528 C 83.5218 65.9528 83.5046 65.9357 83.5046 65.9014 C 83.5046 65.6956 83.436 65.5413 83.3331 65.4213 C 83.2131 65.3013 83.0588 65.2327 82.8702 65.2327 C 82.6816 65.2327 82.5444 65.267 82.4073 65.3356 C 82.2872 65.4041 82.2187 65.507 82.2187 65.6613 C 82.2187 65.7642 82.2701 65.8499 82.3558 65.9185 C 82.4587 65.9871 82.5616 66.0385 82.6816 66.0728 L 83.076 66.1414 C 83.196 66.1757 83.3331 66.2271 83.436 66.2957 C 83.556 66.3643 83.6418 66.4672 83.7104 66.5701 C 83.7789 66.6729 83.8132 66.7929 83.8132 66.9301 C 83.8132 67.0673 83.7789 67.1873 83.7275 67.2902 C 83.6932 67.3931 83.6246 67.4788 83.5389 67.5474 C 83.4532 67.6159 83.3503 67.6674 83.2303 67.7017 C 83.1102 67.736 82.9902 67.7531 82.8702 67.7531 C 82.6302 67.7531 82.4244 67.6674 82.253 67.5131 L 82.0472 67.736 C 82.0472 67.736 82.0301 67.7531 82.0129 67.7531 L 81.9786 67.7531 C 81.9443 67.7531 81.9272 67.736 81.9272 67.7017 Z" id="path1152" stroke="none" stroke-width="0.264583" fill="#000000" fill-rule="nonzero" fill-opacity="1"/><path d=" M 33.5296 69.8781 L 33.5296 68.5408 C 33.5296 68.5065 33.5467 68.4893 33.581 68.4893 L 33.6496 68.4893 C 33.6668 68.4893 33.6839 68.5065 33.6839 68.5065 C 33.701 68.5236 33.701 68.5236 33.701 68.5408 C 33.701 68.918 33.8211 69.2095 34.044 69.4152 C 34.284 69.621 34.5926 69.7238 34.9698 69.7238 C 35.107 69.7238 35.227 69.6895 35.347 69.6038 C 35.4499 69.5352 35.5356 69.4324 35.6042 69.3123 C 35.6728 69.1752 35.6899 69.0551 35.6899 68.918 C 35.6899 68.798 35.6727 68.6951 35.6213 68.5751 C 35.587 68.4722 35.5185 68.3693 35.4156 68.3007 C 35.3299 68.215 35.2441 68.1636 35.1241 68.1293 L 34.3697 67.9578 C 34.1297 67.8892 33.9239 67.7521 33.7696 67.5463 C 33.6153 67.3406 33.5296 67.1177 33.5296 66.8605 C 33.5296 66.6719 33.581 66.4833 33.6839 66.3118 C 33.7868 66.1232 33.9239 65.986 34.0954 65.8832 C 34.2669 65.7974 34.4555 65.746 34.6441 65.746 C 35.0384 65.746 35.347 65.866 35.5699 66.1232 L 35.81 65.7631 C 35.81 65.746 35.8271 65.746 35.8443 65.746 L 35.8786 65.746 C 35.8958 65.746 35.9129 65.746 35.9129 65.746 C 35.9301 65.7631 35.9301 65.7803 35.9301 65.7803 L 35.9301 67.1177 C 35.9301 67.152 35.9129 67.1691 35.8787 67.1691 L 35.8101 67.1691 C 35.7758 67.1691 35.7587 67.152 35.7587 67.1177 C 35.7587 67.0319 35.7416 66.9119 35.7073 66.809 C 35.6902 66.689 35.6387 66.569 35.5701 66.4661 C 35.5187 66.3632 35.4501 66.2775 35.3815 66.2089 C 35.2101 66.0203 34.9529 65.9175 34.6442 65.9175 C 34.5242 65.9175 34.4042 65.9517 34.2842 66.0203 C 34.1813 66.0889 34.0956 66.1746 34.027 66.2947 C 33.9584 66.4147 33.9241 66.5347 33.9241 66.6547 C 33.9241 66.8262 33.9756 66.9805 34.0784 67.1005 C 34.1813 67.2377 34.3185 67.3234 34.4899 67.3748 L 35.2272 67.5635 C 35.3472 67.5806 35.4672 67.632 35.5873 67.7178 C 35.6901 67.7863 35.7759 67.8892 35.8616 67.9921 C 35.9302 68.095 35.9816 68.215 36.0331 68.335 C 36.0674 68.455 36.0845 68.5922 36.0845 68.7294 C 36.0845 68.9351 36.0331 69.1237 35.9473 69.3123 C 35.8444 69.5009 35.7072 69.6381 35.5358 69.7581 C 35.3643 69.8781 35.1757 69.9296 34.97 69.9296 C 34.85 69.9296 34.7128 69.9124 34.5756 69.8781 C 34.4385 69.861 34.3184 69.8096 34.2156 69.7581 C 34.0955 69.7067 33.9927 69.6209 33.9069 69.5352 L 33.6669 69.9124 C 33.6497 69.9296 33.6326 69.9296 33.6155 69.9296 L 33.5812 69.9296 C 33.5469 69.9296 33.5297 69.9124 33.5297 69.8781 Z" id="path1154" stroke="none" stroke-width="0.264583" fill="#FF0000" fill-rule="nonzero" fill-opacity="1"/><path d=" M 36.6501 69.8096 L 36.6501 69.6038 C 36.993 69.6038 37.1988 69.4838 37.2845 69.2609 L 38.4847 65.746 C 38.5019 65.6946 38.5361 65.6774 38.5876 65.6774 L 38.6562 65.6774 C 38.7076 65.6774 38.7419 65.6946 38.7419 65.746 L 40.0107 69.4152 C 40.045 69.5009 40.1136 69.5524 40.2164 69.5695 C 40.3193 69.5867 40.4393 69.6038 40.5937 69.6038 L 40.5937 69.8096 L 38.9819 69.8096 L 38.9819 69.6038 C 39.3077 69.6038 39.462 69.5524 39.462 69.4495 L 39.462 69.4152 L 39.1534 68.5236 L 37.7646 68.5236 L 37.4903 69.2609 C 37.4903 69.278 37.4903 69.2952 37.4903 69.3123 C 37.4903 69.4152 37.5417 69.4838 37.6274 69.5352 C 37.7131 69.5695 37.816 69.6038 37.9189 69.6038 L 37.9189 69.8096 Z M 37.816 68.3179 L 39.0848 68.3179 L 38.4504 66.4833 Z" id="path1156" stroke="none" stroke-width="0.264583" fill="#FF0000" fill-rule="nonzero" fill-opacity="1"/><path d=" M 23.8735 100.853 L 23.8735 100.853 L 24.1961 100.853 L 24.5188 100.853 L 24.8414 100.853 L 25.164 100.853 L 25.4866 100.853 L 25.8092 100.853 L 26.1319 100.853 L 26.4545 100.853 L 26.7771 100.853 L 27.0997 100.853 L 27.4223 100.853 L 27.7449 100.853 L 28.0461 100.853 L 28.3687 100.853 L 28.6913 100.853 L 29.0139 100.853 L 29.3365 100.853 L 29.6592 100.853 L 29.9818 100.853 L 30.3044 100.853 L 30.627 100.853 L 30.9496 100.853 L 31.2722 100.853 L 31.5949 100.853 L 31.9175 100.853 L 32.2186 100.853 L 32.5412 100.853 L 32.8638 100.853 L 33.1864 100.853 L 33.5091 100.853 L 33.8317 100.853 L 34.1543 100.853 L 34.4769 100.853 L 34.7995 100.853 L 35.1222 100.853 L 35.4448 100.853 L 35.7674 100.853 L 36.09 100.853 L 36.3911 100.853 L 36.7137 100.853 L 37.0364 100.853 L 37.359 100.853 L 37.6816 100.853 L 38.0042 100.853 L 38.3268 100.853 L 38.6495 100.853 L 38.9721 100.853 L 39.2947 100.853 L 39.6173 100.853 L 39.9399 100.853 L 40.241 100.853 L 40.5637 100.853 L 40.8863 100.853 L 41.2089 100.853 L 41.5315 100.853 L 41.8541 100.853 L 42.1768 100.853 L 42.4994 100.853 L 42.822 100.853 L 43.1446 100.853 L 43.4672 100.853 L 43.7898 100.853 L 44.1125 100.853 L 44.4136 100.853 L 44.7362 100.853 L 45.0588 100.853 L 45.3814 100.853 L 45.704 100.853 L 46.0267 100.853 L 46.3493 100.853 L 46.6719 100.853 L 46.9945 100.853 L 47.3171 100.853 L 47.6398 100.853 L 47.9624 100.853 L 48.285 100.853 L 48.5861 100.853 L 48.9087 100.853 L 49.2313 100.853 L 49.554 100.853 L 49.8766 100.853 L 50.1992 100.853 L 50.5218 100.853 L 50.8444 100.853 L 51.167 100.853 L 51.4897 100.853 L 51.8123 100.853 L 52.1349 100.853 L 52.4575 72.4588 L 52.7586 72.4588 L 53.0813 72.4588 L 53.4039 72.4588 L 53.7265 72.4588 L 54.0491 72.4588 L 54.3717 72.4588 L 54.6943 72.4588 L 55.017 72.4588 L 55.3396 72.4588 L 55.6622 72.4588 L 55.9848 72.4588 L 56.3074 72.4588 L 56.6086 72.4588 L 56.9312 72.4588 L 57.2538 72.4588 L 57.5764 72.4588 L 57.899 72.4588 L 58.2216 72.4588 L 58.5443 72.4588 L 58.8669 72.4588 L 59.1895 72.4588 L 59.5121 72.4588 L 59.8347 72.4588 L 60.1574 72.4588 L 60.48 72.4588 L 60.7811 72.4588 L 61.1037 72.4588 L 61.4263 72.4588 L 61.7489 72.4588 L 62.0716 100.853 L 62.3942 100.853 L 62.7168 100.853 L 63.0394 100.853 L 63.362 100.853 L 63.6846 100.853 L 64.0073 100.853 L 64.3299 100.853 L 64.6525 100.853 L 64.9536 100.853 L 65.2762 100.853 L 65.5989 100.853 L 65.9215 100.853 L 66.2441 100.853 L 66.5667 100.853 L 66.8893 100.853 L 67.2119 100.853 L 67.5346 100.853 L 67.8572 100.853 L 68.1798 100.853 L 68.5024 100.853 L 68.825 100.853 L 69.1261 100.853 L 69.4488 100.853 L 69.7714 100.853 L 70.094 100.853 L 70.4166 100.853 L 70.7392 100.853 L 71.0619 100.853 L 71.3845 100.853 L 71.7071 100.853 L 72.0297 100.853 L 72.3523 100.853 L 72.6749 100.853 L 72.9976 100.853 L 73.2987 100.853 L 73.6213 100.853 L 73.9439 100.853 L 74.2665 100.853 L 74.5892 100.853 L 74.9118 100.853 L 75.2344 100.853 L 75.557 100.853 L 75.8796 100.853 L 76.2022 100.853 L 76.5249 100.853 L 76.8475 100.853 L 77.1486 100.853 L 77.4712 100.853 L 77.7938 100.853 L 78.1164 100.853 L 78.4391 100.853 L 78.7617 100.853 L 79.0843 100.853 L 79.4069 100.853 L 79.7295 100.853 L 80.0522 100.853 L 80.3748 100.853 L 80.6974 100.853 L 81.02 100.853 L 81.3211 100.853 L 81.6437 100.853 L 81.9664 100.853 L 82.289 100.853 L 82.6116 100.853 L 82.9342 100.853 L 83.2568 100.853 L 83.5795 100.853 L 83.9021 100.853 L 84.2247 100.853 L 84.5473 100.853 L 84.8699 100.853 L 85.1926 100.853 L 85.4937 100.853 L 85.8163 100.853 L 86.1389 100.853 L 86.4615 100.853 L 86.7841 100.853 L 87.1068 100.853 L 87.4294 100.853 L 87.752 100.853 L 88.0746 100.853 L 88.3972 100.853 L 88.7198 100.853 L 89.0425 100.853 L 89.3651 100.853 L 89.6662 100.853 L 89.9888 100.853 L 90.3114 100.853 L 90.634 100.853 L 90.9567 100.853 L 91.2793 100.853 L 91.6019 100.853 L 91.9245 100.853 L 92.2472 100.853 L 92.5697 72.4588 L 92.8924 72.4588 L 93.215 72.4588 L 93.5376 72.4588 L 93.8387 72.4588 L 94.1613 72.4588 L 94.484 72.4588 L 94.8066 72.4588 L 95.1292 72.4588 L 95.4518 72.4588 L 95.7744 72.4588 L 96.0971 72.4588 L 96.4197 72.4588 L 96.7423 72.4588 L 97.0649 72.4588 L 97.3875 72.4588 L 97.6886 72.4588 L 98.0113 72.4588 L 98.3339 72.4588 L 98.6565 72.4588 L 98.9791 72.4588 L 99.3017 72.4588 L 99.6244 72.4588 L 99.947 72.4588 L 100.27 72.4588 L 100.592 72.4588 L 100.915 72.4588 L 101.237 72.4588 L 101.56 72.4588 L 101.861 72.4588 L 102.184 100.853 L 102.506 100.853 L 102.829 100.853 L 103.152 100.853 L 103.474 100.853 L 103.797 100.853 L 104.12 100.853 L 104.442 100.853 L 104.765 100.853 L 105.087 100.853 L 105.41 100.853 L 105.733 100.853 L 106.034 100.853 L 106.356 100.853 L 106.679 100.853 L 107.002 100.853 L 107.324 100.853 L 107.647 100.853 L 107.969 100.853 L 108.292 100.853 L 108.615 100.853 L 108.937 100.853 L 109.26 100.853 L 109.583 100.853 L 109.905 100.853 L 110.206 100.853 L 110.529 100.853 L 110.851 100.853 L 111.174 100.853 L 111.497 100.853 L 111.819 100.853 L 112.142 100.853 L 112.465 100.853 L 112.787 100.853 L 113.11 100.853 L 113.432 100.853 L 113.755 100.853 L 114.056 100.853 L 114.379 100.853 L 114.701 100.853 L 115.024 100.853 L 115.347 100.853 L 115.669 100.853 L 115.992 100.853 L 116.314 100.853 L 116.637 100.853 L 116.96 100.853 L 117.282 100.853 L 117.605 100.853 L 117.928 100.853 L 118.229 100.853 L 118.551 100.853 L 118.874 100.853 L 119.197 100.853 L 119.519 100.853 L 119.842 100.853 L 120.164 100.853 L 120.487 100.853 L 120.81 100.853 L 121.132 100.853 L 121.455 100.853 L 121.777 100.853 L 122.1 100.853 L 122.401 100.853 L 122.724 100.853 L 123.046 100.853 L 123.369 100.853 L 123.692 100.853 L 124.014 100.853 L 124.337 100.853 L 124.66 100.853 L 124.982 100.853 L 125.305 100.853 L 125.627 100.853 L 125.95 100.853 L 126.273 100.853 L 126.574 100.853 L 126.896 100.853 L 127.219 100.853 L 127.542 100.853 L 127.864 100.853 L 128.187 100.853 L 128.509 100.853 L 128.832 100.853 L 129.155 100.853 L 129.477 100.853 L 129.8 100.853 L 130.123 100.853 L 130.445 100.853 L 130.746 100.853 L 131.069 100.853 L 131.392 100.853 L 131.714 100.853 L 132.037 100.853 L 132.359 100.853 L 132.682 72.4588 L 133.005 72.4588 L 133.327 72.4588 L 133.65 72.4588 L 133.972 72.4588 L 134.295 72.4588 L 134.596 72.4588 L 134.919 72.4588 L 135.241 72.4588 L 135.564 72.4588 L 135.887 72.4588 L 136.209 72.4588 L 136.532 72.4588 L 136.855 72.4588 L 137.177 72.4588 L 137.5 72.4588 L 137.822 72.4588 L 138.145 72.4588 L 138.468 72.4588 L 138.769 72.4588 L 139.091 72.4588 L 139.414 72.4588 L 139.737 72.4588 L 140.059 72.4588 L 140.382 72.4588 L 140.704 72.4588 L 141.027 72.4588 L 141.35 72.4588 L 141.672 72.4588 L 141.995 72.4588 L 142.318 100.853 L 142.64 100.853 L 142.941 100.853 L 143.264 100.853 L 143.587 100.853 L 143.909 100.853 L 144.232 100.853 L 144.554 100.853 L 144.877 100.853 L 145.2 100.853 L 145.522 100.853 L 145.845 100.853 L 146.167 100.853 L 146.49 100.853 L 146.813 100.853 L 147.114 100.853 L 147.436 100.853 L 147.759 100.853 L 148.082 100.853 L 148.404 100.853 L 148.727 100.853 L 149.049 100.853 L 149.372 100.853 L 149.695 100.853 L 150.017 100.853 L 150.34 100.853 L 150.663 100.853 L 150.985 100.853 L 151.286 100.853 L 151.609 100.853 L 151.932 100.853 L 152.254 100.853 L 152.577 100.853 L 152.899 100.853 L 153.222 100.853 L 153.545 100.853 L 153.867 100.853 L 154.19 100.853 L 154.513 100.853 L 154.835 100.853 L 155.136 100.853 L 155.459 100.853 L 155.781 100.853 L 156.104 100.853 L 156.427 100.853 L 156.749 100.853 L 157.072 100.853 L 157.395 100.853 L 157.717 100.853 L 158.04 100.853 L 158.362 100.853 L 158.685 100.853 L 159.008 100.853 L 159.309 100.853 L 159.631 100.853 L 159.954 100.853 L 160.277 100.853 L 160.599 100.853 L 160.922 100.853 L 161.244 100.853 L 161.567 100.853 L 161.89 100.853 L 162.212 100.853 L 162.535 100.853 L 162.858 100.853 L 163.18 100.853 L 163.481 100.853 L 163.804 100.853 L 164.127 100.853 L 164.449 100.853 L 164.772 100.853 L 165.094 100.853 L 165.417 100.853 L 165.74 100.853 L 166.062 100.853 L 166.385 100.853 L 166.707 100.853 L 167.03 100.853 L 167.353 100.853 L 167.654 100.853 L 167.976 100.853 L 168.299 100.853 L 168.622 100.853 L 168.944 100.853 L 169.267 100.853 L 169.59 100.853 L 169.912 100.853 L 170.235 100.853 L 170.557 100.853 L 170.88 100.853 L 171.203 100.853 L 171.504 100.853 L 171.525 100.853" id="path1406" stroke="#0000FF" stroke-width="0.465499" stroke-linecap="butt" stroke-linejoin="round" stroke-miterlimit="4" stroke-dasharray="" stroke-opacity="1" fill="none"/><path d=" M 133.513 70.754 L 133.513 69.4166 C 133.513 69.3823 133.531 69.3652 133.565 69.3652 L 133.633 69.3652 C 133.651 69.3652 133.651 69.3823 133.668 69.3823 C 133.668 69.3994 133.685 69.3994 133.685 69.4166 C 133.685 69.7938 133.788 70.0853 134.028 70.291 C 134.268 70.4968 134.577 70.5997 134.954 70.5997 C 135.074 70.5997 135.211 70.5654 135.314 70.4968 C 135.434 70.4111 135.52 70.3082 135.588 70.1882 C 135.64 70.0681 135.674 69.931 135.674 69.7938 C 135.674 69.6909 135.657 69.5709 135.605 69.468 C 135.554 69.348 135.485 69.2623 135.4 69.1766 C 135.314 69.0909 135.211 69.0394 135.108 69.0222 L 134.354 68.8336 C 134.114 68.765 133.908 68.6279 133.754 68.4221 C 133.599 68.2335 133.513 67.9935 133.513 67.7363 C 133.513 67.5477 133.565 67.3591 133.668 67.1876 C 133.771 67.0162 133.908 66.879 134.079 66.7761 C 134.251 66.6733 134.422 66.6218 134.628 66.6218 C 135.005 66.6218 135.314 66.7419 135.554 67.0162 L 135.777 66.639 C 135.794 66.6218 135.811 66.6218 135.828 66.6218 L 135.862 66.6218 C 135.88 66.6218 135.88 66.6218 135.897 66.639 C 135.897 66.639 135.914 66.6561 135.914 66.6733 L 135.914 68.0107 C 135.914 68.045 135.897 68.0621 135.862 68.0621 L 135.794 68.0621 C 135.76 68.0621 135.742 68.045 135.742 68.0107 C 135.742 67.9078 135.725 67.8049 135.691 67.6849 C 135.657 67.5649 135.605 67.462 135.554 67.342 C 135.502 67.2391 135.434 67.1534 135.365 67.0848 C 135.177 66.8962 134.937 66.8104 134.628 66.8104 C 134.491 66.8104 134.371 66.8447 134.268 66.8961 C 134.165 66.9647 134.062 67.0676 134.011 67.1705 C 133.942 67.2905 133.908 67.4105 133.908 67.5305 C 133.908 67.702 133.959 67.8563 134.062 67.9935 C 134.165 68.1135 134.302 68.2164 134.457 68.2507 L 135.211 68.4393 C 135.331 68.4564 135.451 68.525 135.554 68.5936 C 135.674 68.6793 135.76 68.765 135.828 68.8679 C 135.897 68.9708 135.965 69.0908 136 69.2108 C 136.051 69.3309 136.068 69.468 136.068 69.6052 C 136.068 69.8109 136.017 70.0167 135.914 70.1881 C 135.828 70.3768 135.691 70.5311 135.52 70.6339 C 135.348 70.754 135.16 70.8054 134.954 70.8054 C 134.817 70.8054 134.697 70.7883 134.559 70.7711 C 134.422 70.7368 134.302 70.7025 134.182 70.6339 C 134.079 70.5825 133.976 70.4968 133.874 70.411 L 133.634 70.7882 C 133.634 70.8053 133.616 70.8053 133.599 70.8053 L 133.565 70.8053 C 133.531 70.8053 133.514 70.7882 133.514 70.7539 Z" id="path1424-1" stroke="none" stroke-width="0.264583" fill="#0000FF" fill-rule="nonzero" fill-opacity="1"/><path d=" M 136.634 70.6854 L 136.634 70.4796 C 137.028 70.4796 137.234 70.411 137.234 70.291 L 137.234 67.1362 C 137.234 67.0162 137.028 66.9476 136.634 66.9476 L 136.634 66.7419 L 138.76 66.7419 C 138.949 66.7419 139.154 66.7933 139.343 66.8619 C 139.549 66.9305 139.703 67.0505 139.84 67.2048 C 139.977 67.342 140.029 67.5306 140.029 67.7192 C 140.029 67.9592 139.943 68.165 139.755 68.3193 C 139.549 68.4736 139.326 68.5765 139.069 68.6279 C 139.24 68.6279 139.412 68.6622 139.583 68.7651 C 139.772 68.8508 139.909 68.9708 140.029 69.1251 C 140.132 69.2794 140.183 69.4509 140.183 69.6224 C 140.183 69.8281 140.132 70.0167 139.995 70.171 C 139.875 70.3425 139.72 70.4625 139.515 70.5482 C 139.326 70.6339 139.12 70.6854 138.914 70.6854 Z M 137.731 70.291 C 137.731 70.3767 137.748 70.4282 137.8 70.4454 C 137.851 70.4625 137.92 70.4797 138.023 70.4797 L 138.76 70.4797 C 138.897 70.4797 139.052 70.4454 139.172 70.3596 C 139.309 70.2739 139.412 70.171 139.48 70.051 C 139.549 69.9138 139.583 69.7767 139.583 69.6224 C 139.583 69.468 139.566 69.3309 139.497 69.1937 C 139.429 69.0565 139.343 68.9365 139.24 68.8508 C 139.12 68.7479 138.983 68.7136 138.846 68.7136 L 137.731 68.7136 Z M 137.731 68.5593 L 138.589 68.5593 C 138.709 68.5593 138.829 68.5422 138.932 68.4907 C 139.034 68.4564 139.12 68.3878 139.206 68.3193 C 139.275 68.2336 139.343 68.1478 139.395 68.0449 C 139.429 67.942 139.446 67.8392 139.446 67.7191 C 139.446 67.6334 139.429 67.5305 139.412 67.4448 C 139.377 67.3419 139.326 67.2562 139.257 67.1876 C 139.189 67.119 139.12 67.0505 139.034 67.0162 C 138.949 66.9648 138.863 66.9476 138.76 66.9476 L 138.023 66.9476 C 137.954 66.9476 137.903 66.9476 137.868 66.9647 C 137.817 66.9647 137.8 66.9818 137.766 66.999 C 137.749 67.0333 137.731 67.0676 137.731 67.1361 Z" id="path1426-3" stroke="none" stroke-width="0.264583" fill="#0000FD" fill-rule="nonzero" fill-opacity="1"/><text id="text4879" stroke="none" stroke-width="0.39769" fill="#000000" fill-opacity="1" font-family="Times New Roman" font-style="normal" font-variant="normal" font-weight="400" font-size="8.64977" text-anchor="start" letter-spacing="0" word-spacing="0" transform="matrix(0.951898,0,0,1.05053,0,0)" x="188.306" y="98.3344"><tspan stroke-width="0.39769" x="188.306" y="98.3344"><tspan stroke-width="0.39769" fill="#262626" font-family="Times New Roman" font-style="normal" font-variant="normal" font-weight="400" font-size="8.64977" dx="0" dy="0">t</tspan></tspan></text><path d=" M 23.5464 100.799 L 175.285 100.799" id="path5407" stroke="#000000" stroke-width="0.555546" stroke-linecap="butt" stroke-linejoin="round" stroke-miterlimit="4" stroke-dasharray="" stroke-opacity="1" fill="none"/><path d=" M 24.1165 109.716 L 24.1165 109.716 L 24.4391 109.716 L 24.7617 109.716 L 25.0843 109.716 L 25.4069 109.716 L 25.7296 109.716 L 26.0522 109.716 L 26.3748 109.716 L 26.6974 109.716 L 27.02 109.716 L 27.3427 109.716 L 27.6653 109.716 L 27.9879 109.716 L 28.289 109.716 L 28.6116 109.716 L 28.9342 109.716 L 29.2569 109.716 L 29.5795 109.716 L 29.9021 109.716 L 30.2247 109.716 L 30.5473 109.716 L 30.87 109.716 L 31.1926 109.716 L 31.5152 109.716 L 31.8378 109.716 L 32.1604 109.716 L 32.4615 109.716 L 32.7842 109.716 L 33.1068 109.716 L 33.4294 109.716 L 33.752 109.716 L 34.0746 109.716 L 34.3972 109.716 L 34.7199 109.716 L 35.0425 109.716 L 35.3651 109.716 L 35.6877 109.716 L 36.0103 109.716 L 36.333 109.716 L 36.6341 109.716 L 36.9567 109.716 L 37.2793 109.716 L 37.6019 109.716 L 37.9245 109.716 L 38.2472 109.716 L 38.5698 109.716 L 38.8924 109.716 L 39.215 109.716 L 39.5376 109.716 L 39.8603 109.716 L 40.1829 109.716 L 40.484 109.716 L 40.8066 109.716 L 41.1292 109.716 L 41.4518 109.716 L 41.7745 109.716 L 42.0971 109.716 L 42.4197 109.716 L 42.7423 109.716 L 43.0649 109.716 L 43.3876 109.716 L 43.7102 109.716 L 44.0328 109.716 L 44.3554 109.716 L 44.6565 109.716 L 44.9791 109.716 L 45.3018 109.716 L 45.6244 109.716 L 45.947 109.716 L 46.2696 109.716 L 46.5922 109.716 L 46.9148 109.716 L 47.2375 109.716 L 47.5601 109.716 L 47.8827 109.716 L 48.2053 109.716 L 48.5279 109.716 L 48.829 109.716 L 49.1517 109.716 L 49.4743 109.716 L 49.7969 109.716 L 50.1195 109.716 L 50.4421 109.716 L 50.7648 109.716 L 51.0874 109.716 L 51.41 109.716 L 51.7326 109.716 L 52.0552 138.027 L 52.3778 138.027 L 52.7005 138.027 L 53.0016 138.027 L 53.3242 138.027 L 53.6468 138.027 L 53.9694 138.027 L 54.2921 138.027 L 54.6147 138.027 L 54.9373 138.027 L 55.2599 138.027 L 55.5825 138.027 L 55.9051 138.027 L 56.2278 138.027 L 56.5504 138.027 L 56.8515 138.027 L 57.1741 138.027 L 57.4967 138.027 L 57.8194 138.027 L 58.142 138.027 L 58.4646 138.027 L 58.7872 138.027 L 59.1098 138.027 L 59.4324 138.027 L 59.7551 138.027 L 60.0777 138.027 L 60.4003 138.027 L 60.7229 138.027 L 61.024 138.027 L 61.3466 138.027 L 61.6693 138.027 L 61.9919 138.027 L 62.3145 138.027 L 62.6371 138.027 L 62.9597 109.716 L 63.2824 109.716 L 63.605 109.716 L 63.9276 109.716 L 64.2502 109.716 L 64.5728 109.716 L 64.8955 109.716 L 65.1966 109.716 L 65.5192 109.716 L 65.8418 109.716 L 66.1644 109.716 L 66.487 109.716 L 66.8097 109.716 L 67.1323 109.716 L 67.4549 109.716 L 67.7775 109.716 L 68.1001 109.716 L 68.4227 109.716 L 68.7454 109.716 L 69.068 109.716 L 69.3691 109.716 L 69.6917 109.716 L 70.0143 109.716 L 70.3369 109.716 L 70.6596 109.716 L 70.9822 109.716 L 71.3048 109.716 L 71.6274 109.716 L 71.95 109.716 L 72.2727 109.716 L 72.5953 109.716 L 72.9179 109.716 L 73.2405 109.716 L 73.5416 109.716 L 73.8642 109.716 L 74.1869 109.716 L 74.5095 109.716 L 74.8321 109.716 L 75.1547 109.716 L 75.4773 109.716 L 75.8 109.716 L 76.1226 109.716 L 76.4452 109.716 L 76.7678 109.716 L 77.0904 109.716 L 77.3915 109.716 L 77.7142 109.716 L 78.0368 109.716 L 78.3594 109.716 L 78.682 109.716 L 79.0046 109.716 L 79.3273 109.716 L 79.6499 109.716 L 79.9725 109.716 L 80.2951 109.716 L 80.6177 109.716 L 80.9403 109.716 L 81.263 109.716 L 81.5641 109.716 L 81.8867 109.716 L 82.2093 109.716 L 82.5319 109.716 L 82.8545 109.716 L 83.1772 109.716 L 83.4998 109.716 L 83.8224 109.716 L 84.145 109.716 L 84.4676 109.716 L 84.7903 109.716 L 85.1129 109.716 L 85.4355 109.716 L 85.7366 109.716 L 86.0592 109.716 L 86.3818 109.716 L 86.7045 109.716 L 87.0271 109.716 L 87.3497 109.716 L 87.6723 109.716 L 87.9949 109.716 L 88.3176 109.716 L 88.6402 109.716 L 88.9628 109.716 L 89.2854 109.716 L 89.608 109.716 L 89.9091 109.716 L 90.2318 109.716 L 90.5544 109.716 L 90.877 109.716 L 91.1996 109.716 L 91.5222 109.716 L 91.8448 109.716 L 92.1675 138.027 L 92.4901 138.027 L 92.8127 138.027 L 93.1353 138.027 L 93.4579 138.027 L 93.7806 138.027 L 94.0817 138.027 L 94.4043 138.027 L 94.7269 138.027 L 95.0495 138.027 L 95.3721 138.027 L 95.6948 138.027 L 96.0174 138.027 L 96.34 138.027 L 96.6626 138.027 L 96.9852 138.027 L 97.3079 138.027 L 97.6305 138.027 L 97.9316 138.027 L 98.2542 138.027 L 98.5768 138.027 L 98.8994 138.027 L 99.2221 138.027 L 99.5447 138.027 L 99.8673 138.027 L 100.19 138.027 L 100.513 138.027 L 100.835 138.027 L 101.158 138.027 L 101.48 138.027 L 101.803 138.027 L 102.104 138.027 L 102.427 138.027 L 102.749 138.027 L 103.072 109.716 L 103.395 109.716 L 103.717 109.716 L 104.04 109.716 L 104.362 109.716 L 104.685 109.716 L 105.008 109.716 L 105.33 109.716 L 105.653 109.716 L 105.976 109.716 L 106.277 109.716 L 106.599 109.716 L 106.922 109.716 L 107.244 109.716 L 107.567 109.716 L 107.89 109.716 L 108.212 109.716 L 108.535 109.716 L 108.858 109.716 L 109.18 109.716 L 109.503 109.716 L 109.825 109.716 L 110.148 109.716 L 110.449 109.716 L 110.772 109.716 L 111.094 109.716 L 111.417 109.716 L 111.74 109.716 L 112.062 109.716 L 112.385 109.716 L 112.707 109.716 L 113.03 109.716 L 113.353 109.716 L 113.675 109.716 L 113.998 109.716 L 114.299 109.716 L 114.622 109.716 L 114.944 109.716 L 115.267 109.716 L 115.59 109.716 L 115.912 109.716 L 116.235 109.716 L 116.557 109.716 L 116.88 109.716 L 117.203 109.716 L 117.525 109.716 L 117.848 109.716 L 118.171 109.716 L 118.472 109.716 L 118.794 109.716 L 119.117 109.716 L 119.439 109.716 L 119.762 109.716 L 120.085 109.716 L 120.407 109.716 L 120.73 109.716 L 121.053 109.716 L 121.375 109.716 L 121.698 109.716 L 122.02 109.716 L 122.343 109.716 L 122.644 109.716 L 122.967 109.716 L 123.289 109.716 L 123.612 109.716 L 123.935 109.716 L 124.257 109.716 L 124.58 109.716 L 124.902 109.716 L 125.225 109.716 L 125.548 109.716 L 125.87 109.716 L 126.193 109.716 L 126.516 109.716 L 126.817 109.716 L 127.139 109.716 L 127.462 109.716 L 127.785 109.716 L 128.107 109.716 L 128.43 109.716 L 128.752 109.716 L 129.075 109.716 L 129.398 109.716 L 129.72 109.716 L 130.043 109.716 L 130.365 109.716 L 130.688 109.716 L 130.989 109.716 L 131.312 109.716 L 131.634 109.716 L 131.957 109.716 L 132.28 138.027 L 132.602 138.027 L 132.925 138.027 L 133.248 138.027 L 133.57 138.027 L 133.893 138.027 L 134.215 138.027 L 134.538 138.027 L 134.839 138.027 L 135.162 138.027 L 135.484 138.027 L 135.807 138.027 L 136.13 138.027 L 136.452 138.027 L 136.775 138.027 L 137.097 138.027 L 137.42 138.027 L 137.743 138.027 L 138.065 138.027 L 138.388 138.027 L 138.711 138.027 L 139.012 138.027 L 139.334 138.027 L 139.657 138.027 L 139.98 138.027 L 140.302 138.027 L 140.625 138.027 L 140.947 138.027 L 141.27 138.027 L 141.593 138.027 L 141.915 138.027 L 142.238 138.027 L 142.56 138.027 L 142.883 138.027 L 143.184 109.716 L 143.507 109.716 L 143.829 109.716 L 144.152 109.716 L 144.475 109.716 L 144.797 109.716 L 145.12 109.716 L 145.443 109.716 L 145.765 109.716 L 146.088 109.716 L 146.41 109.716 L 146.733 109.716 L 147.056 109.716 L 147.357 109.716 L 147.679 109.716 L 148.002 109.716 L 148.325 109.716 L 148.647 109.716 L 148.97 109.716 L 149.292 109.716 L 149.615 109.716 L 149.938 109.716 L 150.26 109.716 L 150.583 109.716 L 150.906 109.716 L 151.228 109.716 L 151.529 109.716 L 151.852 109.716 L 152.174 109.716 L 152.497 109.716 L 152.82 109.716 L 153.142 109.716 L 153.465 109.716 L 153.788 109.716 L 154.11 109.716 L 154.433 109.716 L 154.755 109.716 L 155.078 109.716 L 155.379 109.716 L 155.702 109.716 L 156.024 109.716 L 156.347 109.716 L 156.67 109.716 L 156.992 109.716 L 157.315 109.716 L 157.637 109.716 L 157.96 109.716 L 158.283 109.716 L 158.605 109.716 L 158.928 109.716 L 159.251 109.716 L 159.552 109.716 L 159.874 109.716 L 160.197 109.716 L 160.52 109.716 L 160.842 109.716 L 161.165 109.716 L 161.487 109.716 L 161.81 109.716 L 162.133 109.716 L 162.455 109.716 L 162.778 109.716 L 163.101 109.716 L 163.423 109.716 L 163.724 109.716 L 164.047 109.716 L 164.369 109.716 L 164.692 109.716 L 165.015 109.716 L 165.337 109.716 L 165.66 109.716 L 165.983 109.716 L 166.305 109.716 L 166.628 109.716 L 166.95 109.716 L 167.273 109.716 L 167.596 109.716 L 167.897 109.716 L 168.219 109.716 L 168.542 109.716 L 168.865 109.716 L 169.187 109.716 L 169.51 109.716 L 169.832 109.716 L 170.155 109.716 L 170.478 109.716 L 170.8 109.716 L 171.123 109.716 L 171.446 109.716 L 171.747 109.716 L 171.768 109.716" id="path5710" stroke="#7E2F8E" stroke-width="0.555546" stroke-linecap="butt" stroke-linejoin="round" stroke-miterlimit="4" stroke-dasharray="" stroke-opacity="1" fill="none"/><path d=" M 23.778 139.82 L 23.778 105.24" id="path1102-8" stroke="#000000" stroke-width="0.492919" stroke-linecap="butt" stroke-linejoin="round" stroke-miterlimit="4" stroke-dasharray="" stroke-opacity="1" fill="none"/><path d=" M 24.3189 123.956 L 171.949 123.956" id="path1088-5" stroke="#262626" stroke-width="0.142116" stroke-linecap="butt" stroke-linejoin="round" stroke-miterlimit="4" stroke-dasharray="" stroke-opacity="1" fill="none"/><path d=" M 23.9748 123.956 L 175.713 123.956" id="path1094-4" stroke="#000000" stroke-width="0.555546" stroke-linecap="butt" stroke-linejoin="round" stroke-miterlimit="4" stroke-dasharray="" stroke-opacity="1" fill="none"/><path d=" M 37.4873 108.108 L 36.1157 104.49 C 36.0814 104.422 36.03 104.37 35.9271 104.336 C 35.8242 104.319 35.7042 104.319 35.567 104.319 L 35.567 104.113 L 37.1444 104.113 L 37.1444 104.319 C 36.8186 104.319 36.6643 104.37 36.6643 104.456 C 36.6643 104.473 36.6643 104.473 36.6643 104.473 C 36.6814 104.491 36.6814 104.491 36.6814 104.491 L 37.7788 107.44 L 38.8247 104.662 C 38.8247 104.645 38.8418 104.611 38.8418 104.576 C 38.8418 104.491 38.7904 104.422 38.7046 104.371 C 38.6189 104.336 38.516 104.319 38.4131 104.319 L 38.4131 104.113 L 39.6648 104.113 L 39.6648 104.319 C 39.5105 104.319 39.3904 104.336 39.2704 104.388 C 39.1675 104.456 39.0818 104.542 39.0475 104.662 L 37.7444 108.108 C 37.7273 108.16 37.693 108.177 37.6416 108.177 L 37.573 108.177 C 37.5216 108.177 37.4873 108.16 37.4873 108.108 Z" id="path7422-3" stroke="none" stroke-width="0.264583" fill="#710086" fill-rule="nonzero" fill-opacity="1"/><path d=" M 40.7965 108.108 C 40.5564 108.108 40.3507 108.057 40.145 107.937 C 39.9563 107.817 39.802 107.662 39.682 107.457 C 39.5791 107.268 39.5105 107.045 39.5105 106.822 C 39.5105 106.651 39.5448 106.479 39.6134 106.308 C 39.6648 106.154 39.7677 105.999 39.8878 105.879 C 39.9906 105.742 40.1278 105.639 40.2821 105.571 C 40.4364 105.502 40.6079 105.468 40.7965 105.468 C 41.0365 105.468 41.2423 105.519 41.4309 105.656 C 41.6366 105.776 41.791 105.948 41.8938 106.154 C 42.0138 106.359 42.0653 106.582 42.0653 106.822 C 42.0653 107.045 42.0139 107.268 41.8938 107.457 C 41.791 107.662 41.6366 107.817 41.4309 107.937 C 41.2423 108.057 41.0194 108.108 40.7965 108.108 Z M 40.7965 107.937 C 41.1051 107.937 41.3109 107.834 41.4137 107.611 C 41.5166 107.388 41.5681 107.097 41.5681 106.754 C 41.5681 106.565 41.5508 106.394 41.5337 106.274 C 41.5166 106.154 41.4651 106.034 41.3966 105.931 C 41.3623 105.862 41.2937 105.811 41.2423 105.759 C 41.1737 105.725 41.1051 105.674 41.0194 105.656 C 40.9508 105.622 40.8651 105.622 40.7965 105.622 C 40.6765 105.622 40.5564 105.639 40.4536 105.691 C 40.3507 105.759 40.2478 105.828 40.1792 105.931 C 40.1106 106.034 40.0592 106.154 40.0421 106.291 C 40.025 106.411 40.025 106.582 40.025 106.754 C 40.025 106.977 40.0421 107.165 40.0764 107.337 C 40.1107 107.508 40.1964 107.645 40.2993 107.765 C 40.4193 107.885 40.5736 107.937 40.7965 107.937 Z" id="path7424-4" stroke="none" stroke-width="0.264583" fill="#710086" fill-rule="nonzero" fill-opacity="1"/><path d=" M 23.6722 185.185 L 23.6722 144.012" id="path1102-8-3" stroke="#000000" stroke-width="0.537859" stroke-linecap="butt" stroke-linejoin="round" stroke-miterlimit="4" stroke-dasharray="" stroke-opacity="1" fill="none"/><path d=" M 23.1997 177.106 L 174.938 177.106" id="path1094-4-7" stroke="#000000" stroke-width="0.555546" stroke-linecap="butt" stroke-linejoin="round" stroke-miterlimit="4" stroke-dasharray="" stroke-opacity="1" fill="none"/><path d=" M 35.8635 172.121 L 35.8635 171.932 C 36.0693 171.932 36.2407 171.915 36.4293 171.898 C 36.618 171.864 36.7037 171.829 36.7037 171.744 L 36.7037 168.572 C 36.7037 168.503 36.6865 168.452 36.6351 168.417 C 36.5837 168.4 36.5151 168.4 36.4122 168.4 L 36.1721 168.4 C 35.8464 168.4 35.6235 168.469 35.4863 168.606 C 35.4177 168.675 35.3663 168.777 35.3492 168.932 C 35.3148 169.086 35.2806 169.275 35.2635 169.515 L 35.1091 169.515 L 35.212 168.195 L 38.7269 168.195 L 38.8469 169.515 L 38.6755 169.515 C 38.6583 169.258 38.6241 169.069 38.5898 168.915 C 38.5727 168.777 38.5212 168.675 38.4526 168.606 C 38.3154 168.469 38.0925 168.4 37.7668 168.4 L 37.5267 168.4 C 37.4581 168.4 37.4067 168.4 37.3724 168.4 C 37.3381 168.4 37.3038 168.417 37.2867 168.452 C 37.2524 168.486 37.2353 168.52 37.2353 168.572 L 37.2353 171.744 C 37.2353 171.829 37.3382 171.864 37.5096 171.898 C 37.6982 171.915 37.8869 171.932 38.0755 171.932 L 38.0755 172.121 Z" id="path10006" stroke="none" stroke-width="0.264583" fill="#FF13A6" fill-rule="nonzero" fill-opacity="1"/><path d=" M 39.2584 172.121 L 39.2584 171.932 C 39.6356 171.932 39.91 171.812 40.0814 171.589 L 41.0244 170.183 L 39.9614 168.555 C 39.91 168.486 39.8242 168.452 39.7213 168.417 C 39.6185 168.4 39.4985 168.4 39.3441 168.4 L 39.3441 168.195 L 40.9558 168.195 L 40.9558 168.4 C 40.8872 168.4 40.8015 168.4 40.7158 168.435 C 40.6129 168.469 40.5786 168.503 40.5786 168.555 C 40.5786 168.555 40.5786 168.572 40.5786 168.572 L 41.333 169.72 L 42.0017 168.726 C 42.0188 168.692 42.0188 168.675 42.0188 168.657 C 42.0188 168.572 41.9845 168.503 41.8988 168.469 C 41.8302 168.417 41.7445 168.4 41.6588 168.4 L 41.6588 168.194 L 43.0647 168.194 L 43.0647 168.4 C 42.6704 168.4 42.396 168.503 42.2417 168.726 L 41.453 169.909 L 42.6704 171.761 C 42.739 171.829 42.8247 171.881 42.9276 171.898 C 43.0305 171.915 43.1505 171.932 43.3048 171.932 L 43.3048 172.121 L 41.6931 172.121 L 41.6931 171.932 C 41.7445 171.932 41.8302 171.915 41.9331 171.881 C 42.0188 171.864 42.0703 171.812 42.0703 171.778 C 42.0703 171.761 42.0703 171.761 42.0532 171.744 L 41.1445 170.355 L 40.3214 171.589 C 40.3043 171.624 40.3043 171.641 40.3043 171.675 C 40.3043 171.744 40.3386 171.812 40.4243 171.864 C 40.4929 171.898 40.5786 171.932 40.6643 171.932 L 40.6643 172.121 Z" id="path10008" stroke="none" stroke-width="0.264583" fill="#FF13A6" fill-rule="nonzero" fill-opacity="1"/><path d=" M 32.8973 170.286 L 32.8973 170.029 C 33.4288 170.029 33.686 169.943 33.686 169.789 L 33.686 165.726 C 33.686 165.554 33.4288 165.486 32.8973 165.486 L 32.8973 165.228 L 35.1777 165.228 L 35.1777 165.486 C 34.6462 165.486 34.389 165.554 34.389 165.726 L 34.389 169.789 C 34.389 169.943 34.6462 170.029 35.1777 170.029 L 35.1777 170.286 Z" id="path10010" stroke="none" stroke-width="0.264583" fill="#FF13A6" fill-rule="nonzero" fill-opacity="1"/><path d=" M 23.9405 152.361 L 23.9405 152.361 L 24.2631 152.3 L 24.5857 152.259 L 24.9083 152.197 L 25.231 152.156 L 25.5536 152.115 L 25.8762 152.054 L 26.1988 152.013 L 26.5214 151.951 L 26.844 151.91 L 27.1667 151.849 L 27.4893 151.808 L 27.8119 151.766 L 28.113 151.705 L 28.4356 151.664 L 28.7583 151.603 L 29.0809 151.561 L 29.4035 151.52 L 29.7261 151.459 L 30.0487 151.418 L 30.3713 151.356 L 30.694 151.315 L 31.0166 151.274 L 31.3392 151.213 L 31.6618 151.172 L 31.9844 151.131 L 32.2855 151.069 L 32.6082 151.028 L 32.9308 150.967 L 33.2534 150.926 L 33.576 150.885 L 33.8986 150.823 L 34.2213 150.782 L 34.5439 150.741 L 34.8665 150.68 L 35.1891 150.638 L 35.5117 150.597 L 35.8344 150.536 L 36.157 150.495 L 36.4581 150.454 L 36.7807 150.392 L 37.1033 150.351 L 37.4259 150.31 L 37.7486 150.249 L 38.0712 150.208 L 38.3938 150.167 L 38.7164 150.105 L 39.039 150.064 L 39.3616 150.023 L 39.6843 149.962 L 40.0069 149.92 L 40.308 149.879 L 40.6306 149.818 L 40.9532 149.777 L 41.2758 149.736 L 41.5985 149.674 L 41.9211 149.633 L 42.2437 149.592 L 42.5663 149.551 L 42.8889 149.49 L 43.2116 149.449 L 43.5342 149.407 L 43.8568 149.346 L 44.1794 149.305 L 44.4805 149.264 L 44.8031 149.223 L 45.1258 149.161 L 45.4484 149.12 L 45.771 149.079 L 46.0936 149.018 L 46.4162 148.977 L 46.7388 148.936 L 47.0615 148.894 L 47.3841 148.833 L 47.7067 148.792 L 48.0293 148.751 L 48.3519 148.71 L 48.6531 148.648 L 48.9757 148.607 L 49.2983 148.566 L 49.6209 148.525 L 49.9435 148.464 L 50.2661 148.423 L 50.5888 148.381 L 50.9114 148.34 L 51.234 148.279 L 51.5566 148.238 L 51.8792 148.197 L 52.2019 148.238 L 52.5245 148.299 L 52.8256 148.442 L 53.1482 148.565 L 53.4708 148.708 L 53.7934 148.851 L 54.1161 148.994 L 54.4387 149.137 L 54.7613 149.28 L 55.0839 149.424 L 55.4065 149.546 L 55.7292 149.689 L 56.0518 149.832 L 56.3744 149.976 L 56.6755 150.119 L 56.9981 150.241 L 57.3207 150.385 L 57.6434 150.528 L 57.966 150.671 L 58.2886 150.793 L 58.6112 150.937 L 58.9338 151.08 L 59.2565 151.223 L 59.5791 151.345 L 59.9017 151.489 L 60.2243 151.632 L 60.5469 151.775 L 60.848 151.897 L 61.1707 152.041 L 61.4933 152.184 L 61.8159 152.306 L 62.1385 152.449 L 62.4611 152.491 L 62.7838 152.532 L 63.1064 152.491 L 63.429 152.449 L 63.7516 152.388 L 64.0742 152.347 L 64.3968 152.286 L 64.7195 152.244 L 65.0206 152.183 L 65.3432 152.142 L 65.6658 152.101 L 65.9884 152.039 L 66.311 151.998 L 66.6337 151.937 L 66.9563 151.896 L 67.2789 151.834 L 67.6015 151.793 L 67.9241 151.752 L 68.2468 151.691 L 68.5694 151.65 L 68.892 151.588 L 69.1931 151.547 L 69.5157 151.506 L 69.8383 151.445 L 70.161 151.404 L 70.4836 151.342 L 70.8062 151.301 L 71.1288 151.26 L 71.4514 151.199 L 71.7741 151.158 L 72.0967 151.116 L 72.4193 151.055 L 72.7419 151.014 L 73.0645 150.953 L 73.3656 150.911 L 73.6882 150.87 L 74.0109 150.809 L 74.3335 150.768 L 74.6561 150.727 L 74.9787 150.665 L 75.3013 150.624 L 75.624 150.583 L 75.9466 150.522 L 76.2692 150.481 L 76.5918 150.44 L 76.9144 150.378 L 77.2155 150.337 L 77.5382 150.296 L 77.8608 150.235 L 78.1834 150.193 L 78.506 150.152 L 78.8286 150.091 L 79.1513 150.05 L 79.4739 150.009 L 79.7965 149.947 L 80.1191 149.906 L 80.4417 149.865 L 80.7644 149.804 L 81.087 149.763 L 81.3881 149.722 L 81.7107 149.66 L 82.0333 149.619 L 82.3559 149.578 L 82.6786 149.537 L 83.0012 149.475 L 83.3238 149.434 L 83.6464 149.393 L 83.969 149.332 L 84.2916 149.291 L 84.6143 149.25 L 84.9369 149.209 L 85.2595 149.147 L 85.5606 149.106 L 85.8832 149.065 L 86.2059 149.004 L 86.5285 148.962 L 86.8511 148.921 L 87.1737 148.88 L 87.4963 148.819 L 87.819 148.778 L 88.1416 148.737 L 88.4642 148.696 L 88.7868 148.634 L 89.1094 148.593 L 89.432 148.552 L 89.7332 148.511 L 90.0558 148.449 L 90.3784 148.408 L 90.701 148.367 L 91.0236 148.326 L 91.3462 148.265 L 91.6689 148.224 L 91.9915 148.183 L 92.3141 148.224 L 92.6367 148.285 L 92.9593 148.428 L 93.282 148.551 L 93.6046 148.694 L 93.9057 148.837 L 94.2283 148.98 L 94.5509 149.123 L 94.8735 149.266 L 95.1962 149.409 L 95.5188 149.532 L 95.8414 149.675 L 96.164 149.818 L 96.4866 149.961 L 96.8093 150.105 L 97.1319 150.227 L 97.4545 150.37 L 97.7556 150.513 L 98.0782 150.657 L 98.4008 150.779 L 98.7235 150.922 L 99.0461 151.065 L 99.3687 151.209 L 99.6913 151.331 L 100.014 151.474 L 100.337 151.617 L 100.659 151.761 L 100.982 151.883 L 101.304 152.026 L 101.627 152.17 L 101.928 152.293 L 102.251 152.436 L 102.573 152.477 L 102.896 152.518 L 103.219 152.477 L 103.541 152.436 L 103.864 152.374 L 104.186 152.333 L 104.509 152.272 L 104.832 152.231 L 105.154 152.169 L 105.477 152.128 L 105.8 152.087 L 106.101 152.026 L 106.423 151.985 L 106.746 151.923 L 107.069 151.882 L 107.391 151.821 L 107.714 151.78 L 108.036 151.738 L 108.359 151.677 L 108.682 151.636 L 109.004 151.575 L 109.327 151.533 L 109.649 151.492 L 109.972 151.431 L 110.273 151.39 L 110.596 151.328 L 110.918 151.287 L 111.241 151.246 L 111.564 151.185 L 111.886 151.144 L 112.209 151.103 L 112.532 151.041 L 112.854 151 L 113.177 150.939 L 113.499 150.898 L 113.822 150.857 L 114.123 150.795 L 114.446 150.754 L 114.768 150.713 L 115.091 150.652 L 115.414 150.61 L 115.736 150.569 L 116.059 150.508 L 116.381 150.467 L 116.704 150.426 L 117.027 150.364 L 117.349 150.323 L 117.672 150.282 L 117.995 150.221 L 118.296 150.18 L 118.618 150.139 L 118.941 150.077 L 119.263 150.036 L 119.586 149.995 L 119.909 149.934 L 120.231 149.892 L 120.554 149.851 L 120.877 149.79 L 121.199 149.749 L 121.522 149.708 L 121.844 149.646 L 122.167 149.605 L 122.468 149.564 L 122.791 149.523 L 123.113 149.462 L 123.436 149.421 L 123.759 149.379 L 124.081 149.318 L 124.404 149.277 L 124.727 149.236 L 125.049 149.195 L 125.372 149.133 L 125.694 149.092 L 126.017 149.051 L 126.34 148.99 L 126.641 148.949 L 126.963 148.908 L 127.286 148.866 L 127.609 148.805 L 127.931 148.764 L 128.254 148.723 L 128.576 148.682 L 128.899 148.62 L 129.222 148.579 L 129.544 148.538 L 129.867 148.497 L 130.19 148.436 L 130.512 148.395 L 130.813 148.353 L 131.136 148.312 L 131.458 148.251 L 131.781 148.21 L 132.104 148.169 L 132.426 148.21 L 132.749 148.271 L 133.072 148.414 L 133.394 148.537 L 133.717 148.68 L 134.039 148.823 L 134.362 148.966 L 134.663 149.109 L 134.986 149.252 L 135.308 149.396 L 135.631 149.518 L 135.954 149.661 L 136.276 149.804 L 136.599 149.948 L 136.921 150.091 L 137.244 150.213 L 137.567 150.356 L 137.889 150.5 L 138.212 150.643 L 138.535 150.765 L 138.836 150.908 L 139.158 151.052 L 139.481 151.195 L 139.804 151.317 L 140.126 151.461 L 140.449 151.604 L 140.771 151.747 L 141.094 151.869 L 141.417 152.013 L 141.739 152.156 L 142.062 152.278 L 142.384 152.421 L 142.707 152.463 L 143.008 152.504 L 143.331 152.463 L 143.653 152.421 L 143.976 152.36 L 144.299 152.319 L 144.621 152.258 L 144.944 152.216 L 145.267 152.155 L 145.589 152.114 L 145.912 152.073 L 146.234 152.011 L 146.557 151.97 L 146.88 151.909 L 147.181 151.868 L 147.503 151.806 L 147.826 151.765 L 148.149 151.724 L 148.471 151.663 L 148.794 151.622 L 149.116 151.56 L 149.439 151.519 L 149.762 151.478 L 150.084 151.417 L 150.407 151.376 L 150.73 151.314 L 151.052 151.273 L 151.353 151.232 L 151.676 151.171 L 151.999 151.13 L 152.321 151.088 L 152.644 151.027 L 152.966 150.986 L 153.289 150.925 L 153.612 150.883 L 153.934 150.842 L 154.257 150.781 L 154.579 150.74 L 154.902 150.699 L 155.203 150.637 L 155.526 150.596 L 155.848 150.555 L 156.171 150.494 L 156.494 150.453 L 156.816 150.412 L 157.139 150.35 L 157.462 150.309 L 157.784 150.268 L 158.107 150.207 L 158.429 150.165 L 158.752 150.124 L 159.075 150.063 L 159.376 150.022 L 159.698 149.981 L 160.021 149.919 L 160.344 149.878 L 160.666 149.837 L 160.989 149.776 L 161.311 149.735 L 161.634 149.694 L 161.957 149.632 L 162.279 149.591 L 162.602 149.55 L 162.925 149.509 L 163.247 149.447 L 163.548 149.406 L 163.871 149.365 L 164.193 149.304 L 164.516 149.263 L 164.839 149.222 L 165.161 149.181 L 165.484 149.119 L 165.807 149.078 L 166.129 149.037 L 166.452 148.976 L 166.774 148.934 L 167.097 148.893 L 167.42 148.852 L 167.721 148.791 L 168.043 148.75 L 168.366 148.709 L 168.689 148.668 L 169.011 148.606 L 169.334 148.565 L 169.656 148.524 L 169.979 148.483 L 170.302 148.421 L 170.624 148.38 L 170.947 148.339 L 171.27 148.298 L 171.571 148.237 L 171.592 148.237" id="path10108" stroke="#77AC30" stroke-width="0.901786" stroke-linecap="butt" stroke-linejoin="round" stroke-miterlimit="4" stroke-dasharray="" stroke-opacity="1" fill="none"/><path d=" M 56.8382 146.99 L 56.8382 146.784 C 57.2325 146.784 57.4383 146.664 57.4383 146.441 L 57.4383 143.441 C 57.4383 143.321 57.2325 143.252 56.8382 143.252 L 56.8382 143.046 L 57.9355 143.046 C 57.9698 143.046 58.0041 143.081 58.0212 143.115 L 59.2728 146.373 L 60.5245 143.115 C 60.5417 143.081 60.5759 143.046 60.6274 143.046 L 61.7076 143.046 L 61.7076 143.252 C 61.3132 143.252 61.1246 143.321 61.1246 143.441 L 61.1246 146.595 C 61.1246 146.715 61.3132 146.784 61.7076 146.784 L 61.7076 146.99 L 60.0273 146.99 L 60.0273 146.784 C 60.4388 146.784 60.6274 146.715 60.6274 146.595 L 60.6274 143.252 L 59.2043 146.921 C 59.1871 146.973 59.17 146.99 59.1186 146.99 C 59.0672 146.99 59.0329 146.973 59.0157 146.921 L 57.6097 143.286 L 57.6097 146.441 C 57.6097 146.664 57.8155 146.784 58.2098 146.784 L 58.2098 146.99 Z" id="path10134" stroke="none" stroke-width="0.264583" fill="#77AC30" fill-rule="nonzero" fill-opacity="1"/><path d=" M 54.7464 144.812 L 54.7464 144.555 C 55.2779 144.555 55.5351 144.469 55.5351 144.315 L 55.5351 140.251 C 55.5351 140.097 55.2779 140.011 54.7464 140.011 L 54.7464 139.754 L 57.0268 139.754 L 57.0268 140.011 C 56.4953 140.011 56.2381 140.097 56.2381 140.251 L 56.2381 144.315 C 56.2381 144.469 56.4953 144.555 57.0268 144.555 L 57.0268 144.812 Z" id="path10136" stroke="none" stroke-width="0.264583" fill="#77AC30" fill-rule="nonzero" fill-opacity="1"/><path d=" M 23.9405 156.339 L 23.9405 156.339 L 24.2631 156.038 L 24.5857 155.737 L 24.9083 155.41 L 25.231 155.109 L 25.5536 154.783 L 25.8762 154.457 L 26.1988 154.155 L 26.5214 153.829 L 26.844 153.503 L 27.1667 153.176 L 27.4893 152.85 L 27.8119 152.524 L 28.113 152.197 L 28.4356 151.871 L 28.7582 151.545 L 29.0809 151.218 L 29.4035 150.917 L 29.7261 150.616 L 30.0487 150.315 L 30.3713 150.013 L 30.694 149.737 L 31.0166 149.436 L 31.3392 149.16 L 31.6618 148.909 L 31.9844 148.658 L 32.2855 148.407 L 32.6082 148.156 L 32.9308 147.93 L 33.2534 147.704 L 33.576 147.503 L 33.8986 147.302 L 34.2213 147.127 L 34.5439 146.951 L 34.8665 146.8 L 35.1891 146.65 L 35.5117 146.524 L 35.8343 146.399 L 36.157 146.298 L 36.4581 146.198 L 36.7807 146.123 L 37.1033 146.048 L 37.4259 145.997 L 37.7485 145.947 L 38.0712 145.922 L 38.3938 145.897 L 38.7164 145.897 L 39.039 145.922 L 39.3616 145.922 L 39.6843 145.972 L 40.0069 146.022 L 40.308 146.073 L 40.6306 146.148 L 40.9532 146.223 L 41.2758 146.324 L 41.5985 146.424 L 41.9211 146.549 L 42.2437 146.65 L 42.5663 146.8 L 42.8889 146.926 L 43.2115 147.076 L 43.5342 147.252 L 43.8568 147.402 L 44.1794 147.578 L 44.4805 147.754 L 44.8031 147.929 L 45.1258 148.13 L 45.4484 148.306 L 45.771 148.507 L 46.0936 148.708 L 46.4162 148.908 L 46.7388 149.109 L 47.0615 149.31 L 47.3841 149.511 L 47.7067 149.712 L 48.0293 149.912 L 48.3519 150.113 L 48.6531 150.314 L 48.9757 150.49 L 49.2983 150.691 L 49.6209 150.866 L 49.9435 151.042 L 50.2661 151.218 L 50.5888 151.393 L 50.9114 151.569 L 51.234 151.719 L 51.5566 151.87 L 51.8792 151.995 L 52.2019 152.246 L 52.5245 152.497 L 52.8256 152.849 L 53.1482 153.2 L 53.4708 153.527 L 53.7934 153.853 L 54.1161 154.154 L 54.4387 154.455 L 54.7613 154.732 L 55.0839 155.008 L 55.4065 155.259 L 55.7292 155.51 L 56.0518 155.761 L 56.3744 155.962 L 56.6755 156.188 L 56.9981 156.363 L 57.3207 156.564 L 57.6434 156.715 L 57.966 156.865 L 58.2886 157.016 L 58.6112 157.141 L 58.9338 157.267 L 59.2565 157.367 L 59.5791 157.443 L 59.9017 157.518 L 60.2243 157.593 L 60.5469 157.643 L 60.848 157.694 L 61.1707 157.719 L 61.4933 157.719 L 61.8159 157.744 L 62.1385 157.744 L 62.4611 157.593 L 62.7837 157.468 L 63.1064 157.192 L 63.429 156.916 L 63.7516 156.64 L 64.0742 156.338 L 64.3968 156.037 L 64.7195 155.736 L 65.0206 155.41 L 65.3432 155.108 L 65.6658 154.782 L 65.9884 154.456 L 66.311 154.154 L 66.6337 153.828 L 66.9563 153.502 L 67.2789 153.175 L 67.6015 152.849 L 67.9241 152.523 L 68.2467 152.196 L 68.5694 151.87 L 68.892 151.544 L 69.1931 151.217 L 69.5157 150.916 L 69.8383 150.615 L 70.1609 150.314 L 70.4836 150.012 L 70.8062 149.736 L 71.1288 149.435 L 71.4514 149.159 L 71.774 148.908 L 72.0967 148.657 L 72.4193 148.406 L 72.7419 148.155 L 73.0645 147.929 L 73.3656 147.703 L 73.6882 147.502 L 74.0109 147.301 L 74.3335 147.126 L 74.6561 146.95 L 74.9787 146.799 L 75.3013 146.649 L 75.624 146.523 L 75.9466 146.398 L 76.2692 146.298 L 76.5918 146.197 L 76.9144 146.122 L 77.2155 146.047 L 77.5382 145.996 L 77.8608 145.946 L 78.1834 145.921 L 78.506 145.896 L 78.8286 145.896 L 79.1513 145.921 L 79.4739 145.921 L 79.7965 145.971 L 80.1191 146.022 L 80.4417 146.072 L 80.7644 146.147 L 81.087 146.222 L 81.3881 146.323 L 81.7107 146.423 L 82.0333 146.549 L 82.3559 146.649 L 82.6786 146.8 L 83.0012 146.925 L 83.3238 147.076 L 83.6464 147.251 L 83.969 147.402 L 84.2916 147.578 L 84.6143 147.753 L 84.9369 147.929 L 85.2595 148.13 L 85.5606 148.305 L 85.8832 148.506 L 86.2058 148.707 L 86.5285 148.908 L 86.8511 149.109 L 87.1737 149.31 L 87.4963 149.51 L 87.8189 149.711 L 88.1416 149.912 L 88.4642 150.113 L 88.7868 150.314 L 89.1094 150.489 L 89.432 150.69 L 89.7331 150.866 L 90.0558 151.041 L 90.3784 151.217 L 90.701 151.393 L 91.0236 151.568 L 91.3462 151.719 L 91.6689 151.87 L 91.9915 151.995 L 92.3141 152.246 L 92.6367 152.497 L 92.9593 152.848 L 93.282 153.2 L 93.6046 153.526 L 93.9057 153.853 L 94.2283 154.154 L 94.5509 154.455 L 94.8735 154.731 L 95.1962 155.007 L 95.5188 155.258 L 95.8414 155.509 L 96.164 155.76 L 96.4866 155.961 L 96.8092 156.187 L 97.1319 156.363 L 97.4545 156.564 L 97.7556 156.714 L 98.0782 156.865 L 98.4008 157.015 L 98.7234 157.141 L 99.0461 157.266 L 99.3687 157.367 L 99.6913 157.442 L 100.014 157.517 L 100.337 157.592 L 100.659 157.643 L 100.982 157.693 L 101.304 157.718 L 101.627 157.718 L 101.928 157.743 L 102.251 157.743 L 102.573 157.592 L 102.896 157.467 L 103.219 157.191 L 103.541 156.915 L 103.864 156.639 L 104.186 156.337 L 104.509 156.036 L 104.832 155.735 L 105.154 155.408 L 105.477 155.107 L 105.8 154.781 L 106.101 154.455 L 106.423 154.153 L 106.746 153.827 L 107.069 153.501 L 107.391 153.174 L 107.714 152.848 L 108.036 152.522 L 108.359 152.195 L 108.682 151.869 L 109.004 151.543 L 109.327 151.216 L 109.649 150.915 L 109.972 150.614 L 110.273 150.313 L 110.596 150.011 L 110.918 149.735 L 111.241 149.434 L 111.564 149.158 L 111.886 148.907 L 112.209 148.656 L 112.532 148.405 L 112.854 148.154 L 113.177 147.928 L 113.499 147.702 L 113.822 147.501 L 114.123 147.3 L 114.446 147.125 L 114.768 146.949 L 115.091 146.798 L 115.414 146.648 L 115.736 146.522 L 116.059 146.397 L 116.381 146.296 L 116.704 146.196 L 117.027 146.121 L 117.349 146.046 L 117.672 145.995 L 117.995 145.945 L 118.296 145.92 L 118.618 145.895 L 118.941 145.895 L 119.263 145.92 L 119.586 145.92 L 119.909 145.97 L 120.231 146.02 L 120.554 146.071 L 120.877 146.146 L 121.199 146.221 L 121.522 146.322 L 121.844 146.422 L 122.167 146.548 L 122.468 146.648 L 122.791 146.798 L 123.113 146.924 L 123.436 147.075 L 123.759 147.25 L 124.081 147.401 L 124.404 147.576 L 124.727 147.752 L 125.049 147.928 L 125.372 148.128 L 125.694 148.304 L 126.017 148.505 L 126.34 148.706 L 126.641 148.907 L 126.963 149.107 L 127.286 149.308 L 127.609 149.509 L 127.931 149.71 L 128.254 149.911 L 128.576 150.111 L 128.899 150.312 L 129.222 150.488 L 129.544 150.689 L 129.867 150.864 L 130.189 151.04 L 130.512 151.216 L 130.813 151.391 L 131.136 151.567 L 131.458 151.718 L 131.781 151.868 L 132.104 151.994 L 132.426 152.245 L 132.749 152.496 L 133.072 152.847 L 133.394 153.199 L 133.717 153.525 L 134.039 153.851 L 134.362 154.153 L 134.663 154.454 L 134.986 154.73 L 135.308 155.006 L 135.631 155.257 L 135.954 155.508 L 136.276 155.759 L 136.599 155.96 L 136.921 156.186 L 137.244 156.362 L 137.567 156.562 L 137.889 156.713 L 138.212 156.864 L 138.535 157.014 L 138.836 157.14 L 139.158 157.265 L 139.481 157.366 L 139.804 157.441 L 140.126 157.516 L 140.449 157.591 L 140.771 157.642 L 141.094 157.692 L 141.417 157.717 L 141.739 157.717 L 142.062 157.742 L 142.384 157.742 L 142.707 157.591 L 143.008 157.466 L 143.331 157.19 L 143.653 156.914 L 143.976 156.638 L 144.299 156.336 L 144.621 156.035 L 144.944 155.734 L 145.267 155.408 L 145.589 155.106 L 145.912 154.78 L 146.234 154.454 L 146.557 154.152 L 146.88 153.826 L 147.181 153.5 L 147.503 153.173 L 147.826 152.847 L 148.149 152.521 L 148.471 152.194 L 148.794 151.868 L 149.116 151.542 L 149.439 151.215 L 149.762 150.914 L 150.084 150.613 L 150.407 150.312 L 150.73 150.01 L 151.052 149.734 L 151.353 149.433 L 151.676 149.157 L 151.999 148.906 L 152.321 148.655 L 152.644 148.404 L 152.966 148.153 L 153.289 147.927 L 153.612 147.701 L 153.934 147.5 L 154.257 147.299 L 154.579 147.124 L 154.902 146.948 L 155.203 146.798 L 155.526 146.647 L 155.848 146.521 L 156.171 146.396 L 156.494 146.296 L 156.816 146.195 L 157.139 146.12 L 157.462 146.045 L 157.784 145.994 L 158.107 145.944 L 158.429 145.919 L 158.752 145.894 L 159.075 145.894 L 159.376 145.919 L 159.698 145.919 L 160.021 145.969 L 160.344 146.02 L 160.666 146.07 L 160.989 146.145 L 161.311 146.22 L 161.634 146.321 L 161.957 146.421 L 162.279 146.546 L 162.602 146.647 L 162.925 146.798 L 163.247 146.923 L 163.548 147.074 L 163.871 147.249 L 164.193 147.4 L 164.516 147.576 L 164.839 147.751 L 165.161 147.927 L 165.484 148.128 L 165.807 148.303 L 166.129 148.504 L 166.452 148.705 L 166.774 148.906 L 167.097 149.107 L 167.42 149.307 L 167.721 149.508 L 168.043 149.709 L 168.366 149.91 L 168.689 150.111 L 169.011 150.312 L 169.334 150.487 L 169.656 150.688 L 169.979 150.864 L 170.302 151.039 L 170.624 151.215 L 170.947 151.391 L 171.27 151.566 L 171.571 151.717 L 171.592 151.717" id="path10170" stroke="#139FFF" stroke-width="0.999151" stroke-linecap="butt" stroke-linejoin="round" stroke-miterlimit="4" stroke-dasharray="" stroke-opacity="1" fill="none"/><path d=" M 82.1035 143.105 L 82.1035 142.847 C 82.635 142.847 82.8922 142.779 82.8922 142.624 L 82.8922 138.544 C 82.8922 138.389 82.635 138.321 82.1035 138.321 L 82.1035 138.047 L 84.3839 138.047 L 84.3839 138.321 C 83.8524 138.321 83.5952 138.389 83.5952 138.544 L 83.5952 142.624 C 83.5952 142.779 83.8524 142.847 84.3839 142.847 L 84.3839 143.105 Z" id="path10196" stroke="none" stroke-width="0.264583" fill="#139FFF" fill-rule="nonzero" fill-opacity="1"/><path d=" M 84.2296 146.311 L 84.2296 146.157 C 84.5382 146.157 84.6925 146.105 84.6925 146.019 L 84.6925 143.636 C 84.6925 143.55 84.5382 143.499 84.2296 143.499 L 84.2296 143.362 L 85.567 143.362 L 85.567 143.499 C 85.2412 143.499 85.0869 143.55 85.0869 143.636 L 85.0869 146.019 C 85.0869 146.105 85.2412 146.157 85.567 146.157 L 85.567 146.311 Z" id="path10198" stroke="none" stroke-width="0.264583" fill="#139FFF" fill-rule="nonzero" fill-opacity="1"/><path d=" M 85.8242 146.311 L 85.8242 146.157 C 86.1328 146.157 86.27 146.071 86.27 145.899 L 86.27 143.533 C 86.1842 143.516 86.0299 143.499 85.8242 143.499 L 85.8242 143.362 L 86.6643 143.362 C 86.6643 143.362 86.6815 143.362 86.6815 143.379 L 88.2246 145.625 L 88.2246 143.756 C 88.2246 143.585 88.0703 143.499 87.7788 143.499 L 87.7788 143.362 L 88.8076 143.362 L 88.8076 143.499 C 88.499 143.499 88.3618 143.585 88.3618 143.756 L 88.3618 146.259 C 88.3618 146.276 88.3446 146.276 88.3446 146.294 C 88.3275 146.294 88.3103 146.311 88.3103 146.311 L 88.2589 146.311 C 88.2418 146.311 88.2418 146.294 88.2246 146.294 L 86.4071 143.619 L 86.4071 145.899 C 86.4071 146.071 86.5615 146.156 86.8529 146.156 L 86.8529 146.311 Z" id="path10200" stroke="none" stroke-width="0.264583" fill="#139FFF" fill-rule="nonzero" fill-opacity="1"/><path d=" M 90.505 146.362 L 89.4934 143.636 C 89.4591 143.585 89.4077 143.55 89.3391 143.533 C 89.2705 143.516 89.1847 143.499 89.0647 143.499 L 89.0647 143.362 L 90.2649 143.362 L 90.2649 143.499 C 90.0249 143.499 89.9049 143.55 89.9049 143.619 C 89.9049 143.619 89.9049 143.619 89.9049 143.636 C 89.9049 143.636 89.9049 143.636 89.9049 143.636 L 90.7279 145.848 L 91.5166 143.756 C 91.5166 143.756 91.5337 143.739 91.5337 143.705 C 91.5337 143.636 91.4994 143.585 91.4308 143.55 C 91.3622 143.516 91.2936 143.499 91.2079 143.499 L 91.2079 143.362 L 92.1509 143.362 L 92.1509 143.499 C 92.0309 143.499 91.9452 143.533 91.8594 143.568 C 91.7737 143.602 91.7223 143.67 91.688 143.756 L 90.7107 146.362 C 90.6935 146.379 90.6764 146.397 90.6421 146.397 L 90.5735 146.397 C 90.5392 146.397 90.5221 146.38 90.5049 146.362 Z" id="path10202" stroke="none" stroke-width="0.264583" fill="#139FFF" fill-rule="nonzero" fill-opacity="1"/><path d=" M 23.9395 179.105 L 23.9395 179.096 L 24.2621 178.921 L 24.5847 178.743 L 24.9073 178.559 L 25.2299 178.372 L 25.5525 178.182 L 25.8752 177.992 L 26.1978 177.798 L 26.5204 177.602 L 26.843 177.409 L 27.1656 177.212 L 27.4883 177.016 L 27.8109 176.819 L 28.112 176.626 L 28.4346 176.433 L 28.7572 176.239 L 29.0798 176.052 L 29.4025 175.868 L 29.7251 175.684 L 30.0477 175.506 L 30.3703 175.334 L 30.6929 175.165 L 31.0156 175.003 L 31.3382 174.843 L 31.6608 174.693 L 31.9834 174.546 L 32.2845 174.407 L 32.6071 174.276 L 32.9298 174.153 L 33.2524 174.036 L 33.575 173.929 L 33.8976 173.828 L 34.2202 173.736 L 34.5428 173.653 L 34.8655 173.579 L 35.1881 173.515 L 35.5107 173.46 L 35.8333 173.414 L 36.1559 173.377 L 36.457 173.352 L 36.7797 173.334 L 37.1023 173.329 L 37.4249 173.329 L 37.7475 173.341 L 38.0701 173.363 L 38.3928 173.396 L 38.7154 173.436 L 39.038 173.485 L 39.3606 173.547 L 39.6832 173.614 L 40.0059 173.691 L 40.307 173.777 L 40.6296 173.872 L 40.9522 173.976 L 41.2748 174.087 L 41.5974 174.203 L 41.92 174.329 L 42.2427 174.464 L 42.5653 174.602 L 42.8879 174.75 L 43.2105 174.9 L 43.5331 175.06 L 43.8558 175.222 L 44.1784 175.388 L 44.4795 175.56 L 44.8021 175.738 L 45.1247 175.916 L 45.4473 176.097 L 45.77 176.284 L 46.0926 176.468 L 46.4152 176.658 L 46.7378 176.849 L 47.0604 177.039 L 47.3831 177.229 L 47.7057 177.416 L 48.0283 177.607 L 48.3509 177.794 L 48.652 177.981 L 48.9746 178.165 L 49.2973 178.346 L 49.6199 178.524 L 49.9425 178.699 L 50.2651 178.868 L 50.5877 179.033 L 50.9104 179.196 L 51.233 179.353 L 51.5556 179.503 L 51.8782 179.647 L 52.2008 179.788 L 52.5234 179.923 L 52.8246 180.055 L 53.1472 180.181 L 53.4698 180.298 L 53.7924 180.405 L 54.115 180.506 L 54.4376 180.598 L 54.7603 180.684 L 55.0829 180.758 L 55.4055 180.822 L 55.7281 180.881 L 56.0507 180.927 L 56.3734 180.964 L 56.6745 180.991 L 56.9971 181.01 L 57.3197 181.019 L 57.6423 181.015 L 57.9649 181.006 L 58.2876 180.984 L 58.6102 180.954 L 58.9328 180.914 L 59.2554 180.865 L 59.578 180.807 L 59.9007 180.739 L 60.2233 180.663 L 60.5459 180.577 L 60.847 180.481 L 61.1696 180.38 L 61.4922 180.27 L 61.8149 180.153 L 62.1375 180.027 L 62.4601 179.889 L 62.7827 179.748 L 63.1053 179.595 L 63.4279 179.435 L 63.7506 179.27 L 64.0732 179.098 L 64.3958 178.923 L 64.7184 178.745 L 65.0195 178.561 L 65.3421 178.374 L 65.6648 178.183 L 65.9874 177.993 L 66.31 177.8 L 66.6326 177.603 L 66.9552 177.41 L 67.2779 177.214 L 67.6005 177.017 L 67.9231 176.821 L 68.2457 176.628 L 68.5683 176.434 L 68.891 176.241 L 69.1921 176.054 L 69.5147 175.87 L 69.8373 175.686 L 70.1599 175.508 L 70.4825 175.336 L 70.8052 175.167 L 71.1278 175.004 L 71.4504 174.845 L 71.773 174.694 L 72.0956 174.547 L 72.4183 174.409 L 72.7409 174.277 L 73.0635 174.154 L 73.3646 174.038 L 73.6872 173.931 L 74.0098 173.829 L 74.3325 173.737 L 74.6551 173.654 L 74.9777 173.581 L 75.3003 173.516 L 75.6229 173.461 L 75.9455 173.415 L 76.2682 173.378 L 76.5908 173.353 L 76.9134 173.335 L 77.2145 173.33 L 77.5371 173.33 L 77.8597 173.343 L 78.1824 173.364 L 78.505 173.398 L 78.8276 173.438 L 79.1502 173.487 L 79.4729 173.548 L 79.7954 173.616 L 80.1181 173.693 L 80.4407 173.778 L 80.7633 173.874 L 81.0859 173.978 L 81.387 174.088 L 81.7097 174.205 L 82.0323 174.331 L 82.3549 174.466 L 82.6775 174.604 L 83.0001 174.751 L 83.3228 174.902 L 83.6454 175.061 L 83.968 175.224 L 84.2906 175.39 L 84.6132 175.561 L 84.9359 175.739 L 85.2585 175.917 L 85.5596 176.099 L 85.8822 176.286 L 86.2048 176.47 L 86.5274 176.66 L 86.8501 176.85 L 87.1727 177.041 L 87.4953 177.231 L 87.8179 177.418 L 88.1405 177.608 L 88.4631 177.795 L 88.7858 177.983 L 89.1084 178.167 L 89.431 178.348 L 89.7321 178.526 L 90.0547 178.701 L 90.3773 178.87 L 90.7 179.035 L 91.0226 179.198 L 91.3452 179.355 L 91.6678 179.505 L 91.9904 179.649 L 92.313 179.79 L 92.6357 179.925 L 92.9583 180.057 L 93.2809 180.183 L 93.6035 180.299 L 93.9046 180.407 L 94.2273 180.508 L 94.5499 180.6 L 94.8725 180.686 L 95.1951 180.76 L 95.5177 180.824 L 95.8404 180.882 L 96.163 180.928 L 96.4856 180.965 L 96.8082 180.993 L 97.1308 181.011 L 97.4534 181.02 L 97.7546 181.016 L 98.0772 181.007 L 98.3998 180.986 L 98.7224 180.955 L 99.045 180.915 L 99.3677 180.866 L 99.6903 180.808 L 100.013 180.74 L 100.336 180.664 L 100.658 180.578 L 100.981 180.483 L 101.303 180.381 L 101.626 180.271 L 101.927 180.154 L 102.25 180.029 L 102.572 179.891 L 102.895 179.749 L 103.218 179.596 L 103.54 179.437 L 103.863 179.271 L 104.185 179.099 L 104.508 178.924 L 104.831 178.746 L 105.153 178.562 L 105.476 178.375 L 105.799 178.185 L 106.1 177.994 L 106.422 177.801 L 106.745 177.605 L 107.067 177.411 L 107.39 177.215 L 107.713 177.019 L 108.035 176.822 L 108.358 176.629 L 108.681 176.436 L 109.003 176.242 L 109.326 176.055 L 109.648 175.871 L 109.971 175.687 L 110.272 175.509 L 110.595 175.337 L 110.917 175.168 L 111.24 175.006 L 111.563 174.846 L 111.885 174.696 L 112.208 174.549 L 112.53 174.41 L 112.853 174.279 L 113.176 174.156 L 113.498 174.039 L 113.821 173.932 L 114.122 173.831 L 114.445 173.739 L 114.767 173.656 L 115.09 173.582 L 115.413 173.518 L 115.735 173.463 L 116.058 173.417 L 116.38 173.38 L 116.703 173.355 L 117.026 173.337 L 117.348 173.332 L 117.671 173.332 L 117.993 173.345 L 118.295 173.366 L 118.617 173.4 L 118.94 173.44 L 119.262 173.489 L 119.585 173.55 L 119.908 173.617 L 120.23 173.694 L 120.553 173.78 L 120.876 173.875 L 121.198 173.98 L 121.521 174.09 L 121.843 174.207 L 122.166 174.332 L 122.467 174.467 L 122.79 174.606 L 123.112 174.753 L 123.435 174.903 L 123.758 175.063 L 124.08 175.225 L 124.403 175.391 L 124.725 175.563 L 125.048 175.741 L 125.371 175.919 L 125.693 176.1 L 126.016 176.287 L 126.339 176.471 L 126.64 176.662 L 126.962 176.852 L 127.285 177.042 L 127.608 177.232 L 127.93 177.42 L 128.253 177.61 L 128.575 177.797 L 128.898 177.984 L 129.221 178.168 L 129.543 178.349 L 129.866 178.527 L 130.188 178.702 L 130.511 178.871 L 130.812 179.037 L 131.135 179.199 L 131.457 179.356 L 131.78 179.506 L 132.103 179.65 L 132.425 179.791 L 132.748 179.926 L 133.071 180.058 L 133.393 180.184 L 133.716 180.301 L 134.038 180.408 L 134.361 180.509 L 134.662 180.601 L 134.985 180.687 L 135.307 180.761 L 135.63 180.825 L 135.953 180.884 L 136.275 180.93 L 136.598 180.967 L 136.92 180.994 L 137.243 181.013 L 137.566 181.022 L 137.888 181.018 L 138.211 181.009 L 138.534 180.987 L 138.835 180.957 L 139.157 180.917 L 139.48 180.868 L 139.803 180.809 L 140.125 180.742 L 140.448 180.665 L 140.77 180.579 L 141.093 180.484 L 141.416 180.383 L 141.738 180.272 L 142.061 180.156 L 142.383 180.03 L 142.706 179.892 L 143.007 179.751 L 143.33 179.597 L 143.652 179.438 L 143.975 179.272 L 144.298 179.1 L 144.62 178.925 L 144.943 178.747 L 145.266 178.563 L 145.588 178.376 L 145.911 178.186 L 146.233 177.996 L 146.556 177.802 L 146.879 177.606 L 147.18 177.413 L 147.502 177.216 L 147.825 177.02 L 148.148 176.823 L 148.47 176.63 L 148.793 176.437 L 149.115 176.244 L 149.438 176.056 L 149.761 175.872 L 150.083 175.688 L 150.406 175.51 L 150.729 175.338 L 151.051 175.169 L 151.352 175.007 L 151.675 174.847 L 151.997 174.697 L 152.32 174.55 L 152.643 174.412 L 152.965 174.28 L 153.288 174.157 L 153.611 174.04 L 153.933 173.933 L 154.256 173.832 L 154.578 173.74 L 154.901 173.657 L 155.202 173.583 L 155.525 173.519 L 155.847 173.464 L 156.17 173.418 L 156.493 173.381 L 156.815 173.356 L 157.138 173.338 L 157.46 173.333 L 157.783 173.333 L 158.106 173.345 L 158.428 173.367 L 158.751 173.401 L 159.074 173.44 L 159.375 173.49 L 159.697 173.551 L 160.02 173.618 L 160.343 173.695 L 160.665 173.781 L 160.988 173.876 L 161.31 173.981 L 161.633 174.091 L 161.956 174.208 L 162.278 174.333 L 162.601 174.469 L 162.923 174.607 L 163.246 174.754 L 163.547 174.904 L 163.87 175.064 L 164.192 175.227 L 164.515 175.392 L 164.838 175.564 L 165.16 175.742 L 165.483 175.92 L 165.806 176.101 L 166.128 176.288 L 166.451 176.472 L 166.773 176.663 L 167.096 176.853 L 167.419 177.043 L 167.72 177.233 L 168.042 177.42 L 168.365 177.611 L 168.688 177.798 L 169.01 177.985 L 169.333 178.169 L 169.655 178.35 L 169.978 178.528 L 170.301 178.703 L 170.623 178.872 L 170.946 179.038 L 171.269 179.2 L 171.57 179.357 L 171.591 179.362" id="path10398" stroke="#FF13A6" stroke-width="0.690525" stroke-linecap="butt" stroke-linejoin="round" stroke-miterlimit="4" stroke-dasharray="" stroke-opacity="1" fill="none"/><path d=" M 177.321 177.106 L 173.669 175.734 L 174.938 177.106 L 173.669 178.478 Z" id="path1100-9-0" stroke="none" stroke-width="0.264583" fill="#000000" fill-rule="nonzero" fill-opacity="1"/><path d=" M 178.096 123.956 L 174.444 122.585 L 175.713 123.956 L 174.444 125.328 Z" id="path1100-9-0-0" stroke="none" stroke-width="0.264583" fill="#000000" fill-rule="nonzero" fill-opacity="1"/><path d=" M 177.951 100.799 L 174.299 99.4274 L 175.568 100.799 L 174.299 102.171 Z" id="path1100-9-0-4" stroke="none" stroke-width="0.264583" fill="#000000" fill-rule="nonzero" fill-opacity="1"/><path d=" M 101.059 61.2856 L 97.4071 59.9139 L 98.693 61.2856 L 97.4071 62.6572 Z" id="path1132-0-4-8" stroke="none" stroke-width="0.264583" fill="#000000" fill-rule="nonzero" fill-opacity="1"/><path d=" M 62.9764 61.3832 L 66.6457 62.7549 L 65.3597 61.3832 L 66.6285 60.0115 Z" id="path1126-4-1-9" stroke="none" stroke-width="0.264583" fill="#000000" fill-rule="nonzero" fill-opacity="1"/><path d=" M 90.385 68.3753 L 86.7329 67.0036 L 88.0189 68.3753 L 86.7329 69.747 Z" id="path1132-0-4-9" stroke="none" stroke-width="0.264583" fill="#000000" fill-rule="nonzero" fill-opacity="1"/><path d=" M 63.6623 68.4733 L 67.3316 69.845 L 66.0456 68.4733 L 67.3144 67.1017 Z" id="path1126-4-1-0" stroke="none" stroke-width="0.264583" fill="#000000" fill-rule="nonzero" fill-opacity="1"/><path d=" M 23.826 63.742 L 22.4543 67.4112 L 23.826 66.1253 L 25.1977 67.4112 Z" id="path1108-3-5" stroke="none" stroke-width="0.264583" fill="#000000" fill-rule="nonzero" fill-opacity="1"/><path d=" M 23.778 102.856 L 22.4064 106.526 L 23.778 105.24 L 25.1497 106.526 Z" id="path1108-3-9" stroke="none" stroke-width="0.264583" fill="#000000" fill-rule="nonzero" fill-opacity="1"/><path d=" M 23.6722 141.629 L 22.3005 145.298 L 23.6722 144.012 L 25.0438 145.298 Z" id="path1108-3-99" stroke="none" stroke-width="0.264583" fill="#000000" fill-rule="nonzero" fill-opacity="1"/><text id="text4879-9" stroke="none" stroke-width="0.39769" fill="#000000" fill-opacity="1" font-family="Times New Roman" font-style="normal" font-variant="normal" font-weight="400" font-size="8.64977" text-anchor="start" letter-spacing="0" word-spacing="0" transform="matrix(0.951898,0,0,1.05053,0,0)" x="187.431" y="120.332"><tspan stroke-width="0.39769" x="187.431" y="120.332"><tspan stroke-width="0.39769" fill="#262626" font-family="Times New Roman" font-style="normal" font-variant="normal" font-weight="400" font-size="8.64977" dx="0" dy="0">t</tspan></tspan></text><text id="text4879-0" stroke="none" stroke-width="0.39769" fill="#000000" fill-opacity="1" font-family="Times New Roman" font-style="normal" font-variant="normal" font-weight="400" font-size="8.64977" text-anchor="start" letter-spacing="0" word-spacing="0" transform="matrix(0.951898,0,0,1.05053,0,0)" x="187.15" y="170.451"><tspan stroke-width="0.39769" x="187.15" y="170.451"><tspan stroke-width="0.39769" fill="#262626" font-family="Times New Roman" font-style="normal" font-variant="normal" font-weight="400" font-size="8.64977" dx="0" dy="0">t</tspan></tspan></text></g></g></svg>