<?xml version="1.0" encoding="UTF-8" standalone="no"?>
<svg
   xmlns:dc="http://purl.org/dc/elements/1.1/"
   xmlns:cc="http://creativecommons.org/ns#"
   xmlns:rdf="http://www.w3.org/1999/02/22-rdf-syntax-ns#"
   xmlns:svg="http://www.w3.org/2000/svg"
   xmlns="http://www.w3.org/2000/svg"
   xmlns:sodipodi="http://sodipodi.sourceforge.net/DTD/sodipodi-0.dtd"
   xmlns:inkscape="http://www.inkscape.org/namespaces/inkscape"
   width="210mm"
   height="297mm"
   viewBox="0 0 210 297"
   version="1.1"
   id="svg8"
   inkscape:version="1.0.2-2 (e86c870879, 2021-01-15)"
   sodipodi:docname="drawing.svg">
  <defs
     id="defs2">
    <pattern
       id="EMFhbasepattern"
       patternUnits="userSpaceOnUse"
       width="6"
       height="6"
       x="0"
       y="0" />
  </defs>
  <sodipodi:namedview
     id="base"
     pagecolor="#ffffff"
     bordercolor="#666666"
     borderopacity="1.0"
     inkscape:pageopacity="0.0"
     inkscape:pageshadow="2"
     inkscape:zoom="2.8"
     inkscape:cx="288.47747"
     inkscape:cy="275.62385"
     inkscape:document-units="mm"
     inkscape:current-layer="layer1"
     inkscape:document-rotation="0"
     showgrid="false"
     inkscape:window-width="1920"
     inkscape:window-height="1001"
     inkscape:window-x="-9"
     inkscape:window-y="-9"
     inkscape:window-maximized="1" />
  <metadata
     id="metadata5">
    <rdf:RDF>
      <cc:Work
         rdf:about="">
        <dc:format>image/svg+xml</dc:format>
        <dc:type
           rdf:resource="http://purl.org/dc/dcmitype/StillImage" />
        <dc:title></dc:title>
      </cc:Work>
    </rdf:RDF>
  </metadata>
  <g
     inkscape:label="Layer 1"
     inkscape:groupmode="layer"
     id="layer1">
    <path
       style="fill:none;stroke:#262626;stroke-width:0.145438px;stroke-linecap:butt;stroke-linejoin:round;stroke-miterlimit:4;stroke-dasharray:none;stroke-opacity:1"
       d="m 31.102789,100.50974 h 0.973313"
       id="path115" />
    <path
       style="fill:none;stroke:#262626;stroke-width:0.145438px;stroke-linecap:butt;stroke-linejoin:round;stroke-miterlimit:4;stroke-dasharray:none;stroke-opacity:1"
       d="m 128.29979,100.50974 h -0.96213"
       id="path125" />
    <path
       style="fill:none;stroke:#000000;stroke-width:0.123062px;stroke-linecap:butt;stroke-linejoin:round;stroke-miterlimit:4;stroke-dasharray:none;stroke-opacity:1"
       d="m 31.102789,52.627244 h 0.04475 v 0 h 0.04475 v 0 h 0.04475 v 0 h 0.04475 v 0 h 0.04475 v 0 h 0.04475 v 0 h 0.04475 v 0 h 0.04475 v 0 h 0.04475 v 0 h 0.04475 v 0 h 0.04475 v 0 h 0.04475 v 0 h 0.04475 v 0 h 0.04475 v 0 l 0.02238,31.917936 h 0.02238 v 0 h 0.04474 v 0 h 0.04475 v 0 h 0.04475 v 0 h 0.04475 v 0 h 0.04475 v 0 h 0.04475 v 0 h 0.04475 v 0 h 0.04475 v 0 h 0.04475 v 0 h 0.04475 v 0 h 0.04475 v 0 h 0.04475 v 0 h 0.04475 v 0 h 0.04475 v 0 h 0.04475 v 0 h 0.04475 v 0 h 0.04475 v 0 l 0.03356,-31.917936 h 0.01119 v 0 h 0.04475 v 0 h 0.04475 v 0 h 0.04475 v 0 h 0.04475 v 0 h 0.04475 v 0 h 0.04475 v 0 h 0.04475 v 0 h 0.04475 v 0 h 0.04475 v 0 h 0.04475 v 0 h 0.04475 v 0 h 0.04475 v 0 h 0.04475 v 0 h 0.04475 v 0 h 0.04475 v 0 h 0.04475 v 0 h 0.04475 v 0 h 0.04475 v 0 h 0.04475 v 0 h 0.04475 v 0 h 0.04475 v 0 h 0.04475 v 0 l 0.02238,31.917936 h 0.02237 v 0 h 0.04475 v 0 h 0.04475 v 0 h 0.04475 v 0 h 0.04475 v 0 h 0.04475 v 0 h 0.04475 v 0 h 0.04475 v 0 h 0.04475 v 0 h 0.04475 v 0 h 0.04475 v 0 h 0.04475 v 0 h 0.04475 v 0 h 0.04475 v 0 h 0.04475 v 0 h 0.04475 v 0 h 0.04475 v 0 h 0.04475 v 0 h 0.04475 v 0 h 0.04475 v 0 h 0.04475 v 0 h 0.04475 v 0 h 0.04475 v 0 h 0.04475 v 0 h 0.04475 v 0 h 0.04475 v 0 h 0.04475 v 0 h 0.04475 v 0 l 0.01119,-31.917936 h 0.03356 v 0 h 0.04475 v 0 h 0.04475 v 0 h 0.04475 v 0 h 0.04475 v 0 h 0.04475 v 0 h 0.04475 v 0 h 0.04475 v 0 h 0.04475 v 0 h 0.04475 v 0 h 0.04475 v 0 h 0.04475 v 0 h 0.04475 v 0 l 0.03356,31.917936 h 0.01119 v 0 h 0.04475 v 0 h 0.04475 v 0 h 0.04475 v 0 h 0.04475 v 0 h 0.04475 v 0 h 0.04475 v 0 h 0.04475 v 0 h 0.04475 v 0 h 0.04475 v 0 h 0.04475 v 0 h 0.04475 v 0 h 0.04475 v 0 h 0.04475 v 0 h 0.04475 v 0 h 0.04475 v 0 h 0.04475 v 0 h 0.04475 v 0 h 0.04475 v 0 h 0.04475 v 0 h 0.04475 v 0 h 0.04475 v 0 h 0.04475 v 0 h 0.04475 v 0 h 0.04475 v 0 h 0.04475 v 0 h 0.04475 v 0 h 0.04475 v 0 h 0.04475 v 0 h 0.04475 v 0 h 0.04475 v 0 h 0.04475 v 0 h 0.04475 v 0 h 0.04475 v 0 h 0.04475 v 0 h 0.04475 v 0 l 0.01119,-31.917936 h 0.03356 v 0 h 0.04475 v 0 h 0.04475 v 0 h 0.04475 v 0 h 0.04475 v 0 h 0.04475 v 0 h 0.04475 v 0 l 0.01119,31.917936 h 0.03356 v 0 h 0.04475 v 0 h 0.04475 v 0 h 0.04475 v 0 h 0.04475 v 0 h 0.04475 v 0 h 0.04475 v 0 h 0.04475 v 0 h 0.04475 v 0 h 0.04475 v 0 h 0.04475 v 0 h 0.04475 v 0 h 0.04475 v 0 h 0.04475 v 0 h 0.04475 v 0 h 0.04475 v 0 h 0.04475 v 0 h 0.04475 v 0 h 0.04475 v 0 h 0.04475 v 0 h 0.04475 v 0 h 0.04475 v 0 h 0.04475 v 0 h 0.04475 v 0 h 0.04475 v 0 h 0.04475 v 0 h 0.04475 v 0 h 0.04475 v 0 h 0.04475 v 0 h 0.04475 v 0 h 0.04475 v 0 h 0.04475 v 0 h 0.04475 v 0 h 0.04475 v 0 h 0.04475 v 0 h 0.04475 v 0 h 0.04475 v 0 h 0.04475 v 0 h 0.04475 v 0 l 0.03356,-31.917936 h 0.01119 v 0 h 0.04475 v 0 h 0.04475 v 0 h 0.04475 v 0 h 0.04475 v 0 l 0.02238,31.917936 h 0.02237 v 0 h 0.04475 v 0 h 0.04475 v 0 h 0.04475 v 0 h 0.04475 v 0 h 0.04475 v 0 h 0.04475 v 0 h 0.04475 v 0 h 0.04475 v 0 h 0.04475 v 0 h 0.04475 v 0 h 0.04475 v 0 h 0.04475 v 0 h 0.04475 v 0 h 0.04475 v 0 h 0.04475 v 0 h 0.04475 v 0 h 0.04475 v 0 h 0.04475 v 0 h 0.04475 v 0 h 0.04475 v 0 h 0.04475 v 0 h 0.04475 v 0 h 0.04475 v 0 h 0.04475 v 0 h 0.04475 v 0 h 0.04475 v 0 h 0.04475 v 0 h 0.04475 v 0 h 0.04475 v 0 h 0.04475 v 0 h 0.04475 v 0 h 0.04475 v 0 h 0.04475 v 0 h 0.04475 v 0 h 0.04475 v 0 h 0.04475 v 0 h 0.04475 v 0 h 0.04475 v 0 l 0.04475,-31.917936 v 0 0 h 0.04475 v 0 h 0.04475 v 0 h 0.04475 v 0 h 0.04475 v 0 h 0.04475 v 0 h 0.04475 v 0 l 0.04475,31.917936 v 0 0 h 0.04475 v 0 h 0.04475 v 0 h 0.04475 v 0 h 0.04475 v 0 h 0.04475 v 0 h 0.04475 v 0 h 0.04475 v 0 h 0.04475 v 0 h 0.04475 v 0 h 0.04475 v 0 h 0.04475 v 0 h 0.04475 v 0 h 0.04475 v 0 h 0.04475 v 0 h 0.04475 v 0 h 0.04475 v 0 h 0.04475 v 0 h 0.04475 v 0 h 0.04475 v 0 h 0.04475 v 0 h 0.04475 v 0 h 0.04475 v 0 h 0.04475 v 0 h 0.04475 v 0 h 0.04475 v 0 h 0.04475 v 0 h 0.04475 v 0 h 0.04475 v 0 h 0.04475 v 0 h 0.04475 v 0 h 0.04475 v 0 h 0.04475 v 0 h 0.04475 v 0 h 0.04475 v 0 h 0.04475 v 0 l 0.02238,-31.917936 h 0.02238 v 0 h 0.04475 v 0 h 0.04475 v 0 h 0.04475 v 0 h 0.04475 v 0 h 0.04475 v 0 h 0.04474 v 0 h 0.04475 v 0 h 0.04475 v 0 h 0.04475 v 0 h 0.04475 v 0 h 0.04475 v 0 h 0.04475 v 0 l 0.04475,31.917936 v 0 0 h 0.04475 v 0 h 0.04475 v 0 h 0.04475 v 0 h 0.04475 v 0 h 0.04475 v 0 h 0.04475 v 0 h 0.04475 v 0 h 0.04475 v 0 h 0.04475 v 0 h 0.04475 v 0 h 0.04475 v 0 h 0.04475 v 0 h 0.04475 v 0 h 0.04475 v 0 h 0.04475 v 0 h 0.04475 v 0 h 0.04475 v 0 h 0.04475 v 0 h 0.04475 v 0 h 0.04475 v 0 h 0.04475 v 0 h 0.04475 v 0 h 0.04475 v 0 h 0.04475 v 0 h 0.04475 v 0 h 0.04475 v 0 h 0.04475 v 0 l 0.03356,-31.917936 h 0.01119 v 0 h 0.04475 v 0 h 0.04475 v 0 h 0.04475 v 0 h 0.04475 v 0 h 0.04475 v 0 h 0.04475 v 0 h 0.04475 v 0 h 0.04475 v 0 h 0.04475 v 0 h 0.04475 v 0 h 0.04475 v 0 h 0.04475 v 0 h 0.04475 v 0 h 0.04475 v 0 h 0.04475 v 0 h 0.04475 v 0 h 0.04475 v 0 h 0.04475 v 0 h 0.04475 v 0 h 0.04475 v 0 h 0.04475 v 0 h 0.04475 v 0 l 0.02238,31.917936 h 0.02237 v 0 h 0.04475 v 0 h 0.04475 v 0 h 0.04475 v 0 h 0.04475 v 0 h 0.04475 v 0 h 0.04475 v 0 h 0.04475 v 0 h 0.04475 v 0 h 0.04475 v 0 h 0.04475 v 0 h 0.04475 v 0 h 0.04475 v 0 h 0.04475 v 0 h 0.04475 v 0 h 0.04475 v 0 h 0.04475 v 0 h 0.04475 v 0 l 0.03356,-31.917936 h 0.01119 v 0 h 0.04475 v 0 h 0.04475 v 0 h 0.04475 v 0 h 0.04475 v 0 h 0.04475 v 0 h 0.04475 v 0 h 0.04475 v 0 h 0.04475 v 0 h 0.04475 v 0 h 0.04475 v 0 h 0.04475 v 0 h 0.04475 v 0 h 0.04475 v 0 h 0.04475 v 0 h 0.04475 v 0 h 0.04475 v 0 h 0.04475 v 0 h 0.04475 v 0 h 0.04475 v 0 h 0.04475 v 0 h 0.04475 v 0 h 0.04475 v 0 h 0.04475 v 0 h 0.04475 v 0 h 0.04475 v 0 h 0.04475 v 0 h 0.04475 v 0 h 0.04475 v 0 h 0.04475 v 0 h 0.04475 v 0 h 0.04475 v 0 l 0.02238,31.917936 h 0.02238 v 0 h 0.04475 v 0 h 0.04475 v 0 h 0.04475 v 0 h 0.04475 v 0 h 0.04475 v 0 h 0.04475 v 0 h 0.04475 v 0 h 0.04474 v 0 h 0.04475 v 0 l 0.01119,-31.917936 h 0.03356 v 0 h 0.04475 v 0 h 0.04475 v 0 h 0.04475 v 0 h 0.04475 v 0 h 0.04475 v 0 h 0.04475 v 0 h 0.04475 v 0 h 0.04475 v 0 h 0.04475 v 0 h 0.04475 v 0 h 0.04475 v 0 h 0.04475 v 0 h 0.04475 v 0 h 0.04475 v 0 h 0.04475 v 0 h 0.04475 v 0 h 0.04475 v 0 h 0.04475 v 0 h 0.04475 v 0 h 0.04475 v 0 h 0.04475 v 0 h 0.04475 v 0 h 0.04475 v 0 h 0.04475 v 0 h 0.04475 v 0 h 0.04475 v 0 h 0.04475 v 0 h 0.04475 v 0 h 0.04475 v 0 h 0.04475 v 0 h 0.04475 v 0 h 0.04475 v 0 h 0.04475 v 0 h 0.04475 v 0 h 0.04475 v 0 h 0.04475 v 0 h 0.04475 v 0 l 0.01119,31.917936 h 0.03356 v 0 h 0.04475 v 0 h 0.04475 v 0 h 0.04475 v 0 h 0.04475 v 0 l 0.02238,-31.917936 h 0.02237 v 0 h 0.04475 v 0 h 0.04475 v 0 h 0.04475 v 0 h 0.04475 v 0 h 0.04475 v 0 h 0.04475 v 0 h 0.04475 v 0 h 0.04475 v 0 h 0.04475 v 0 h 0.04475 v 0 h 0.04475 v 0 h 0.04475 v 0 h 0.04475 v 0 h 0.04475 v 0 h 0.04475 v 0 h 0.04475 v 0 h 0.04475 v 0 h 0.04475 v 0 h 0.04475 v 0 h 0.04475 v 0 h 0.04475 v 0 h 0.04475 v 0 h 0.04475 v 0 h 0.04475 v 0 h 0.04475 v 0 h 0.04475 v 0 h 0.04475 v 0 h 0.04475 v 0 h 0.04475 v 0 h 0.04475 v 0 h 0.04475 v 0 h 0.04475 v 0 h 0.04475 v 0 h 0.04475 v 0 h 0.04475 v 0 h 0.04475 v 0 h 0.04475 v 0 h 0.04475 v 0 h 0.04475 v 0 l 0.03356,31.917936 h 0.01119 v 0 h 0.04475 v 0 h 0.04475 v 0 h 0.04475 v 0 h 0.04475 v 0 l 0.04475,-31.917936 v 0 0 h 0.04475 v 0 h 0.04475 v 0 h 0.04475 v 0 h 0.04475 v 0 h 0.04475 v 0 h 0.04475 v 0 h 0.04475 v 0 h 0.04475 v 0 h 0.04475 v 0 h 0.04475 v 0 h 0.04475 v 0 h 0.04475 v 0 h 0.04475 v 0 h 0.04475 v 0 h 0.04475 v 0 h 0.04475 v 0 h 0.04475 v 0 h 0.04475 v 0 h 0.04475 v 0 h 0.04475 v 0 h 0.04475 v 0 h 0.04475 v 0 h 0.04475 v 0 h 0.04475 v 0 h 0.04475 v 0 h 0.04475 v 0 h 0.04475 v 0 h 0.04475 v 0 h 0.04475 v 0 h 0.04475 v 0 h 0.04475 v 0 h 0.04475 v 0 h 0.04475 v 0 h 0.04475 v 0 h 0.04475 v 0 h 0.04475 v 0 h 0.04475 v 0 l 0.04475,31.917936 v 0 0 h 0.04475 v 0 h 0.04475 v 0 h 0.04475 v 0 h 0.04475 v 0 h 0.04475 v 0 h 0.04475 v 0 h 0.04475 v 0 h 0.04475 v 0 h 0.04475 v 0 l 0.03356,-31.917936 h 0.01119 v 0 h 0.04475 v 0 h 0.04475 v 0 h 0.04475 v 0 h 0.04475 v 0 h 0.04475 v 0 h 0.04475 v 0 h 0.04475 v 0 h 0.04475 v 0 h 0.04475 v 0 h 0.04475 v 0 h 0.04475 v 0 h 0.04475 v 0 h 0.04475 v 0 h 0.04475 v 0 h 0.04475 v 0 h 0.04475 v 0 h 0.04475 v 0 h 0.04475 v 0 h 0.04475 v 0 h 0.04475 v 0 h 0.04475 v 0 h 0.04475 v 0 h 0.04475 v 0 h 0.04475 v 0 h 0.04475 v 0 h 0.04475 v 0 h 0.04475 v 0 h 0.04475 v 0 h 0.04475 v 0 h 0.04475 v 0 h 0.04475 v 0 l 0.02238,31.917936 h 0.02237 v 0 h 0.04475 v 0 h 0.04475 v 0 h 0.04475 v 0 h 0.04475 v 0 h 0.04475 v 0 h 0.04475 v 0 h 0.04475 v 0 h 0.04475 v 0 h 0.04475 v 0 h 0.04475 v 0 h 0.04475 v 0 h 0.04475 v 0 h 0.04475 v 0 h 0.04475 v 0 h 0.04475 v 0 h 0.04475 v 0 h 0.04475 v 0 l 0.03356,-31.917936 h 0.01119 v 0 h 0.04475 v 0 h 0.04475 v 0 h 0.04475 v 0 h 0.04475 v 0 h 0.04475 v 0 h 0.04475 v 0 h 0.04475 v 0 h 0.04475 v 0 h 0.04475 v 0 h 0.04475 v 0 h 0.04475 v 0 h 0.04475 v 0 h 0.04475 v 0 h 0.04475 v 0 h 0.04475 v 0 h 0.04475 v 0 h 0.04475 v 0 h 0.04475 v 0 h 0.04475 v 0 h 0.04475 v 0 h 0.04475 v 0 h 0.04475 v 0 l 0.02238,31.917936 h 0.02237 v 0 h 0.04475 v 0 h 0.04475 v 0 h 0.04475 v 0 h 0.04475 v 0 h 0.04475 v 0 h 0.04475 v 0 h 0.04475 v 0 h 0.04475 v 0 h 0.04475 v 0 h 0.04475 v 0 h 0.04475 v 0 h 0.04475 v 0 h 0.04475 v 0 h 0.04475 v 0 h 0.04475 v 0 h 0.04475 v 0 h 0.04475 v 0 h 0.04475 v 0 h 0.04475 v 0 h 0.04475 v 0 h 0.04475 v 0 h 0.04475 v 0 h 0.04475 v 0 h 0.04475 v 0 h 0.04475 v 0 h 0.04475 v 0 h 0.04475 v 0 l 0.01119,-31.917936 h 0.03356 v 0 h 0.04475 v 0 h 0.04475 v 0 h 0.04475 v 0 h 0.04475 v 0 h 0.04475 v 0 h 0.04475 v 0 h 0.04475 v 0 h 0.04475 v 0 h 0.04475 v 0 h 0.04475 v 0 h 0.04475 v 0 h 0.04475 v 0 l 0.03356,31.917936 h 0.01119 v 0 h 0.04475 v 0 h 0.04475 v 0 h 0.04475 v 0 h 0.04475 v 0 h 0.04475 v 0 h 0.04475 v 0 h 0.04475 v 0 h 0.04475 v 0 h 0.04475 v 0 h 0.04475 v 0 h 0.04475 v 0 h 0.04475 v 0 h 0.04475 v 0 h 0.04475 v 0 h 0.04475 v 0 h 0.04475 v 0 h 0.04475 v 0 h 0.04475 v 0 h 0.04475 v 0 h 0.04475 v 0 h 0.04475 v 0 h 0.04475 v 0 h 0.04475 v 0 h 0.04475 v 0 h 0.04475 v 0 h 0.04475 v 0 h 0.04475 v 0 h 0.04475 v 0 h 0.04475 v 0 h 0.04475 v 0 h 0.04475 v 0 h 0.04475 v 0 h 0.04475 v 0 h 0.04475 v 0 h 0.04475 v 0 l 0.01119,-31.917936 h 0.03356 v 0 h 0.04475 v 0 h 0.04475 v 0 h 0.04475 v 0 h 0.04475 v 0 h 0.04475 v 0 h 0.04475 v 0 l 0.01119,31.917936 h 0.03356 v 0 h 0.04475 v 0 h 0.04475 v 0 h 0.04475 v 0 h 0.04475 v 0 h 0.04475 v 0 h 0.04475 v 0 h 0.04475 v 0 h 0.04475 v 0 h 0.04475 v 0 h 0.04475 v 0 h 0.04475 v 0 h 0.04475 v 0 h 0.04475 v 0 h 0.04475 v 0 h 0.04475 v 0 h 0.04475 v 0 h 0.04475 v 0 h 0.04475 v 0 h 0.04475 v 0 h 0.04475 v 0 h 0.04475 v 0 h 0.04475 v 0 h 0.04475 v 0 h 0.04475 v 0 h 0.04475 v 0 h 0.04475 v 0 h 0.04475 v 0 h 0.04475 v 0 h 0.04475 v 0 h 0.04475 v 0 h 0.04475 v 0 h 0.04475 v 0 h 0.04475 v 0 h 0.04475 v 0 h 0.04475 v 0 h 0.04475 v 0 h 0.04475 v 0 h 0.04475 v 0 l 0.03356,-31.917936 h 0.01119 v 0 h 0.04475 v 0 h 0.04475 v 0 h 0.04475 v 0 h 0.04475 v 0 l 0.02238,31.917936 h 0.02238 v 0 h 0.04474 v 0 h 0.04475 v 0 h 0.04475 v 0 h 0.04475 v 0 h 0.04475 v 0 h 0.04475 v 0 h 0.04475 v 0 h 0.04475 v 0 h 0.04475 v 0 h 0.04475 v 0 h 0.04475 v 0 h 0.04475 v 0 h 0.04475 v 0 h 0.04475 v 0 h 0.04475 v 0 h 0.04475 v 0 h 0.04475 v 0 h 0.04475 v 0 h 0.04475 v 0 h 0.04475 v 0 h 0.04475 v 0 h 0.04475 v 0 h 0.04475 v 0 h 0.04475 v 0 h 0.04475 v 0 h 0.04475 v 0 h 0.04475 v 0 h 0.04475 v 0 h 0.04475 v 0 h 0.04475 v 0 h 0.04475 v 0 h 0.04475 v 0 h 0.04475 v 0 h 0.04475 v 0 h 0.04475 v 0 h 0.04475 v 0 h 0.04475 v 0 h 0.04475 v 0 l 0.04475,-31.917936 v 0 0 h 0.04475 v 0 h 0.04475 v 0 h 0.04475 v 0 h 0.04475 v 0 h 0.04475 v 0 h 0.04475 v 0 l 0.04475,31.917936 v 0 0 h 0.04475 v 0 h 0.04475 v 0 h 0.04475 v 0 h 0.04475 v 0 h 0.04475 v 0 h 0.04475 v 0 h 0.04475 v 0 h 0.04475 v 0 h 0.04475 v 0 h 0.04475 v 0 h 0.04475 v 0 h 0.04475 v 0 h 0.04475 v 0 h 0.04475 v 0 h 0.04475 v 0 h 0.04475 v 0 h 0.04475 v 0 h 0.04475 v 0 h 0.04475 v 0 h 0.04475 v 0 h 0.04475 v 0 h 0.04475 v 0 h 0.04475 v 0 h 0.04475 v 0 h 0.04475 v 0 h 0.04475 v 0 h 0.04475 v 0 h 0.04475 v 0 h 0.04475 v 0 h 0.04475 v 0 h 0.04475 v 0 h 0.04475 v 0 h 0.04475 v 0 h 0.04475 v 0 h 0.04475 v 0 l 0.02238,-31.917936 h 0.02237 v 0 h 0.04475 v 0 h 0.04475 v 0 h 0.04475 v 0 h 0.04475 v 0 h 0.04475 v 0 h 0.04475 v 0 h 0.04475 v 0 h 0.04475 v 0 h 0.04475 v 0 h 0.04475 v 0 h 0.04475 v 0 h 0.04475 v 0 l 0.04475,31.917936 v 0 0 h 0.04475 v 0 h 0.04475 v 0 h 0.04475 v 0 h 0.04475 v 0 h 0.04475 v 0 h 0.04475 v 0 h 0.04475 v 0 h 0.04475 v 0 h 0.04475 v 0 h 0.04475 v 0 h 0.04475 v 0 h 0.04475 v 0 h 0.04475 v 0 h 0.04475 v 0 h 0.04475 v 0 h 0.04475 v 0 h 0.04475 v 0 h 0.04475 v 0 h 0.04475 v 0 h 0.04475 v 0 h 0.04475 v 0 h 0.04475 v 0 h 0.04475 v 0 h 0.04475 v 0 h 0.04475 v 0 h 0.04475 v 0 h 0.04475 v 0 l 0.03356,-31.917936 h 0.01119 v 0 h 0.04475 v 0 h 0.04475 v 0 h 0.04475 v 0 h 0.04475 v 0 h 0.04475 v 0 h 0.04475 v 0 h 0.04475 v 0 h 0.04475 v 0 h 0.04475 v 0 h 0.04475 v 0 h 0.04475 v 0 h 0.04475 v 0 h 0.04475 v 0 h 0.04475 v 0 h 0.04475 v 0 h 0.04475 v 0 h 0.04475 v 0 h 0.04475 v 0 h 0.04475 v 0 h 0.04475 v 0 h 0.04475 v 0 h 0.04475 v 0 l 0.02237,31.917936 h 0.02238 v 0 h 0.04475 v 0 h 0.04475 v 0 h 0.04475 v 0 h 0.04475 v 0 h 0.04475 v 0 h 0.04475 v 0 h 0.04475 v 0 h 0.04475 v 0 h 0.04475 v 0 h 0.04475 v 0 h 0.04475 v 0 h 0.04475 v 0 h 0.04475 v 0 h 0.04475 v 0 h 0.04475 v 0 h 0.04475 v 0 h 0.04475 v 0 l 0.03356,-31.917936 h 0.01119 v 0 h 0.04475 v 0 h 0.04475 v 0 h 0.04475 v 0 h 0.04475 v 0 h 0.04475 v 0 h 0.04475 v 0 h 0.04475 v 0 h 0.04475 v 0 h 0.04475 v 0 h 0.04475 v 0 h 0.04475 v 0 h 0.04475 v 0 h 0.04475 v 0 h 0.04475 v 0 h 0.04475 v 0 h 0.04475 v 0 h 0.04475 v 0 h 0.04475 v 0 h 0.04475 v 0 h 0.04475 v 0 h 0.04475 v 0 h 0.04475 v 0 h 0.04475 v 0 h 0.04475 v 0 h 0.04475 v 0 h 0.04475 v 0 h 0.04475 v 0 h 0.04475 v 0 h 0.04475 v 0 h 0.04475 v 0 h 0.04475 v 0 l 0.02238,31.917936 h 0.02237 v 0 h 0.04475 v 0 h 0.04475 v 0 h 0.04475 v 0 h 0.04475 v 0 h 0.04475 v 0 h 0.04475 v 0 h 0.04475 v 0 h 0.04475 v 0 h 0.04475 v 0 l 0.01119,-31.917936 h 0.03356 v 0 h 0.04475 v 0 h 0.04475 v 0 h 0.04475 v 0 h 0.04475 v 0 h 0.04475 v 0 h 0.04475 v 0 h 0.04475 v 0 h 0.04475 v 0 h 0.04475 v 0 h 0.04475 v 0 h 0.04475 v 0 h 0.04475 v 0 h 0.04475 v 0 h 0.04475 v 0 h 0.04475 v 0 h 0.04475 v 0 h 0.04475 v 0 h 0.04475 v 0 h 0.04475 v 0 h 0.04475 v 0 h 0.04475 v 0 h 0.04475 v 0 h 0.04475 v 0 h 0.04475 v 0 h 0.04475 v 0 h 0.04475 v 0 h 0.04475 v 0 h 0.04475 v 0 h 0.04475 v 0 h 0.04475 v 0 h 0.04475 v 0 h 0.04475 v 0 h 0.04475 v 0 h 0.04475 v 0 h 0.04475 v 0 h 0.04475 v 0 h 0.04475 v 0 l 0.01119,31.917936 h 0.03356 v 0 h 0.04475 v 0 h 0.04475 v 0 h 0.04475 v 0 h 0.04475 v 0 l 0.02238,-31.917936 h 0.02238 v 0 h 0.04475 v 0 h 0.04475 v 0 h 0.04475 v 0 h 0.04475 v 0 h 0.04475 v 0 h 0.04475 v 0 h 0.04475 v 0 h 0.04474 v 0 h 0.04475 v 0 h 0.04475 v 0 h 0.04475 v 0 h 0.04475 v 0 h 0.04475 v 0 h 0.04475 v 0 h 0.04475 v 0 h 0.04475 v 0 h 0.04475 v 0 h 0.04475 v 0 h 0.04475 v 0 h 0.04475 v 0 h 0.04475 v 0 h 0.04475 v 0 h 0.04475 v 0 h 0.04475 v 0 h 0.04475 v 0 h 0.04475 v 0 h 0.04475 v 0 h 0.04475 v 0 h 0.04475 v 0 h 0.04475 v 0 h 0.04475 v 0 h 0.04475 v 0 h 0.04475 v 0 h 0.04475 v 0 h 0.04475 v 0 h 0.04475 v 0 h 0.04475 v 0 h 0.04475 v 0 h 0.04475 v 0 l 0.03356,31.917936 h 0.01119 v 0 h 0.04475 v 0 h 0.04475 v 0 h 0.04475 v 0 h 0.04475 v 0 l 0.04475,-31.917936 v 0 0 h 0.04475 v 0 h 0.04475 v 0 h 0.04475 v 0 h 0.04475 v 0 h 0.04475 v 0 h 0.04475 v 0 h 0.04475 v 0 h 0.04475 v 0 h 0.04475 v 0 h 0.04475 v 0 h 0.04475 v 0 h 0.04475 v 0 h 0.04475 v 0 h 0.04475 v 0 h 0.04475 v 0 h 0.04475 v 0 h 0.04475 v 0 h 0.04475 v 0 h 0.04475 v 0 h 0.04475 v 0 h 0.04475 v 0 h 0.04475 v 0 h 0.04475 v 0 h 0.04475 v 0 h 0.04475 v 0 h 0.04475 v 0 h 0.04475 v 0 h 0.04475 v 0 h 0.04475 v 0 h 0.04475 v 0 h 0.04475 v 0 h 0.04475 v 0 h 0.04475 v 0 h 0.04475 v 0 h 0.04475 v 0 h 0.04475 v 0 h 0.04475 v 0 l 0.04475,31.917936 v 0 0 h 0.04475 v 0 h 0.04475 v 0 h 0.04475 v 0 h 0.04475 v 0 h 0.04475 v 0 h 0.04475 v 0 h 0.04475 v 0 h 0.04475 v 0 h 0.04475 v 0 l 0.03356,-31.917936 h 0.01119 v 0 h 0.04475 v 0 h 0.04475 v 0 h 0.04475 v 0 h 0.04475 v 0 h 0.04475 v 0 h 0.04475 v 0 h 0.04475 v 0 h 0.04475 v 0 h 0.04475 v 0 h 0.04475 v 0 h 0.04475 v 0 h 0.04475 v 0 h 0.04475 v 0 h 0.04475 v 0 h 0.04475 v 0 h 0.04475 v 0 h 0.04475 v 0 h 0.04475 v 0 h 0.04475 v 0 h 0.04475 v 0 h 0.04475 v 0 h 0.04475 v 0 h 0.04475 v 0 h 0.04475 v 0 h 0.04475 v 0 h 0.04475 v 0 h 0.04475 v 0 h 0.04475 v 0 h 0.04475 v 0 h 0.04475 v 0 h 0.04475 v 0 l 0.02237,31.917936 h 0.02238 v 0 h 0.04475 v 0 h 0.04475 v 0 h 0.04475 v 0 h 0.04475 v 0 h 0.04475 v 0 h 0.04475 v 0 h 0.04475 v 0 h 0.04475 v 0 h 0.04475 v 0 h 0.04475 v 0 h 0.04475 v 0 h 0.04475 v 0 h 0.04475 v 0 h 0.04475 v 0 h 0.04475 v 0 h 0.04475 v 0 h 0.04475 v 0 l 0.03356,-31.917936 h 0.01119 v 0 h 0.04475 v 0 h 0.04475 v 0 h 0.04475 v 0 h 0.04475 v 0 h 0.04475 v 0 h 0.04475 v 0 h 0.04475 v 0 h 0.04475 v 0 h 0.04475 v 0 h 0.04475 v 0 h 0.04475 v 0 h 0.04475 v 0 h 0.04475 v 0 h 0.04475 v 0 h 0.04475 v 0 h 0.04475 v 0 h 0.04475 v 0 h 0.04475 v 0 h 0.04475 v 0 h 0.04475 v 0 h 0.04475 v 0 h 0.04475 v 0 l 0.02238,31.917936 h 0.02238 v 0 h 0.04475 v 0 h 0.04475 v 0 h 0.04475 v 0 h 0.04475 v 0 h 0.04475 v 0 h 0.04474 v 0 h 0.04475 v 0 h 0.04475 v 0 h 0.04475 v 0 h 0.04475 v 0 h 0.04475 v 0 h 0.04475 v 0 h 0.04475 v 0 h 0.04475 v 0 h 0.04475 v 0 h 0.04475 v 0 h 0.04475 v 0 h 0.04475 v 0 h 0.04475 v 0 h 0.04475 v 0 h 0.04475 v 0 h 0.04475 v 0 h 0.04475 v 0 h 0.04475 v 0 h 0.04475 v 0 h 0.04475 v 0 h 0.04475 v 0 l 0.01119,-31.917936 h 0.03356 v 0 h 0.04475 v 0 h 0.04475 v 0 h 0.04475 v 0 h 0.04475 v 0 h 0.04475 v 0 h 0.04475 v 0 h 0.04475 v 0 h 0.04475 v 0 h 0.04475 v 0 h 0.04475 v 0 h 0.04475 v 0 h 0.04475 v 0 l 0.03356,31.917936 h 0.01119 v 0 h 0.04475 v 0 h 0.04475 v 0 h 0.04475 v 0 h 0.04475 v 0 h 0.04475 v 0 h 0.04475 v 0 h 0.04475 v 0 h 0.04475 v 0 h 0.04475 v 0 h 0.04475 v 0 h 0.04475 v 0 h 0.04475 v 0 h 0.04475 v 0 h 0.04475 v 0 h 0.04475 v 0 h 0.04475 v 0 h 0.04475 v 0 h 0.04475 v 0 h 0.04475 v 0 h 0.04475 v 0 h 0.04475 v 0 h 0.04475 v 0 h 0.04475 v 0 h 0.04475 v 0 h 0.04475 v 0 h 0.04475 v 0 h 0.04475 v 0 h 0.04475 v 0 h 0.04475 v 0 h 0.04475 v 0 h 0.04475 v 0 h 0.04475 v 0 h 0.04475 v 0 h 0.04475 v 0 h 0.04475 v 0 l 0.01119,-31.917936 h 0.03356 v 0 h 0.04475 v 0 h 0.04475 v 0 h 0.04475 v 0 h 0.04475 v 0 h 0.04475 v 0 h 0.04475 v 0 l 0.01119,31.917936 h 0.03356 v 0 h 0.04475 v 0 h 0.04475 v 0 h 0.04475 v 0 h 0.04475 v 0 h 0.04475 v 0 h 0.04475 v 0 h 0.04475 v 0 h 0.04475 v 0 h 0.04475 v 0 h 0.04475 v 0 h 0.04475 v 0 h 0.04475 v 0 h 0.04475 v 0 h 0.04475 v 0 h 0.04475 v 0 h 0.04475 v 0 h 0.04475 v 0 h 0.04475 v 0 h 0.04475 v 0 h 0.04475 v 0 h 0.04475 v 0 h 0.04475 v 0 h 0.04475 v 0 h 0.04475 v 0 h 0.04475 v 0 h 0.04475 v 0 h 0.04475 v 0 h 0.04475 v 0 h 0.04475 v 0 h 0.04475 v 0 h 0.04475 v 0 h 0.04475 v 0 h 0.04475 v 0 h 0.04475 v 0 h 0.04475 v 0 h 0.04475 v 0 h 0.04475 v 0 h 0.04475 v 0 l 0.03356,-31.917936 h 0.01119 v 0 h 0.04475 v 0 h 0.04475 v 0 h 0.04475 v 0 h 0.04475 v 0 l 0.02237,31.917936 h 0.02238 v 0 h 0.04475 v 0 h 0.04475 v 0 h 0.04475 v 0 h 0.04475 v 0 h 0.04475 v 0 h 0.04475 v 0 h 0.04475 v 0 h 0.04475 v 0 h 0.04475 v 0 h 0.04475 v 0 h 0.04475 v 0 h 0.04475 v 0 h 0.04475 v 0 h 0.04475 v 0 h 0.04475 v 0 h 0.04475 v 0 h 0.04475 v 0 h 0.04475 v 0 h 0.04475 v 0 h 0.04475 v 0 h 0.04475 v 0 h 0.04475 v 0 h 0.04475 v 0 h 0.04475 v 0 h 0.04475 v 0 h 0.04475 v 0 h 0.04475 v 0 h 0.04475 v 0 h 0.04475 v 0 h 0.04475 v 0 h 0.04475 v 0 h 0.04475 v 0 h 0.04475 v 0 h 0.04475 v 0 h 0.04475 v 0 h 0.04475 v 0 h 0.04475 v 0 h 0.04475 v 0 l 0.04475,-31.917936 v 0 0 h 0.04475 v 0 h 0.04475 v 0 h 0.04475 v 0 h 0.04475 v 0 h 0.04475 v 0 h 0.04475 v 0 l 0.04475,31.917936 v 0 0 h 0.04475 v 0 h 0.04475 v 0 h 0.04475 v 0 h 0.04475 v 0 h 0.04475 v 0 h 0.04475 v 0 h 0.04475 v 0 h 0.04475 v 0 h 0.04475 v 0 h 0.04475 v 0 h 0.04475 v 0 h 0.04475 v 0 h 0.04475 v 0 h 0.04475 v 0 h 0.04475 v 0 h 0.04475 v 0 h 0.04475 v 0 h 0.04475 v 0 h 0.04475 v 0 h 0.04475 v 0 h 0.04475 v 0 h 0.04475 v 0 h 0.04475 v 0 h 0.04475 v 0 h 0.04475 v 0 h 0.04475 v 0 h 0.04475 v 0 h 0.04475 v 0 h 0.04475 v 0 h 0.04475 v 0 h 0.04475 v 0 h 0.04475 v 0 h 0.04475 v 0 h 0.04475 v 0 h 0.04475 v 0 l 0.02238,-31.917936 h 0.02238 v 0 h 0.04475 v 0 h 0.04475 v 0 h 0.04475 v 0 h 0.04475 v 0 h 0.04475 v 0 h 0.04475 v 0 h 0.04475 v 0 h 0.04474 v 0 h 0.04475 v 0 h 0.04475 v 0 h 0.04475 v 0 h 0.04475 v 0 l 0.04475,31.917936 v 0 0 h 0.04475 v 0 h 0.04475 v 0 h 0.04475 v 0 h 0.04475 v 0 h 0.04475 v 0 h 0.04475 v 0 h 0.04475 v 0 h 0.04475 v 0 h 0.04475 v 0 h 0.04475 v 0 h 0.04475 v 0 h 0.04475 v 0 h 0.04475 v 0 h 0.04475 v 0 h 0.04475 v 0 h 0.04475 v 0 h 0.04475 v 0 h 0.04475 v 0 h 0.04475 v 0 h 0.04475 v 0 h 0.04475 v 0 h 0.04475 v 0 h 0.04475 v 0 h 0.04475 v 0 h 0.04475 v 0 h 0.04475 v 0 h 0.04475 v 0 l 0.03356,-31.917936 h 0.01119 v 0 h 0.04475 v 0 h 0.04475 v 0 h 0.04475 v 0 h 0.04475 v 0 h 0.04475 v 0 h 0.04475 v 0 h 0.04475 v 0 h 0.04475 v 0 h 0.04475 v 0 h 0.04475 v 0 h 0.04475 v 0 h 0.04475 v 0 h 0.04475 v 0 h 0.04475 v 0 h 0.04475 v 0 h 0.04475 v 0 h 0.04475 v 0 h 0.04475 v 0 h 0.04475 v 0 h 0.04475 v 0 h 0.04475 v 0 h 0.04475 v 0 l 0.02238,31.917936 h 0.02237 v 0 h 0.04475 v 0 h 0.04475 v 0 h 0.04475 v 0 h 0.04475 v 0 h 0.04475 v 0 h 0.04475 v 0 h 0.04475 v 0 h 0.04475 v 0 h 0.04475 v 0 h 0.04475 v 0 h 0.04475 v 0 h 0.04475 v 0 h 0.04475 v 0 h 0.04475 v 0 h 0.04475 v 0 h 0.04475 v 0 h 0.04475 v 0 l 0.03356,-31.917936 h 0.01119 v 0 h 0.04475 v 0 h 0.04475 v 0 h 0.04475 v 0 h 0.04475 v 0 h 0.04475 v 0 h 0.04475 v 0 h 0.04475 v 0 h 0.04475 v 0 h 0.04475 v 0 h 0.04475 v 0 h 0.04475 v 0 h 0.04475 v 0 h 0.04475 v 0 h 0.04475 v 0 h 0.04475 v 0 h 0.04475 v 0 h 0.04475 v 0 h 0.04475 v 0 h 0.04475 v 0 h 0.04475 v 0 h 0.04475 v 0 h 0.04475 v 0 h 0.04475 v 0 h 0.04475 v 0 h 0.04475 v 0 h 0.04475 v 0 h 0.04475 v 0 h 0.04475 v 0 h 0.04475 v 0 h 0.04475 v 0 h 0.04475 v 0 l 0.02238,31.917936 h 0.02238 v 0 h 0.04475 v 0 h 0.04475 v 0 h 0.04475 v 0 h 0.04475 v 0 h 0.04475 v 0 h 0.04474 v 0 h 0.04475 v 0 h 0.04475 v 0 h 0.04475 v 0 l 0.01119,-31.917936 h 0.03356 v 0 h 0.04475 v 0 h 0.04475 v 0 h 0.04475 v 0 h 0.04475 v 0 h 0.04475 v 0 h 0.04475 v 0 h 0.04475 v 0 h 0.04475 v 0 h 0.04475 v 0 h 0.04475 v 0 h 0.04475 v 0 h 0.04475 v 0 h 0.04475 v 0 h 0.04475 v 0 h 0.04475 v 0 h 0.04475 v 0 h 0.04475 v 0 h 0.04475 v 0 h 0.04475 v 0 h 0.04475 v 0 h 0.04475 v 0 h 0.04475 v 0 h 0.04475 v 0 h 0.04475 v 0 h 0.04475 v 0 h 0.04475 v 0 h 0.04475 v 0 h 0.04475 v 0 h 0.04475 v 0 h 0.04475 v 0 h 0.04475 v 0 h 0.04475 v 0 h 0.04475 v 0 h 0.04475 v 0 h 0.04475 v 0 h 0.04475 v 0 h 0.04475 v 0 l 0.01119,31.917936 h 0.03356 v 0 h 0.04475 v 0 h 0.04475 v 0 h 0.04475 v 0 h 0.04475 v 0 l 0.02238,-31.917936 h 0.02237 v 0 h 0.04475 v 0 h 0.04475 v 0 h 0.04475 v 0 h 0.04475 v 0 h 0.04475 v 0 h 0.04475 v 0 h 0.04475 v 0 h 0.04475 v 0 h 0.04475 v 0 h 0.04475 v 0 h 0.04475 v 0 h 0.04475 v 0 h 0.04475 v 0 h 0.04475 v 0 h 0.04475 v 0 h 0.04475 v 0 h 0.04475 v 0 h 0.04475 v 0 h 0.04475 v 0 h 0.04475 v 0 h 0.04475 v 0 h 0.0447 v 0 h 0.0448 v 0 h 0.0447 v 0 h 0.0447 v 0 h 0.0448 v 0 h 0.0447 v 0 h 0.0448 v 0 h 0.0447 v 0 h 0.0448 v 0 h 0.0447 v 0 h 0.0448 v 0 h 0.0447 v 0 h 0.0448 v 0 h 0.0447 v 0 h 0.0448 v 0 h 0.0447 v 0 h 0.0448 v 0 h 0.0447 v 0 l 0.0336,31.917936 h 0.0112 v 0 h 0.0448 v 0 h 0.0447 v 0 h 0.0448 v 0 h 0.0447 v 0 l 0.0448,-31.917936 v 0 0 h 0.0447 v 0 h 0.0448 v 0 h 0.0447 v 0 h 0.0448 v 0 h 0.0447 v 0 h 0.0448 v 0 h 0.0447 v 0 h 0.0447 v 0 h 0.0448 v 0 h 0.0447 v 0 h 0.0448 v 0 h 0.0447 v 0 h 0.0448 v 0 h 0.0447 v 0 h 0.0448 v 0 h 0.0447 v 0 h 0.0448 v 0 h 0.0447 v 0 h 0.0448 v 0 h 0.0447 v 0 h 0.0448 v 0 h 0.0447 v 0 h 0.0447 v 0 h 0.0448 v 0 h 0.0447 v 0 h 0.0448 v 0 h 0.0447 v 0 h 0.0448 v 0 h 0.0447 v 0 h 0.0448 v 0 h 0.0447 v 0 h 0.0448 v 0 h 0.0447 v 0 h 0.0448 v 0 h 0.0447 v 0 h 0.0447 v 0 h 0.0448 v 0 l 0.0447,31.917936 v 0 0 h 0.0448 v 0 h 0.0447 v 0 h 0.0448 v 0 h 0.0447 v 0 h 0.0448 v 0 h 0.0447 v 0 h 0.0448 v 0 h 0.0447 v 0 h 0.0448 v 0 l 0.0336,-31.917936 h 0.0112 v 0 h 0.0448 v 0 h 0.0447 v 0 h 0.0447 v 0 h 0.0448 v 0 h 0.0447 v 0 h 0.0448 v 0 h 0.0447 v 0 h 0.0448 v 0 h 0.0447 v 0 h 0.0448 v 0 h 0.0447 v 0 h 0.0448 v 0 h 0.0447 v 0 h 0.0448 v 0 h 0.0447 v 0 h 0.0447 v 0 h 0.0448 v 0 h 0.0447 v 0 h 0.0448 v 0 h 0.0447 v 0 h 0.0448 v 0 h 0.0447 v 0 h 0.0448 v 0 h 0.0447 v 0 h 0.0448 v 0 h 0.0447 v 0 h 0.0448 v 0 h 0.0447 v 0 h 0.0448 v 0 h 0.0447 v 0 h 0.0447 v 0 l 0.0224,31.917936 h 0.0224 v 0 h 0.0447 v 0 h 0.0448 v 0 h 0.0447 v 0 h 0.0448 v 0 h 0.0447 v 0 h 0.0448 v 0 h 0.0447 v 0 h 0.0448 v 0 h 0.0447 v 0 h 0.0448 v 0 h 0.0447 v 0 h 0.0447 v 0 h 0.0448 v 0 h 0.0447 v 0 h 0.0448 v 0 h 0.0447 v 0 h 0.0448 v 0 l 0.0336,-31.917936 h 0.0112 v 0 h 0.0448 v 0 h 0.0447 v 0 h 0.0448 v 0 h 0.0447 v 0 h 0.0448 v 0 h 0.0447 v 0 h 0.0447 v 0 h 0.0448 v 0 h 0.0447 v 0 h 0.0448 v 0 h 0.0447 v 0 h 0.0448 v 0 h 0.0447 v 0 h 0.0448 v 0 h 0.0447 v 0 h 0.0448 v 0 h 0.0447 v 0 h 0.0448 v 0 h 0.0447 v 0 h 0.0448 v 0 h 0.0447 v 0 h 0.0447 v 0 l 0.0224,31.917936 h 0.0224 v 0 h 0.0447 v 0 h 0.0448 v 0 h 0.0447 v 0 h 0.0448 v 0 h 0.0447 v 0 h 0.0448 v 0 h 0.0447 v 0 h 0.0448 v 0 h 0.0447 v 0 h 0.0448 v 0 h 0.0447 v 0 h 0.0447 v 0 h 0.0448 v 0 h 0.0447 v 0 h 0.0448 v 0 h 0.0447 v 0 h 0.0448 v 0 h 0.0447 v 0 h 0.0448 v 0 h 0.0447 v 0 h 0.0448 v 0 h 0.0447 v 0 h 0.0448 v 0 h 0.0447 v 0 h 0.0448 v 0 h 0.0447 v 0 h 0.0447 v 0 l 0.0112,-31.917936 h 0.0336 v 0 h 0.0447 v 0 h 0.0448 v 0 h 0.0447 v 0 h 0.0448 v 0 h 0.0447 v 0 h 0.0448 v 0 h 0.0447 v 0 h 0.0448 v 0 h 0.0447 v 0 h 0.0448 v 0 h 0.0447 v 0 h 0.0447 v 0 l 0.0336,31.917936 h 0.0112 v 0 h 0.0447 v 0 h 0.0448 v 0 h 0.0447 v 0 h 0.0448 v 0 h 0.0447 v 0 h 0.0448 v 0 h 0.0447 v 0 h 0.0448 v 0 h 0.0447 v 0 h 0.0448 v 0 h 0.0447 v 0 h 0.0448 v 0 h 0.0447 v 0 h 0.0447 v 0 h 0.0448 v 0 h 0.0447 v 0 h 0.0448 v 0 h 0.0447 v 0 h 0.0448 v 0 h 0.0447 v 0 h 0.0448 v 0 h 0.0447 v 0 h 0.0448 v 0 h 0.0447 v 0 h 0.0448 v 0 h 0.0447 v 0 h 0.0447 v 0 h 0.0448 v 0 h 0.0447 v 0 h 0.0448 v 0 h 0.0447 v 0 h 0.0448 v 0 h 0.0447 v 0 h 0.0448 v 0 h 0.0447 v 0 l 0.0112,-31.917936 h 0.0336 v 0 h 0.0447 v 0 h 0.0448 v 0 h 0.0447 v 0 h 0.0448 v 0 h 0.0447 v 0 h 0.0447 v 0 l 0.0112,31.917936 h 0.0336 v 0 h 0.0447 v 0 h 0.0448 v 0 h 0.0447 v 0 h 0.0448 v 0 h 0.0447 v 0 h 0.0448 v 0 h 0.0447 v 0 h 0.0448 v 0 h 0.0447 v 0 h 0.0448 v 0 h 0.0447 v 0 h 0.0447 v 0 h 0.0448 v 0 h 0.0447 v 0 h 0.0448 v 0 h 0.0447 v 0 h 0.0448 v 0 h 0.0447 v 0 h 0.0448 v 0 h 0.0447 v 0 h 0.0448 v 0 h 0.0447 v 0 h 0.0448 v 0 h 0.0447 v 0 h 0.0447 v 0 h 0.0448 v 0 h 0.0447 v 0 h 0.0448 v 0 h 0.0447 v 0 h 0.0448 v 0 h 0.0447 v 0 h 0.0448 v 0 h 0.0447 v 0 h 0.0448 v 0 h 0.0447 v 0 h 0.0448 v 0 h 0.0447 v 0 h 0.0448 v 0 l 0.0336,-31.917936 h 0.0112 v 0 h 0.0447 v 0 h 0.0448 v 0 h 0.0447 v 0 h 0.0448 v 0 l 0.0224,31.917936 h 0.0224 v 0 h 0.0448 v 0 h 0.0447 v 0 h 0.0447 v 0 h 0.0447 v 0 h 0.0448 v 0 h 0.0447 v 0 h 0.0448 v 0 h 0.0447 v 0 h 0.0447 v 0 h 0.0448 v 0 h 0.0447 v 0 h 0.0448 v 0 h 0.0447 v 0 h 0.0448 v 0 h 0.0447 v 0 h 0.0448 v 0 h 0.0447 v 0 h 0.0448 v 0 h 0.0447 v 0 h 0.0448 v 0 h 0.0447 v 0 h 0.0448 v 0 h 0.0447 v 0 h 0.0447 v 0 h 0.0448 v 0 h 0.0447 v 0 h 0.0448 v 0 h 0.0447 v 0 h 0.0448 v 0 h 0.0447 v 0 h 0.0448 v 0 h 0.0447 v 0 h 0.0448 v 0 h 0.0447 v 0 h 0.0448 v 0 h 0.0447 v 0 h 0.0447 v 0 h 0.0448 v 0 l 0.0447,-31.917936 v 0 0 h 0.0447 v 0 h 0.0447 v 0 h 0.0448 v 0 h 0.0447 v 0 h 0.0448 v 0 h 0.0447 v 0 l 0.0448,31.917936 v 0 0 h 0.0447 v 0 h 0.0448 v 0 h 0.0447 v 0 h 0.0448 v 0 h 0.0447 v 0 h 0.0448 v 0 h 0.0447 v 0 h 0.0447 v 0 h 0.0448 v 0 h 0.0447 v 0 h 0.0448 v 0 h 0.0447 v 0 h 0.0448 v 0 h 0.0447 v 0 h 0.0448 v 0 h 0.0447 v 0 h 0.0448 v 0 h 0.0447 v 0 h 0.0448 v 0 h 0.0447 v 0 h 0.0447 v 0 h 0.0448 v 0 h 0.0447 v 0 h 0.0448 v 0 h 0.0447 v 0 h 0.0448 v 0 h 0.0447 v 0 h 0.0448 v 0 h 0.0447 v 0 h 0.0448 v 0 h 0.0447 v 0 h 0.0448 v 0 h 0.0447 v 0 h 0.0448 v 0 h 0.0447 v 0 l 0.0224,-31.917936 h 0.0224 v 0 h 0.0448 v 0 h 0.0447 v 0 h 0.0448 v 0 h 0.0447 v 0 h 0.0448 v 0 h 0.0447 v 0 h 0.0448 v 0 h 0.0447 v 0 h 0.0448 v 0 h 0.0447 v 0 h 0.0448 v 0 h 0.0447 v 0 l 0.0447,31.917936 v 0 0 h 0.0448 v 0 h 0.0447 v 0 h 0.0448 v 0 h 0.0447 v 0 h 0.0448 v 0 h 0.0447 v 0 h 0.0448 v 0 h 0.0447 v 0 h 0.0448 v 0 h 0.0447 v 0 h 0.0448 v 0 h 0.0447 v 0 h 0.0448 v 0 h 0.0447 v 0 h 0.0447 v 0 h 0.0448 v 0 h 0.0447 v 0 h 0.0448 v 0 h 0.0447 v 0 h 0.0448 v 0 h 0.0447 v 0 h 0.0448 v 0 h 0.0447 v 0 h 0.0448 v 0 h 0.0447 v 0 h 0.0448 v 0 h 0.0447 v 0 l 0.0336,-31.917936 h 0.0112 v 0 h 0.0448 v 0 h 0.0447 v 0 h 0.0448 v 0 h 0.0447 v 0 h 0.0448 v 0 h 0.0447 v 0 h 0.0448 v 0 h 0.0447 v 0 h 0.0448 v 0 h 0.0447 v 0 h 0.0448 v 0 h 0.0447 v 0 h 0.0448 v 0 h 0.0447 v 0 h 0.0447 v 0 h 0.0448 v 0 h 0.0447 v 0 h 0.0448 v 0 h 0.0447 v 0 h 0.0448 v 0 h 0.0447 v 0 h 0.0448 v 0 l 0.0224,31.917936 h 0.0224 v 0 h 0.0448 v 0 h 0.0447 v 0 h 0.0448 v 0 h 0.0447 v 0 h 0.0447 v 0 h 0.0448 v 0 h 0.0447 v 0 h 0.0448 v 0 h 0.0447 v 0 h 0.0448 v 0 h 0.0447 v 0 h 0.0448 v 0 h 0.0447 v 0 h 0.0448 v 0 h 0.0447 v 0 h 0.0448 v 0 h 0.0447 v 0 l 0.0336,-31.917936 h 0.0112 v 0 h 0.0447 v 0 h 0.0447 v 0 h 0.0448 v 0 h 0.0447 v 0 h 0.0448 v 0 h 0.0447 v 0 h 0.0448 v 0 h 0.0447 v 0 h 0.0448 v 0 h 0.0447 v 0 h 0.0448 v 0 h 0.0447 v 0 h 0.0448 v 0 h 0.0447 v 0 h 0.0447 v 0 h 0.0448 v 0 h 0.0447 v 0 h 0.0448 v 0 h 0.0447 v 0 h 0.0448 v 0 h 0.0447 v 0 h 0.0448 v 0 h 0.0447 v 0 h 0.0448 v 0 h 0.0447 v 0 h 0.0448 v 0 h 0.0447 v 0 h 0.0447 v 0 h 0.0448 v 0 h 0.0447 v 0 h 0.0448 v 0 l 0.0224,31.917936 h 0.0224 v 0 h 0.0448 v 0 h 0.0447 v 0 h 0.0448 v 0 h 0.0447 v 0 h 0.0448 v 0 h 0.0447 v 0 h 0.045 v 0 h 0.0447 v 0 h 0.0448 v 0 l 0.0112,-31.917936 h 0.0336 v 0 h 0.0447 v 0 h 0.0448 v 0 h 0.0447 v 0 h 0.0448 v 0 h 0.0447 v 0 h 0.0448 v 0 h 0.0447 v 0 h 0.0448 v 0 h 0.0447 v 0 h 0.0448 v 0 h 0.0447 v 0 h 0.0448 v 0 h 0.0447 v 0 h 0.0447 v 0 h 0.0448 v 0 h 0.0447 v 0 h 0.0448 v 0 h 0.0447 v 0 h 0.0448 v 0 h 0.0447 v 0 h 0.0448 v 0 h 0.0447 v 0 h 0.0448 v 0 h 0.0447 v 0 h 0.0448 v 0 h 0.0447 v 0 h 0.0448 v 0 h 0.0447 v 0 h 0.0447 v 0 h 0.0448 v 0 h 0.0447 v 0 h 0.0448 v 0 h 0.0447 v 0 h 0.0448 v 0 h 0.0447 v 0 h 0.0448 v 0 h 0.0447 v 0 l 0.0112,31.917936 h 0.0336 v 0 h 0.0447 v 0 h 0.0448 v 0 h 0.0447 v 0 h 0.0447 v 0 l 0.0224,-31.917936 h 0.0224 v 0 h 0.0447 v 0 h 0.0448 v 0 h 0.0447 v 0 h 0.0448 v 0 h 0.0447 v 0 h 0.0448 v 0 h 0.0447 v 0 h 0.0448 v 0 h 0.0447 v 0 h 0.0448 v 0 h 0.0447 v 0 h 0.0448 v 0 h 0.0447 v 0 h 0.0447 v 0 h 0.0448 v 0 h 0.0447 v 0 h 0.0448 v 0 h 0.0447 v 0 h 0.0448 v 0 h 0.0447 v 0 h 0.0448 v 0 h 0.0447 v 0 h 0.0448 v 0 h 0.0447 v 0 h 0.0448 v 0 h 0.0447 v 0 h 0.0447 v 0 h 0.0448 v 0 h 0.0447 v 0 h 0.0448 v 0 h 0.0447 v 0 h 0.0448 v 0 h 0.0447 v 0 h 0.0448 v 0 h 0.0447 v 0 h 0.0448 v 0 h 0.0447 v 0 h 0.0448 v 0 h 0.0447 v 0 l 0.0336,31.917936 h 0.0112 v 0 h 0.0447 v 0 h 0.0447 v 0 h 0.0448 v 0 h 0.0447 v 0 l 0.0448,-31.917936 v 0 0 h 0.0447 v 0 h 0.0448 v 0 h 0.0447 v 0 h 0.0448 v 0 h 0.0447 v 0 h 0.0448 v 0 h 0.0447 v 0 h 0.0448 v 0 h 0.0447 v 0 h 0.0447 v 0 h 0.0448 v 0 h 0.0447 v 0 h 0.0448 v 0 h 0.0447 v 0 h 0.0448 v 0 h 0.0447 v 0 h 0.0448 v 0 h 0.0447 v 0 h 0.0448 v 0 h 0.0447 v 0 h 0.0448 v 0 h 0.0447 v 0 h 0.0447 v 0 h 0.0448 v 0 h 0.0447 v 0 h 0.0448 v 0 h 0.0447 v 0 h 0.0448 v 0 h 0.0447 v 0 h 0.0448 v 0 h 0.0447 v 0 h 0.0448 v 0 h 0.0447 v 0 h 0.0448 v 0 h 0.0447 v 0 h 0.0448 v 0 h 0.0447 v 0 l 0.0447,31.917936 v 0 0 h 0.0448 v 0 h 0.0447 v 0 h 0.0448 v 0 h 0.0447 v 0 h 0.0448 v 0 h 0.0447 v 0 h 0.0448 v 0 h 0.0447 v 0 h 0.0448 v 0 l 0.0336,-31.917936 h 0.0112 v 0 h 0.0448 v 0 h 0.0447 v 0 h 0.0447 v 0 h 0.0448 v 0 h 0.0447 v 0 h 0.0448 v 0 h 0.0447 v 0 h 0.0448 v 0 h 0.0447 v 0 h 0.0448 v 0 h 0.0447 v 0 h 0.0448 v 0 h 0.0447 v 0 h 0.0448 v 0 h 0.0447 v 0 h 0.0448 v 0 h 0.0447"
       id="path163" />
    <path
       style="fill:#808080;fill-opacity:1;fill-rule:nonzero;stroke:none;stroke-width:0.264583"
       d="m 15.417914,133.23318 c 0,-0.32444 -0.2685,-0.59294 -0.604125,-0.59294 -0.324437,0 -0.592937,0.2685 -0.592937,0.59294 0,0.33563 0.2685,0.60413 0.592937,0.60413 0.335625,0 0.604125,-0.2685 0.604125,-0.60413 z"
       id="path167" />
    <path
       style="fill:#ffffdc;fill-opacity:1;fill-rule:nonzero;stroke:none;stroke-width:0.264583"
       d="m 14.813789,132.64024 c 0.335625,0 0.604125,0.2685 0.604125,0.59294 v 0 c 0,0.33563 -0.2685,0.60413 -0.604125,0.60413 -0.324437,0 -0.592937,-0.2685 -0.592937,-0.60413 0,-0.32444 0.2685,-0.59294 0.592937,-0.59294 z m 0,-0.30206 c -0.49225,0 -0.895,0.40275 -0.895,0.895 0,0.50344 0.40275,0.895 0.895,0.895 0.503438,0 0.895,-0.39156 0.895,-0.895 v 0 c 0,-0.49225 -0.391562,-0.895 -0.895,-0.895 z"
       id="path169" />
  </g>
</svg>
